<svg width="188" height="94" viewBox="0 0 188 94" fill="none" xmlns="http://www.w3.org/2000/svg">
<rect width="188" height="94" rx="24" fill="white"/>
<g clip-path="url(#clip0_246_2736)">
<path d="M76.0712 45.5473C76.0712 36.4313 65.0868 29 51.5364 29C37.9869 29 27.0028 36.4313 27.0028 45.5473C27.0028 45.7825 27 46.4335 27 46.516C27 56.1869 36.6008 64.0195 51.5334 64.0195C66.5586 64.0195 76.0712 56.189 76.0712 46.5177C76.0712 46.1796 76.0712 45.9854 76.0712 45.5473Z" fill="#141685"/>
<path d="M75.1315 45.539C75.1315 54.1332 64.57 61.1003 51.5408 61.1003C38.5121 61.1003 27.9508 54.1332 27.9508 45.539C27.951 36.944 38.5122 29.9771 51.5409 29.9771C64.5702 29.9771 75.1315 36.944 75.1315 45.539Z" fill="#05B0D9"/>
<path d="M43.708 40.6294C43.6957 40.6539 43.4603 40.9049 43.6128 41.1067C43.9853 41.5971 45.1348 41.8783 46.2978 41.6095C46.9901 41.449 47.8775 40.7212 48.7373 40.018C49.6687 39.2545 50.5931 38.4903 51.5224 38.1864C52.506 37.8636 53.1363 38.002 53.5528 38.132C54.0098 38.2725 54.5468 38.5825 55.4037 39.2455C57.0182 40.497 63.5087 46.3386 64.6301 47.3486C65.5334 46.9279 69.5475 45.146 75.0021 43.9063C74.5282 40.9075 72.7593 38.1643 70.0765 35.9178C66.3374 37.5371 61.7677 38.3821 57.2994 36.1317C57.2765 36.122 54.8582 34.9419 52.4727 34.9999C48.9273 35.0846 47.3914 36.667 45.7661 38.3417L43.708 40.6294Z" fill="white"/>
<path d="M64.3664 47.9841C64.2904 47.9144 56.7348 41.0971 55.0229 39.7704C54.0324 39.0045 53.4815 38.8091 52.9029 38.7329C52.6016 38.6927 52.1858 38.7504 51.8948 38.8325C51.0985 39.0561 50.0576 39.774 49.1329 40.5295C48.1758 41.3156 47.2734 42.056 46.4362 42.2491C45.3663 42.4965 44.0599 42.2046 43.4638 41.7889C43.2222 41.6217 43.0523 41.428 42.9705 41.2312C42.7503 40.7049 43.1566 40.2839 43.2233 40.2135L45.3084 37.888C45.5506 37.6386 45.7949 37.389 46.0445 37.1432C45.3717 37.2336 44.7498 37.4107 44.1443 37.5845C43.3888 37.8038 42.6621 38.0121 41.9271 38.0116C41.6202 38.0116 39.976 37.7337 39.6638 37.6462C37.777 37.1135 36.1211 36.5951 33.6472 35.4041C30.683 37.6793 28.701 40.5245 28.1283 43.658C28.5542 43.7742 29.2403 43.9848 29.5286 44.0505C36.2366 45.5884 38.3259 47.1728 38.7047 47.5034C39.1152 47.0325 39.7066 46.7345 40.3677 46.7345C41.1101 46.7356 41.7787 47.12 42.1852 47.7145C42.5694 47.4015 43.099 47.1343 43.7839 47.1347C44.0947 47.1347 44.4175 47.194 44.7434 47.3083C45.5004 47.576 45.8908 48.0956 46.0934 48.5658C46.3475 48.4476 46.6593 48.3604 47.027 48.3614C47.388 48.3614 47.7639 48.4464 48.1425 48.6152C49.3793 49.1625 49.5718 50.415 49.4596 51.3594C49.5477 51.3487 49.6362 51.3446 49.7263 51.3446C51.1926 51.3456 52.3853 52.5745 52.3847 54.0876C52.3847 54.5556 52.2686 54.9957 52.0668 55.3822C52.4658 55.6135 53.483 56.1367 54.3757 56.0199C55.0892 55.9275 55.3601 55.6758 55.4571 55.5343C55.5234 55.4369 55.5937 55.3234 55.5286 55.2419L53.6358 53.0738C53.6358 53.0738 53.3241 52.7699 53.4269 52.6528C53.534 52.5325 53.7262 52.7051 53.8625 52.8227C54.8257 53.6523 56.002 54.9041 56.002 54.9041C56.0216 54.9175 56.0996 55.0762 56.5345 55.1566C56.909 55.2257 57.5714 55.1856 58.0304 54.7969C58.1465 54.6987 58.2621 54.5763 58.3587 54.4499C58.3512 54.456 58.3448 54.4644 58.3376 54.4674C58.8216 53.829 58.2841 53.1826 58.2841 53.1826L56.0744 50.6239C56.0744 50.6239 55.7583 50.3229 55.8656 50.2015C55.9619 50.0966 56.1653 50.2554 56.3035 50.3738C57.0031 50.9773 57.9916 52 58.9391 52.957C59.1241 53.0966 59.9571 53.6279 61.0594 52.8809C61.7284 52.4286 61.8629 51.8726 61.844 51.4532C61.7975 50.898 61.3773 50.5026 61.3773 50.5026L58.3587 47.3734C58.3587 47.3734 58.0402 47.0925 58.1526 46.9506C58.2449 46.831 58.452 47.0033 58.5876 47.1203C59.5496 47.9499 62.1522 50.4107 62.1522 50.4107C62.1892 50.4378 63.0887 51.0979 64.2 50.3683C64.5973 50.1064 64.8514 49.7113 64.873 49.253C64.9113 48.4567 64.3664 47.9841 64.3664 47.9841Z" fill="white"/>
<path d="M49.7261 51.9509C49.2581 51.9452 48.7462 52.2317 48.6794 52.1901C48.6426 52.1649 48.708 51.9709 48.7519 51.8592C48.7967 51.7482 49.4131 49.836 47.9108 49.1718C46.7611 48.6622 46.0584 49.2355 45.8168 49.4942C45.7534 49.5619 45.7251 49.5565 45.7177 49.47C45.6946 49.1258 45.5451 48.1941 44.5529 47.882C43.1347 47.4344 42.2229 48.4551 41.9915 48.8234C41.8879 47.9899 41.2046 47.3429 40.3675 47.342C39.4582 47.341 38.7205 48.1009 38.7195 49.0383C38.7193 49.9758 39.4564 50.736 40.3655 50.736C40.8076 50.737 41.2084 50.5549 41.5039 50.2624C41.5132 50.2713 41.5171 50.2872 41.5121 50.3197C41.4431 50.7393 41.3154 52.265 42.8648 52.8861C43.4861 53.1348 44.0146 52.9498 44.4526 52.6331C44.5831 52.5381 44.6045 52.5782 44.5857 52.7045C44.5298 53.0967 44.6006 53.937 45.7426 54.4148C46.6118 54.7787 47.1261 54.4062 47.4629 54.0853C47.6095 53.947 47.6495 53.9694 47.6572 54.1826C47.6987 55.3179 48.6133 56.2193 49.724 56.2205C50.8685 56.2217 51.7959 55.2675 51.7964 54.088C51.7971 52.9075 50.8703 51.9637 49.7261 51.9509Z" fill="white"/>
<path d="M64.6587 47.1679C62.3313 45.0734 56.9522 40.2514 55.4953 39.1239C54.6632 38.4783 54.0953 38.1374 53.597 37.9843C53.3733 37.9145 53.0633 37.8351 52.6644 37.8348C52.2941 37.8348 51.896 37.9038 51.4805 38.04C50.5389 38.3471 49.6011 39.1159 48.6938 39.8594L48.6472 39.8975C47.8019 40.5901 46.9287 41.3069 46.2678 41.4592C45.9792 41.5262 45.6824 41.5607 45.3866 41.5607C44.6462 41.5596 43.9811 41.3392 43.732 41.0116C43.6908 40.9576 43.7171 40.8695 43.8133 40.7432L43.8262 40.7264L45.8736 38.451C47.4773 36.7975 48.9919 35.2361 52.4787 35.1535C52.536 35.1518 52.5951 35.1508 52.6527 35.1508C54.823 35.1522 56.9927 36.154 57.236 36.27C59.2709 37.2936 61.3713 37.8135 63.4829 37.8154C65.6836 37.8161 67.9539 37.2544 70.341 36.1211C70.0745 35.8897 69.7971 35.6647 69.5115 35.4442C67.4145 36.3817 65.4164 36.8554 63.4886 36.8547C61.5198 36.8529 59.5525 36.3653 57.6427 35.4044C57.542 35.3548 55.1463 34.19 52.6535 34.189C52.5882 34.189 52.5219 34.19 52.4568 34.191C49.5281 34.262 47.8784 35.3341 46.769 36.2738C45.6901 36.3007 44.7592 36.5692 43.9309 36.8077C43.1918 37.0195 42.5536 37.2032 41.9311 37.2027C41.6746 37.2027 41.2131 37.1785 41.1717 37.1771C40.4559 37.1547 36.8496 36.2424 33.9805 35.1225C33.6875 35.3363 33.4058 35.5571 33.1314 35.7819C36.1284 37.0489 39.7756 38.0291 40.9267 38.1056C41.2471 38.1272 41.5884 38.1646 41.9297 38.1655C42.6911 38.1655 43.4511 37.9453 44.1866 37.7331C44.6209 37.6073 45.1003 37.4706 45.6045 37.3708C45.4698 37.5072 45.3357 37.6452 45.2009 37.7844L43.1206 40.1048C42.9571 40.2752 42.6015 40.7301 42.8359 41.2904C42.9291 41.5165 43.1183 41.7324 43.3829 41.9163C43.8786 42.2605 44.7664 42.4932 45.5908 42.494C45.9032 42.4944 46.1993 42.4619 46.4715 42.3991C47.3433 42.1973 48.258 41.4459 49.2273 40.6515C49.9993 40.0189 51.0963 39.2159 51.936 38.9797C52.1707 38.914 52.459 38.8731 52.6905 38.8731C52.7598 38.8737 52.8251 38.876 52.8858 38.8848C53.4408 38.9575 53.9771 39.1522 54.935 39.8934C56.6425 41.216 64.1992 48.0324 64.2732 48.0999C64.2784 48.104 64.7602 48.5326 64.7267 49.245C64.7088 49.6422 64.4947 49.9954 64.123 50.2398C63.8006 50.4509 63.4675 50.5583 63.131 50.5583C62.626 50.5572 62.2781 50.3135 62.2557 50.2966C62.2277 50.2731 59.6388 47.8252 58.6865 47.0031C58.5347 46.8734 58.3872 46.7568 58.2382 46.7568C58.1583 46.7561 58.088 46.7913 58.0403 46.8529C57.8903 47.0433 58.0582 47.3071 58.2561 47.4807L61.2802 50.6152C61.2844 50.6185 61.6572 50.9789 61.6979 51.4598C61.7218 51.9794 61.4808 52.4141 60.9799 52.7524C60.6232 52.9949 60.2617 53.118 59.908 53.118C59.4438 53.118 59.1176 52.8996 59.0456 52.8482L58.6117 52.4072C57.8188 51.6028 57.0001 50.7711 56.401 50.2555C56.255 50.1302 56.0986 50.0145 55.9501 50.0145C55.8767 50.0145 55.8104 50.0427 55.7596 50.0977C55.6913 50.1761 55.6436 50.317 55.8139 50.5505C55.8842 50.6466 55.9667 50.7259 55.9667 50.7259L58.1736 53.282C58.1918 53.3048 58.6284 53.8397 58.2233 54.3726L58.1453 54.4746C58.0793 54.5498 58.0078 54.6189 57.9402 54.6786C57.5637 54.9972 57.0609 55.0313 56.8616 55.0313C56.7553 55.0313 56.6526 55.0218 56.5633 55.005C56.3455 54.9648 56.1992 54.9021 56.1286 54.816L56.102 54.7872C55.9811 54.6588 54.8687 53.4877 53.9482 52.6956C53.827 52.5906 53.676 52.4584 53.5191 52.4584C53.4418 52.4584 53.3732 52.4898 53.3199 52.5503C53.1378 52.756 53.411 53.0634 53.527 53.1762L55.4094 55.3164C55.4074 55.3354 55.3837 55.3794 55.3381 55.4473C55.2708 55.5434 55.0423 55.779 54.3595 55.8672C54.2778 55.8784 54.1931 55.8828 54.1096 55.8828C53.4055 55.8828 52.6545 55.5306 52.2675 55.3188C52.4436 54.9349 52.535 54.5125 52.535 54.0888C52.5356 52.491 51.2776 51.1916 49.7285 51.1906C49.6953 51.1906 49.6602 51.1916 49.627 51.1928C49.6778 50.4635 49.5778 49.0824 48.2029 48.4745C47.8074 48.298 47.4126 48.2079 47.0291 48.2079C46.729 48.2079 46.4404 48.2609 46.1687 48.3685C45.8839 47.7976 45.411 47.382 44.794 47.1652C44.4533 47.0435 44.114 46.9818 43.7861 46.9818C43.2142 46.9818 42.6872 47.1555 42.217 47.5004C41.7667 46.9228 41.0862 46.5809 40.3697 46.5809C39.743 46.5809 39.14 46.8396 38.693 47.2958C38.1073 46.8346 35.7831 45.312 29.5628 43.8556C29.2614 43.7855 28.5701 43.5808 28.1467 43.4531C28.0766 43.8005 28.0228 44.1513 27.9875 44.5055C27.9875 44.5055 29.1349 44.7888 29.3605 44.8411C35.7151 46.2964 37.8147 47.8097 38.1696 48.0957C38.0495 48.3933 37.9871 48.7146 37.9862 49.038C37.9856 50.3917 39.0533 51.4942 40.367 51.4952C40.5142 51.4952 40.6602 51.4821 40.8036 51.4547C41.0015 52.4508 41.6336 53.206 42.5998 53.5937C42.8823 53.7054 43.168 53.763 43.4482 53.763C43.6297 53.7634 43.812 53.7397 43.9905 53.693C44.1686 54.1602 44.5703 54.7428 45.4678 55.1188C45.7827 55.2494 46.0974 55.3176 46.403 55.3176C46.653 55.3176 46.8974 55.2724 47.1304 55.1842C47.5605 56.2644 48.5841 56.9801 49.7251 56.9801C50.4815 56.9811 51.2075 56.6632 51.7371 56.1013C52.1906 56.3613 53.1473 56.8313 54.1141 56.8327C54.2395 56.8327 54.3568 56.8233 54.4742 56.809C55.4344 56.6837 55.8812 56.2965 56.0866 55.9955C56.1236 55.943 56.157 55.8874 56.1853 55.8293C56.412 55.8966 56.6613 55.9513 56.9469 55.9522C57.4713 55.9522 57.9747 55.7676 58.4834 55.3855C58.9831 55.014 59.3384 54.4804 59.3896 54.0263C59.3906 54.0202 59.3916 54.0135 59.3923 54.0068C59.5607 54.0429 59.7336 54.0612 59.9062 54.0612C60.4461 54.0612 60.9772 53.8875 61.4846 53.5447C62.4636 52.8829 62.6337 52.0188 62.6174 51.4528C62.7885 51.4897 62.9636 51.5085 63.1375 51.5085C63.6446 51.5085 64.1419 51.3513 64.6165 51.0395C65.2232 50.6399 65.5885 50.0273 65.6437 49.3147C65.6817 48.8302 65.5654 48.3417 65.3174 47.9217C66.9576 47.1933 70.7059 45.7832 75.1198 44.7575C75.0932 44.4045 75.0438 44.056 74.9829 43.7091C69.6421 44.9315 65.6569 46.71 64.6587 47.1679ZM49.7261 56.0683C48.6891 56.0675 47.8457 55.2363 47.8079 54.1772C47.805 54.0865 47.7962 53.845 47.598 53.845C47.5166 53.845 47.4458 53.8956 47.3644 53.9714C47.1366 54.1892 46.846 54.4109 46.4218 54.4109C46.2296 54.4109 46.0207 54.3646 45.8006 54.2717C44.7054 53.8145 44.6902 53.0384 44.7347 52.7268C44.7466 52.6436 44.751 52.557 44.6954 52.4897L44.6281 52.4275H44.5598C44.5042 52.4275 44.4468 52.451 44.3691 52.5071C44.0522 52.7367 43.7486 52.848 43.4397 52.848C43.2696 52.848 43.0952 52.8128 42.9206 52.7434C41.4784 52.1646 41.5924 50.7614 41.6629 50.3389C41.6733 50.2534 41.6528 50.187 41.6 50.1428L41.4982 50.0563L41.4029 50.1502C41.1215 50.4297 40.7544 50.5826 40.3677 50.5826C39.5417 50.5816 38.8698 49.8897 38.8705 49.0379C38.8711 48.1858 39.5438 47.4943 40.3699 47.4954C41.116 47.4954 41.7515 48.074 41.8467 48.8428L41.8983 49.2574L42.1192 48.9065C42.144 48.8656 42.7492 47.9221 43.8614 47.9233C44.0731 47.9233 44.2916 47.9585 44.5114 48.0286C45.3985 48.3077 45.5486 49.1368 45.5717 49.482C45.5876 49.6835 45.7264 49.6931 45.7537 49.6931C45.8302 49.6931 45.8864 49.6429 45.9265 49.5999C46.0939 49.4199 46.4585 49.1202 47.029 49.1202C47.2899 49.1212 47.5678 49.1849 47.8546 49.312C49.2638 49.9355 48.6246 51.7823 48.6169 51.8014C48.4959 52.1075 48.491 52.2428 48.6049 52.3207L48.6605 52.3481H48.7016C48.7651 52.3481 48.8443 52.3196 48.9747 52.2741C49.1665 52.2057 49.4561 52.103 49.7266 52.1037H49.7273C50.7883 52.1154 51.6511 53.006 51.6508 54.0876C51.6498 55.1804 50.7865 56.0683 49.7261 56.0683Z" fill="#141685"/>
<path d="M159.672 35.0041C158.786 33.8598 157.442 33.2881 155.638 33.2881C153.836 33.2881 152.491 33.8598 151.606 35.0041C150.72 36.1476 150.277 37.4992 150.277 39.0588C150.277 40.6462 150.72 42.0028 151.606 43.132C152.491 44.2575 153.836 44.8223 155.638 44.8223C157.442 44.8223 158.786 44.2576 159.672 43.132C160.558 42.0028 161 40.6462 161 39.0588C161 37.4992 160.558 36.1476 159.672 35.0041ZM157.477 41.5672C157.047 42.1555 156.433 42.4495 155.629 42.4495C154.827 42.4495 154.21 42.1555 153.776 41.5672C153.343 40.9797 153.127 40.143 153.127 39.0588C153.127 37.9762 153.343 37.1417 153.776 36.5567C154.21 35.9721 154.827 35.6793 155.629 35.6793C156.433 35.6793 157.047 35.9719 157.477 36.5567C157.906 37.1416 158.122 37.9762 158.122 39.0588C158.122 40.1428 157.906 40.9795 157.477 41.5672Z" fill="#141685"/>
<path d="M137.039 34.0471C136.142 33.5776 135.113 33.3406 133.957 33.3406C132.179 33.3406 130.924 33.8192 130.194 34.774C129.734 35.3857 129.476 36.1653 129.416 37.1145H132.073C132.138 36.6955 132.269 36.3638 132.465 36.1185C132.739 35.7869 133.204 35.621 133.863 35.621C134.452 35.621 134.896 35.7042 135.201 35.8754C135.503 36.0443 135.656 36.3517 135.656 36.7955C135.656 37.1614 135.458 37.429 135.062 37.6026C134.841 37.7022 134.475 37.7853 133.961 37.8514L133.02 37.971C131.95 38.1098 131.138 38.3431 130.588 38.6689C129.582 39.2663 129.08 40.2312 129.08 41.5659C129.08 42.5938 129.391 43.3896 130.017 43.9504C130.64 44.5114 131.435 44.7465 132.392 44.7924C138.4 45.0689 138.332 41.5281 138.387 40.7917V36.7161C138.387 35.4092 137.937 34.5188 137.039 34.0471ZM135.644 40.2312C135.626 41.1804 135.362 41.8343 134.855 42.1926C134.349 42.5515 133.795 42.7312 133.195 42.7312C132.815 42.7312 132.493 42.6223 132.228 42.407C131.963 42.1914 131.832 41.8409 131.832 41.3561C131.832 40.8124 132.048 40.4113 132.481 40.1518C132.739 39.9999 133.159 39.8689 133.747 39.765L134.374 39.645C134.686 39.5837 134.932 39.5187 135.111 39.4486C135.293 39.3806 135.468 39.2905 135.644 39.1764L135.644 40.2312Z" fill="#141685"/>
<path d="M123.341 35.7686C124.028 35.7686 124.532 35.9871 124.859 36.4242C125.082 36.7476 125.222 37.1124 125.276 37.5168H128.239C128.076 35.9754 127.553 34.8991 126.67 34.2894C125.784 33.6825 124.65 33.3765 123.262 33.3765C121.63 33.3765 120.348 33.8934 119.422 34.9252C118.494 35.9583 118.03 37.4022 118.03 39.2583C118.03 40.9018 118.449 42.2415 119.289 43.2739C120.129 44.3058 121.439 44.8224 123.219 44.8224C125.001 44.8224 126.347 44.2036 127.253 42.9658C127.822 42.1987 128.141 41.3844 128.208 40.5236H125.255C125.194 41.0927 125.022 41.5567 124.736 41.9142C124.451 42.2701 123.971 42.4498 123.292 42.4498C122.335 42.4498 121.685 42.0003 121.338 41.0988C121.149 40.6179 121.053 39.9813 121.053 39.1891C121.053 38.3581 121.149 37.6919 121.338 37.1882C121.698 36.2426 122.367 35.7686 123.341 35.7686Z" fill="#141685"/>
<path d="M117.236 33.3765C111.149 33.3765 111.509 38.9336 111.509 38.9336V44.5785H114.271V39.2837C114.271 38.4163 114.378 37.774 114.588 37.3561C114.967 36.6159 115.707 36.2443 116.812 36.2443C116.895 36.2443 117.005 36.249 117.14 36.2553C117.274 36.2621 117.427 36.2745 117.603 36.2956V33.3977C117.48 33.3892 117.401 33.3856 117.366 33.3822C117.331 33.3789 117.287 33.3765 117.236 33.3765Z" fill="#141685"/>
<path d="M107.089 41.6292C106.973 41.7996 106.849 41.9458 106.711 42.0597C106.321 42.3912 105.791 42.492 105.167 42.492C104.576 42.492 104.115 42.3996 103.697 42.1279C103.007 41.6912 102.62 40.9521 102.578 39.8668H110.221C110.232 38.933 110.202 38.2177 110.129 37.7198C110.002 36.8723 109.723 36.1254 109.294 35.4826C108.817 34.7538 108.211 34.2202 107.48 33.8812C106.749 33.545 105.927 33.376 105.014 33.376C103.475 33.376 102.226 33.8759 101.262 34.8751C100.298 35.8767 99.8145 37.3125 99.8145 39.1866C99.8145 41.1873 100.349 42.6313 101.417 43.5185C102.484 44.4058 103.717 44.8502 105.113 44.8502C106.804 44.8502 108.12 44.3243 109.06 43.2715C109.567 42.7178 109.885 42.1697 110.018 41.6294L107.089 41.6292ZM103.376 36.3258C103.765 35.9143 104.31 35.708 105.014 35.708C105.662 35.708 106.204 35.9017 106.642 36.2913C107.078 36.6795 107.322 37.2503 107.372 37.9998H102.646C102.744 37.2957 102.989 36.7384 103.376 36.3258Z" fill="#141685"/>
<path d="M98.7056 44.5774H96.1825V38.0263C96.1825 37.4276 95.991 36.0039 94.3267 36.0039C93.2171 36.0039 92.4141 36.8292 92.4141 38.0263V44.5774H89.8889V38.0263C89.8889 37.4276 89.7166 36.0039 88.0533 36.0039C86.9243 36.0039 86.1397 36.8292 86.1397 38.0263V44.5774H83.6153V38.0884C83.6153 35.3837 85.3553 33.3384 88.0533 33.3384C89.3925 33.3384 90.4818 33.9182 91.1904 34.8474C91.9355 33.9182 93.0446 33.3384 94.3267 33.3384C97.0811 33.3384 98.7057 35.3007 98.7057 38.0884V44.5774H98.7056Z" fill="#141685"/>
<path d="M149.455 29.9552C149.455 29.9552 146.673 29.6488 146.673 31.9534L146.671 35.0043C146.363 34.4948 145.962 34.0957 145.468 33.8088C144.975 33.5211 144.41 33.3764 143.773 33.3764C142.393 33.3764 141.293 33.9063 140.468 34.9646C139.642 36.0242 139.232 37.5504 139.232 39.3964C139.232 40.9979 139.65 42.3112 140.488 43.3336C141.325 44.3548 142.967 44.8032 144.425 44.8032C149.512 44.8032 149.453 40.3057 149.453 40.3057L149.455 29.9552ZM146.142 41.5907C145.739 42.1867 145.146 42.4843 144.371 42.4843C143.593 42.4843 143.015 42.1839 142.634 41.5857C142.252 40.986 142.062 40.1134 142.062 39.1147C142.062 38.1879 142.248 37.412 142.624 36.7868C142.998 36.1622 143.587 35.8483 144.39 35.8483C144.916 35.8483 145.378 36.0205 145.777 36.3642C146.424 36.9337 146.749 37.9552 146.749 39.2776C146.749 40.2239 146.546 40.9948 146.142 41.5907Z" fill="#141685"/>
<path d="M103.785 62.655C103.785 63.0401 103.649 63.3712 103.377 63.6462C103.108 63.922 102.782 64.0598 102.403 64.0598H101.024V54.1625C101.024 52.2378 101.653 51.0323 102.688 50.2177C103.372 49.6792 104.392 49.1653 106.301 49.1653C107.591 49.1653 109.102 49.6814 109.917 50.7071C110.833 51.8605 111.214 53.1456 111.214 54.8247C111.214 56.561 110.808 57.9619 109.997 59.0389C109.185 60.0865 108.142 60.6083 106.87 60.6083C106.193 60.6083 105.598 60.484 105.084 60.2379C104.541 59.9617 104.11 59.5355 103.785 58.9564V62.655H103.785ZM108.414 54.9481C108.414 53.8741 108.211 53.0488 107.804 52.4693C107.398 51.8931 106.816 51.6012 106.058 51.6012C105.328 51.6012 104.759 51.893 104.351 52.4693C103.973 52.9932 103.785 53.8216 103.785 54.9481C103.785 55.9981 103.987 56.7795 104.394 57.3036C104.799 57.8829 105.382 58.1715 106.139 58.1715C106.842 58.1715 107.398 57.8829 107.803 57.3036C108.211 56.7252 108.414 55.9425 108.414 54.9481Z" fill="#05B0D9"/>
<path d="M129.516 59.6956V58.9961C129.038 59.7681 128.392 60.2465 127.582 60.4407C126.77 60.6316 125.966 60.5636 125.17 60.2326C124.372 59.9037 123.686 59.2909 123.114 58.3977C122.544 57.5004 122.258 56.324 122.258 54.8653C122.258 53.161 122.637 51.7766 123.394 50.7175C124.152 49.6587 125.37 49.1753 127.044 49.128C128.694 49.0832 129.654 49.4684 130.593 50.2019C131.621 51.0057 132.228 52.2394 132.228 54.1641V59.9869C132.232 61.8396 130.979 65.2736 127.044 64.9823C124.606 64.8 123.253 63.7688 122.498 61.4319H125.409C125.622 61.816 125.947 62.112 126.388 62.3167C126.824 62.5259 127.265 62.5793 127.701 62.4828C128.139 62.3866 128.538 62.1174 128.9 61.6789C129.256 61.2384 129.462 60.5773 129.516 59.6956ZM124.969 54.9497C124.969 56.8481 125.502 57.9 126.565 58.1084C127.627 58.3112 128.413 58.0569 128.918 57.3426C129.158 57.0419 129.329 56.5655 129.436 55.9201C129.542 55.274 129.55 54.6336 129.456 54.0011C129.365 53.3666 129.144 52.8025 128.798 52.3071C128.453 51.8127 127.948 51.564 127.283 51.564C126.378 51.564 125.768 51.9096 125.449 52.5947C125.127 53.2841 124.969 54.0681 124.969 54.9497Z" fill="#05B0D9"/>
<path d="M119.896 49.9137C118.997 49.4454 117.969 49.208 116.813 49.208C115.034 49.208 113.781 49.6863 113.05 50.6409C112.591 51.2519 112.332 52.0317 112.273 52.9817H114.931C114.996 52.5624 115.125 52.2307 115.322 51.9859C115.596 51.6541 116.062 51.4879 116.719 51.4879C117.309 51.4879 117.753 51.5716 118.057 51.7422C118.359 51.9115 118.512 52.2183 118.512 52.6633C118.512 53.0283 118.315 53.2971 117.918 53.4701C117.698 53.5693 117.332 53.6523 116.818 53.7188L115.876 53.8374C114.807 53.977 113.994 54.2108 113.445 54.5356C112.438 55.1329 111.937 56.0981 111.937 57.4319C111.937 58.46 112.247 59.256 112.874 59.8163C113.497 60.3769 114.291 60.6132 115.249 60.6588C121.255 60.9357 121.187 57.3943 121.242 56.6581V52.5823C121.242 51.2749 120.794 50.3863 119.896 49.9137ZM118.5 56.0978C118.482 57.048 118.218 57.7003 117.712 58.0594C117.206 58.4174 116.652 58.5967 116.052 58.5967C115.671 58.5967 115.35 58.4882 115.085 58.2733C114.82 58.058 114.687 57.7067 114.687 57.2219C114.687 56.6788 114.904 56.277 115.338 56.0175C115.596 55.8654 116.015 55.7349 116.603 55.6314L117.23 55.5111C117.543 55.45 117.789 55.3854 117.966 55.315C118.149 55.247 118.324 55.1565 118.5 55.0424L118.5 56.0978Z" fill="#05B0D9"/>
<path d="M142.676 50.8116C141.79 49.6663 140.445 49.0955 138.641 49.0955C136.841 49.0955 135.496 49.6663 134.61 50.8116C133.724 51.9548 133.281 53.3057 133.281 54.8663C133.281 56.4532 133.724 57.8094 134.61 58.9385C135.496 60.0633 136.841 60.6279 138.641 60.6279C140.445 60.6279 141.79 60.0633 142.676 58.9385C143.561 57.8094 144.003 56.4534 144.003 54.8663C144.003 53.3059 143.561 51.9548 142.676 50.8116ZM140.481 57.3729C140.052 57.9617 139.436 58.2555 138.634 58.2555C137.831 58.2555 137.213 57.9617 136.781 57.3729C136.346 56.7862 136.131 55.9497 136.131 54.8663C136.131 53.7834 136.346 52.9488 136.781 52.3646C137.213 51.7788 137.831 51.4876 138.634 51.4876C139.436 51.4876 140.052 51.7788 140.481 52.3646C140.911 52.9486 141.126 53.7832 141.126 54.8663C141.126 55.9497 140.911 56.7862 140.481 57.3729Z" fill="#05B0D9"/>
</g>
<defs>
<clipPath id="clip0_246_2736">
<rect width="134" height="36" fill="white" transform="translate(27 29)"/>
</clipPath>
</defs>
</svg>
