<svg width="188" height="94" viewBox="0 0 188 94" fill="none" xmlns="http://www.w3.org/2000/svg">
<rect width="188" height="94" rx="24" fill="white"/>
<path fill-rule="evenodd" clip-rule="evenodd" d="M121.701 42.5805C121.565 43.3213 121.349 44.1766 121.06 45.1192C120.769 46.0619 120.397 47.0564 119.958 48.0645C119.48 49.0808 118.985 50.0317 118.488 50.8884C117.997 51.7369 117.506 52.4667 117.036 53.0574C116.576 53.6331 116.149 54.0587 115.77 54.3234C115.483 54.5225 115.324 54.5444 115.269 54.5444C115.243 54.5444 115.223 54.5403 115.201 54.5305C115.153 54.5088 114.993 54.4022 114.924 53.8961C114.858 53.4323 114.894 52.8225 115.026 52.0845C115.163 51.3246 115.377 50.4611 115.667 49.5239C115.954 48.5867 116.326 47.5922 116.772 46.5705C117.214 45.5569 117.697 44.6115 118.21 43.7589C118.72 42.9076 119.217 42.186 119.688 41.613C120.145 41.0537 120.572 40.6349 120.956 40.3662C121.244 40.167 121.402 40.1452 121.457 40.1452C121.484 40.1452 121.505 40.1493 121.524 40.1591C121.572 40.1797 121.731 40.2873 121.802 40.7934C121.866 41.2573 121.832 41.8575 121.701 42.5805ZM102.551 42.5805C102.414 43.3213 102.199 44.1766 101.909 45.1192C101.618 46.0673 101.245 47.0605 100.807 48.0645C100.328 49.0836 99.8332 50.0344 99.338 50.8884C98.8456 51.7382 98.3558 52.4681 97.8852 53.0574C97.4254 53.6331 96.9998 54.0587 96.6178 54.3234C96.3314 54.5225 96.1731 54.5444 96.1185 54.5444C96.0928 54.5444 96.0721 54.5403 96.0503 54.5309C96.0023 54.5093 95.843 54.4027 95.7734 53.8966C95.7079 53.4342 95.742 52.8257 95.8757 52.085C96.0107 51.3265 96.2263 50.4657 96.5169 49.5244C96.8033 48.5858 97.1758 47.5927 97.6218 46.5709C98.0652 45.5546 98.5495 44.6093 99.0583 43.7594C99.5712 42.9068 100.068 42.1851 100.537 41.6135C100.995 41.0542 101.424 40.634 101.806 40.3666C102.092 40.1675 102.252 40.1457 102.306 40.1457C102.334 40.1457 102.354 40.1497 102.373 40.1591C102.421 40.1797 102.582 40.2873 102.652 40.7934C102.716 41.2573 102.681 41.8575 102.551 42.5805ZM81.8015 42.3895C81.7169 43.1426 81.5532 44.002 81.3144 44.946C81.0743 45.8873 80.7469 46.8777 80.339 47.8926C79.9325 48.9021 79.5001 49.8516 79.0513 50.7138C78.612 51.5568 78.1686 52.2757 77.7307 52.8514C77.3051 53.4108 76.9054 53.8282 76.5412 54.0915C76.2724 54.2866 76.1223 54.3084 76.0719 54.3084C76.0487 54.3084 76.028 54.3043 76.0064 54.2945C75.9574 54.2728 75.7881 54.1621 75.7008 53.6479C75.619 53.1772 75.6121 52.5702 75.6776 51.8417C75.7458 51.1023 75.9 50.2524 76.1373 49.3166C76.3747 48.3794 76.7034 47.3876 77.1127 46.37C77.5246 45.3468 77.9585 44.3987 78.4018 43.5475C78.8384 42.7058 79.2831 41.9787 79.7237 41.3852C80.1466 40.8123 80.5477 40.3894 80.9106 40.1261C81.1793 39.931 81.3294 39.9092 81.3812 39.9092C81.4044 39.9092 81.425 39.9133 81.4439 39.9231C81.4958 39.9447 81.6717 40.0595 81.7795 40.5806C81.875 41.0445 81.883 41.6515 81.8015 42.3895ZM123.758 36.1334C124.761 36.1334 125.623 36.4403 126.322 37.0474C126.995 37.6326 127.477 38.4689 127.751 39.5316C128.017 40.5615 128.072 41.807 127.915 43.2353C127.758 44.6459 127.346 46.2556 126.687 48.0195C126.066 49.6865 125.354 51.153 124.574 52.3767C124.196 52.9715 123.807 53.5281 123.413 54.0424C123.363 54.1078 123.438 54.1938 123.51 54.1543C123.739 54.0301 123.967 53.8951 124.192 53.7477C124.705 53.4162 125.197 53.0588 125.665 52.6809C126.971 51.6237 127.919 50.194 128.38 48.587C128.656 47.6198 128.961 46.6608 129.294 45.7154C129.84 44.1589 130.422 42.706 131.027 41.3964C131.627 40.0909 132.126 39.1141 132.511 38.4907C132.947 37.7813 133.559 37.3393 134.332 37.1756C135.055 37.0229 135.747 37.0337 136.382 37.2055C137.033 37.3829 137.565 37.7048 137.962 38.1659C138.395 38.6693 138.489 39.2422 138.232 39.8234C138.156 40.0239 137.955 40.4823 137.636 41.1876C137.315 41.8969 136.955 42.725 136.537 43.7236C136.134 44.6826 135.721 45.7207 135.309 46.8066C134.906 47.8734 134.591 48.8693 134.373 49.7669C134.16 50.64 134.077 51.3657 134.125 51.9237C134.171 52.4571 134.374 52.4571 134.485 52.4571C134.64 52.4571 134.916 52.3834 135.344 52.0342C135.756 51.6931 136.191 51.2825 136.64 50.8078C137.089 50.3317 137.52 49.8187 137.918 49.284C138.283 48.797 138.595 48.3659 138.849 48.0017C139.07 47.6838 139.422 47.5024 139.813 47.5024C140.227 47.5024 140.628 47.7097 140.836 48.0303C141.04 48.344 141.034 48.7178 140.819 49.0534C140.549 49.475 140.077 50.1816 139.375 51.217C138.681 52.2402 137.85 53.2947 136.906 54.3533C135.946 55.4269 134.897 56.3804 133.785 57.1867C132.616 58.0366 131.435 58.4663 130.276 58.4663C129.229 58.4663 128.447 58.1034 127.952 57.3858C127.502 56.7311 127.272 55.8525 127.272 54.7748V54.6029C127.275 54.4747 127.125 54.4024 127.026 54.4829C126.806 54.6589 126.579 54.8335 126.349 55.0054C124.987 56.019 123.416 56.8784 121.675 57.5618C120.121 58.173 118.409 58.4827 116.587 58.4827L116.216 58.4786L115.843 58.4662C114.602 58.4634 113.681 58.0746 113.104 57.3066C113.002 57.1716 112.907 57.0324 112.824 56.8892C112.757 56.7746 112.584 56.7937 112.546 56.9217C112.359 57.5451 112.182 58.1467 112.018 58.7224C111.663 59.9597 111.36 61.0306 111.094 61.9964C110.827 62.965 110.595 63.8476 110.404 64.6238C110.22 65.3714 110.092 65.9771 110.026 66.4259L110.022 66.4425C109.854 67.2924 109.28 67.5912 108.826 67.6935C108.624 67.7384 108.414 67.7617 108.201 67.7617C107.816 67.7617 107.41 67.6867 106.994 67.5407C106.361 67.317 105.792 66.931 105.301 66.3921C104.792 65.8328 104.534 65.133 104.534 64.3117C104.534 64.1453 104.576 63.7811 104.902 62.4401C105.147 61.451 105.475 60.2205 105.883 58.7813C106.159 57.8059 106.473 56.7446 106.82 55.6096C106.861 55.4732 106.706 55.36 106.589 55.4404C105.376 56.2658 104.016 56.9792 102.531 57.5617C100.976 58.1729 99.2656 58.4826 97.4431 58.4826C97.1975 58.4826 96.9465 58.4769 96.6982 58.4661C95.4582 58.4633 94.5374 58.0745 93.959 57.3065C93.8567 57.1715 93.7639 57.0337 93.6807 56.8891C93.6125 56.7745 93.4406 56.7949 93.4024 56.9215C93.2141 57.5463 93.0368 58.1493 92.8731 58.7223C92.517 59.9637 92.2142 61.0359 91.9509 61.9963C91.6835 62.9649 91.4503 63.8475 91.2593 64.6237C91.0751 65.3726 90.9482 65.9783 90.8814 66.4258L90.8787 66.4424C90.7109 67.2923 90.1352 67.5911 89.6809 67.6934C89.479 67.7382 89.2703 67.7616 89.0575 67.7616C88.6728 67.7616 88.2663 67.6865 87.8488 67.5406C87.2158 67.3169 86.6483 66.9308 86.1572 66.3919C85.6484 65.8326 85.3906 65.1328 85.3906 64.3116C85.3906 64.1438 85.4313 63.7795 85.7589 62.4399C86.0045 61.4413 86.3332 60.2108 86.7384 58.7812C86.9785 57.9313 87.2445 57.0255 87.5433 56.0474C87.5871 55.9 87.4068 55.7882 87.2923 55.8932C86.7834 56.357 86.2596 56.7895 85.7221 57.1851C84.5694 58.035 83.3962 58.466 82.2366 58.466C81.1889 58.466 80.4059 58.1032 79.912 57.3856C79.7129 57.0962 79.5574 56.762 79.4442 56.3869C79.3447 56.0526 78.9163 55.9503 78.6735 56.2027C78.3324 56.5574 77.9573 56.8807 77.5548 57.1658C77.031 57.5369 76.4457 57.8479 75.8128 58.0907C75.1607 58.339 74.4554 58.4659 73.716 58.4659C72.7161 58.4659 71.8389 58.1616 71.1104 57.56C70.4011 56.9789 69.8758 56.1549 69.5471 55.1086C69.2279 54.095 69.1105 52.8495 69.1979 51.4049C69.2852 49.9779 69.6098 48.3764 70.1637 46.6425C71.3437 43.0465 72.8825 40.3768 74.7392 38.703C76.6299 36.9977 78.548 36.1328 80.4401 36.1328C81.2409 36.1328 81.9189 36.2938 82.4523 36.6103C82.9775 36.924 83.3826 37.3388 83.6568 37.8435C83.8396 38.1832 83.9733 38.5474 84.0552 38.9349C84.0699 39.0031 84.1629 39.0167 84.1971 38.9555C84.2926 38.7836 84.384 38.6295 84.4699 38.4889C84.9065 37.7823 85.5094 37.3403 86.2638 37.1752C86.9691 37.0224 87.6594 37.032 88.3128 37.2041C88.9826 37.3815 89.5242 37.7047 89.9225 38.1658C90.355 38.6692 90.4491 39.2422 90.1913 39.8233C90.1162 40.0211 89.9225 40.4686 89.5965 41.1875C89.2786 41.8914 88.9076 42.744 88.4969 43.7235C88.0904 44.6934 87.6771 45.7316 87.2692 46.8065C86.8654 47.8733 86.5503 48.8706 86.3334 49.7668C86.1206 50.6413 86.0373 51.367 86.0851 51.9236C86.1315 52.457 86.3348 52.457 86.4439 52.457C86.6009 52.457 86.8764 52.3833 87.3034 52.0341C87.5394 51.839 87.7849 51.6194 88.0359 51.3779C89.0086 50.4407 89.6607 49.4176 90.0958 48.1448C90.6742 46.456 91.2827 44.7889 91.9075 43.1819C92.5746 41.4726 93.2253 39.9379 93.8419 38.6201C94.1638 37.938 94.674 37.4783 95.3534 37.2573C95.9905 37.0499 96.6439 37.0063 97.2864 37.1277C97.9276 37.2505 98.4896 37.5056 98.9562 37.8876C99.1635 38.0567 99.3286 38.2395 99.4514 38.4319C99.4839 38.4837 99.5223 38.4892 99.5673 38.4468C100.118 37.938 100.727 37.4715 101.383 37.0554C102.343 36.4429 103.431 36.1332 104.615 36.1332C105.616 36.1332 106.48 36.4401 107.177 37.0472C107.852 37.6338 108.334 38.4687 108.608 39.5314C108.874 40.56 108.928 41.8068 108.771 43.2351C108.615 44.6443 108.201 46.2554 107.544 48.0193C106.922 49.6877 106.21 51.1542 105.429 52.3765C105.051 52.9713 104.663 53.5279 104.268 54.0422C104.218 54.1077 104.294 54.1936 104.367 54.1541C104.594 54.0299 104.822 53.8949 105.049 53.7475C105.416 53.5101 105.772 53.2591 106.115 52.9972C107.422 52.0041 108.398 50.6454 108.917 49.0984L109.122 48.494C109.736 46.6797 110.385 44.8926 111.051 43.1819C111.719 41.4699 112.37 39.9352 112.987 38.6201C113.307 37.938 113.816 37.4796 114.498 37.2573C115.135 37.0499 115.789 37.0063 116.431 37.1277C117.072 37.2505 117.633 37.5056 118.1 37.8862C118.307 38.0567 118.472 38.2395 118.595 38.4319C118.628 38.4837 118.666 38.4892 118.711 38.4468C119.262 37.938 119.87 37.4714 120.527 37.0554C121.488 36.4428 122.576 36.1334 123.758 36.1334ZM61.0141 27.6359C62.452 27.6359 63.8926 27.8023 65.2977 28.1284C66.7123 28.4585 67.996 28.9605 69.1106 29.6208C70.2387 30.2892 71.165 31.1282 71.8635 32.1145C72.5756 33.1185 72.9357 34.2958 72.9357 35.6136C72.9357 37.0324 72.6192 38.3638 71.9944 39.5697C71.3751 40.7634 70.5225 41.8534 69.4625 42.8097C68.4121 43.7591 67.1666 44.5967 65.7601 45.2979C64.6006 45.8764 63.3687 46.3702 62.0891 46.7672C62.0072 46.7929 61.9786 46.8354 61.9827 46.9172C62.01 47.5447 62.055 48.1654 62.1191 48.7629C62.1914 49.4491 62.2869 50.1176 62.4043 50.7519C62.5188 51.3753 62.658 51.9824 62.8149 52.5567C62.9376 53.0014 63.0741 53.4339 63.22 53.8445C63.3128 54.1064 63.411 54.3629 63.5106 54.603C63.7111 55.0873 63.9322 55.5511 64.1668 55.9808C64.3973 56.4037 64.647 56.8048 64.9089 57.1731C65.164 57.5319 65.4382 57.8688 65.7233 58.1771C66.0016 58.4773 66.2963 58.7528 66.5991 58.9984C66.8938 59.2371 67.2048 59.454 67.5227 59.6396C67.8323 59.8223 68.157 59.9806 68.4885 60.1116C68.8146 60.2398 69.1515 60.3435 69.4912 60.4185C69.8323 60.4935 70.1828 60.5413 70.5375 60.5645C70.8909 60.5861 71.2592 60.582 71.6261 60.5495C71.9999 60.517 72.3819 60.4568 72.7611 60.3681C73.1499 60.2781 73.5455 60.1594 73.9398 60.0134C74.3436 59.8634 74.7515 59.6805 75.1539 59.4745C75.3081 59.3954 75.4636 59.3108 75.6177 59.2235C76.1198 58.9371 76.7609 59.0735 77.0979 59.5373C77.4362 60.0011 77.3612 60.6423 76.9246 61.0188C76.7105 61.203 76.4949 61.383 76.2821 61.5549C75.7651 61.9723 75.2467 62.3598 74.7406 62.7049C74.2604 63.0323 73.772 63.3379 73.2891 63.6094C73.0476 63.7458 72.7939 63.8795 72.5361 64.0077C72.0409 64.256 71.5402 64.4743 71.045 64.6571C70.5526 64.8385 70.0573 64.9899 69.5744 65.1045C69.0929 65.2191 68.6072 65.3023 68.1339 65.3501C67.7955 65.3841 67.4572 65.4019 67.1271 65.4019C66.9934 65.4019 66.8597 65.3991 66.726 65.3924C66.2676 65.3731 65.812 65.3202 65.37 65.2342C65.1518 65.1919 64.9307 65.14 64.7152 65.08C64.5065 65.0241 64.2923 64.9572 64.0781 64.8795C63.6675 64.7323 63.2596 64.5509 62.8695 64.3394C62.4875 64.1321 62.111 63.8934 61.7536 63.6287C61.4644 63.4145 61.1806 63.1785 60.9119 62.9289C60.5885 62.6288 60.2734 62.2945 59.9747 61.9399C59.68 61.5893 59.3976 61.21 59.1357 60.813C58.8724 60.4174 58.6241 59.9945 58.3949 59.558C58.1671 59.1214 57.9502 58.6576 57.7538 58.1802C57.5587 57.7068 57.3772 57.2048 57.2122 56.685C57.0498 56.1748 56.9012 55.6346 56.7702 55.078C56.6406 54.5228 56.5273 53.9471 56.4332 53.366C56.3487 52.8517 56.2777 52.3183 56.2218 51.7767C56.2053 51.613 55.9694 51.5912 55.9217 51.7509C55.717 52.4576 55.5315 53.1424 55.3678 53.7972C55.1618 54.6184 54.9722 55.366 54.8003 56.0372C54.6325 56.6947 54.5138 57.224 54.4456 57.6101C54.3092 58.2949 53.8549 58.7273 53.1265 58.8678C52.5003 58.9906 51.8278 58.9388 51.1347 58.7178C50.4499 58.4982 49.8279 58.1176 49.2836 57.5842C48.7133 57.0249 48.4241 56.3223 48.4241 55.4943C48.4241 54.8204 48.596 53.7549 48.948 52.2393C49.2917 50.7592 49.7869 49.0048 50.4226 47.0227C51.0529 45.0569 51.8182 42.8892 52.6954 40.5838C53.4484 38.603 54.2942 36.6085 55.2109 34.6414C55.5111 33.9975 56.1317 33.5541 56.8479 33.4723C58.4672 33.2868 59.8723 33.3331 61.0633 33.6087C61.7808 33.7751 62.1655 34.5432 61.8654 35.2048C61.0974 36.8937 60.3894 38.5784 59.7564 40.2182C59.2448 41.5455 58.7537 42.8592 58.2899 44.1375C58.245 44.2643 58.3758 44.3817 58.4986 44.3257C59.1166 44.046 59.7264 43.7159 60.3225 43.3394C61.2993 42.7214 62.1887 41.9834 62.9677 41.1472C63.7425 40.3109 64.3782 39.3683 64.857 38.3438C65.3291 37.3288 65.5691 36.2266 65.5691 35.0643C65.5691 33.5705 65.149 32.4669 64.3209 31.7862C63.4819 31.0972 62.3006 30.7466 60.8082 30.7466C59.2189 30.7466 57.766 31.1177 56.4905 31.8503C55.1809 32.6006 54.0486 33.5228 53.1251 34.5923C52.1947 35.67 51.4608 36.8213 50.9465 38.015C50.4363 39.1977 50.1771 40.2345 50.1771 41.098C50.1771 41.716 49.8456 42.1621 49.244 42.3545C48.7161 42.5236 48.1335 42.4991 47.536 42.2794C46.9617 42.0693 46.4297 41.6533 45.9536 41.0449C45.4747 40.4337 45.2319 39.6056 45.2319 38.5839C45.2319 37.6917 45.5757 36.6413 46.2824 35.3726C46.9699 34.1353 47.9876 32.9307 49.304 31.7916C50.6191 30.6553 52.2779 29.669 54.2396 28.8614C56.2122 28.0483 58.4918 27.6359 61.0141 27.6359ZM139.273 26.6919C141.474 26.6919 143.257 28.4517 143.257 30.6207C143.257 32.7898 141.474 34.5496 139.273 34.5496C137.073 34.5496 135.29 32.7898 135.29 30.6207C135.29 28.4517 137.073 26.6919 139.273 26.6919Z" fill="#FF441F"/>
</svg>
