<svg width="188" height="94" viewBox="0 0 188 94" fill="none" xmlns="http://www.w3.org/2000/svg">
<rect width="188" height="94" rx="24" fill="white"/>
<g clip-path="url(#clip0_246_2728)">
<path fill-rule="evenodd" clip-rule="evenodd" d="M103.974 24C105.313 23.9995 106.392 25.1337 106.393 26.4955L106.4 61.5029C106.4 62.8647 105.321 63.9995 103.982 64C102.687 64 101.607 62.8658 101.607 61.504L101.6 26.4966C101.6 25.1348 102.679 24 103.974 24Z" fill="#3E6BFD"/>
<path fill-rule="evenodd" clip-rule="evenodd" d="M61.5346 64.0001C56.3113 64.0011 52.0034 59.7914 52.0023 54.6842L52.0002 43.9778C51.9996 42.7238 53.0989 41.6032 54.4279 41.6032C55.8027 41.6027 56.8567 42.7228 56.8572 43.9773L56.8593 54.6832C56.8599 57.2365 58.9224 59.252 61.5335 59.2515C64.191 59.2509 66.2983 57.235 66.3436 54.6816L66.3415 43.9752C66.3415 42.7207 67.3491 41.6006 68.7234 41.6001C70.0065 41.6001 71.1975 42.7201 71.198 43.9741L71.2002 54.6806C71.2012 59.7873 66.8037 63.9991 61.5346 64.0001Z" fill="#3E6BFD"/>
<path fill-rule="evenodd" clip-rule="evenodd" d="M127.189 52.8441C127.188 50.9631 126.507 49.3505 125.418 48.2304C124.329 47.0212 122.786 46.3942 121.198 46.3947C119.565 46.3952 118.022 47.0228 116.978 48.232C115.89 49.3526 115.255 50.9657 115.256 52.8467C115.256 54.6835 115.891 56.2961 116.98 57.4605C118.024 58.5806 119.567 59.2071 121.201 59.2071C122.788 59.2065 124.331 58.579 125.42 57.4589C126.509 56.294 127.189 54.6809 127.189 52.8441ZM131.998 52.8431L132 61.6239C132 62.9228 130.911 63.998 129.595 63.9985C128.416 63.9985 127.508 63.1479 127.236 62.0727C125.512 63.2824 123.47 63.9996 121.202 64.0001C118.116 64.0006 115.439 62.7471 113.487 60.7316C111.536 58.6713 110.401 55.8943 110.4 52.8478C110.399 49.757 111.533 46.979 113.484 44.9629C115.435 42.9021 118.112 41.6022 121.197 41.6017C123.465 41.6011 125.507 42.3626 127.232 43.5713C127.504 42.4518 128.411 41.6001 129.591 41.6001C130.907 41.5996 131.996 42.6743 131.996 44.0185L131.998 52.8431Z" fill="#3E6BFD"/>
<path fill-rule="evenodd" clip-rule="evenodd" d="M91.9886 52.8441C91.9881 50.9631 91.3071 49.3505 90.218 48.2304C89.1289 47.0212 87.5859 46.3942 85.9979 46.3947C84.3645 46.3952 82.822 47.0228 81.7783 48.232C80.6898 49.3526 80.0552 50.9657 80.0557 52.8467C80.0557 54.6835 80.6913 56.2961 81.7804 57.4605C82.8241 58.5806 84.3672 59.2071 86.0005 59.2071C87.5885 59.2065 89.1311 58.579 90.2201 57.4589C91.3087 56.294 91.9886 54.6809 91.9886 52.8441ZM96.7979 52.8431L96.8 61.6239C96.8 62.9228 95.7115 63.998 94.3954 63.9985C93.216 63.9985 92.308 63.1479 92.0361 62.0727C90.312 63.2824 88.27 63.9996 86.0016 64.0001C82.916 64.0006 80.2389 62.7471 78.2872 60.7316C76.3361 58.6713 75.2011 55.8943 75.2 52.8478C75.1995 49.757 76.3334 46.979 78.2841 44.9629C80.2347 42.9021 82.9117 41.6022 85.9968 41.6017C88.2653 41.6011 90.3072 42.3626 92.0324 43.5713C92.3038 42.4518 93.2113 41.6001 94.3906 41.6001C95.7067 41.5996 96.7958 42.6743 96.7963 44.0185L96.7979 52.8431Z" fill="#3E6BFD"/>
<path fill-rule="evenodd" clip-rule="evenodd" d="M129.054 28.8838L129.04 28.8702C127.735 27.5146 125.29 26.7627 123.318 28.0441C121.805 29.1092 120.749 30.5189 120.243 31.1969C120.183 31.2762 120.13 31.347 120.083 31.4081L120.059 31.4389C119.931 31.6102 119.803 31.7856 119.674 31.9629C118.495 33.5722 117.159 35.3967 115.529 35.5776C115.409 35.5907 115.291 35.5952 115.182 35.5892C114.925 35.5765 114.683 35.714 114.573 35.9398C114.466 36.1586 114.506 36.4062 114.684 36.5926C115.519 37.4612 116.82 38.0821 118.166 38.0821C118.925 38.0821 119.699 37.8841 120.411 37.4213C121.923 36.3577 122.978 34.948 123.484 34.2709C123.545 34.1906 123.598 34.1194 123.647 34.0557L123.669 34.0274C123.797 33.8561 123.926 33.6803 124.055 33.5029C125.234 31.8937 126.569 30.0697 128.199 29.8883C128.321 29.8752 128.438 29.8706 128.547 29.8767C128.805 29.8908 129.046 29.7524 129.155 29.526C129.262 29.3072 129.223 29.0607 129.054 28.8838Z" fill="#FF6766"/>
</g>
<defs>
<clipPath id="clip0_246_2728">
<rect width="80" height="40" fill="white" transform="translate(52 24)"/>
</clipPath>
</defs>
</svg>
