<?xml version="1.0" standalone="no"?>
<!DOCTYPE svg PUBLIC "-//W3C//DTD SVG 20010904//EN"
 "http://www.w3.org/TR/2001/REC-SVG-20010904/DTD/svg10.dtd">
<svg version="1.0" xmlns="http://www.w3.org/2000/svg"
 width="260.000000pt" height="260.000000pt" viewBox="0 0 260.000000 260.000000"
 preserveAspectRatio="xMidYMid meet">
<metadata>
Created by potrace 1.14, written by Peter Selinger 2001-2017
</metadata>
<g transform="translate(0.000000,260.000000) scale(0.100000,-0.100000)"
fill="#000000" stroke="none">
<path d="M2435 2571 c-39 -16 -295 -317 -295 -346 0 -10 -11 -26 -25 -37 -14
-11 -25 -23 -25 -28 0 -5 -11 -26 -25 -46 -14 -20 -22 -41 -18 -47 3 -6 1 -7
-5 -3 -6 3 -16 -3 -22 -14 -9 -17 -8 -20 9 -17 10 2 27 9 37 17 16 14 16 13 7
-5 -6 -11 -18 -37 -27 -58 -9 -21 -21 -35 -26 -32 -6 3 -10 -2 -11 -12 0 -11
-3 -13 -6 -5 -3 7 0 19 7 27 13 15 4 59 -10 50 -14 -8 -69 -115 -60 -115 5 0
16 -7 25 -16 12 -13 19 -14 30 -4 8 7 15 18 15 24 0 6 13 20 29 31 30 19 51
53 51 81 0 8 7 28 15 44 14 27 14 29 -1 23 -12 -4 -15 -2 -12 8 2 8 16 15 29
17 18 2 37 22 69 70 77 114 283 362 302 362 4 0 10 -16 14 -35 5 -29 -2 -52
-44 -137 -28 -57 -77 -143 -110 -193 -121 -182 -478 -575 -523 -575 -11 0 -18
-4 -14 -9 3 -5 -6 -22 -20 -38 -17 -19 -24 -23 -25 -13 0 9 4 20 9 25 14 16
61 105 61 116 0 6 -4 7 -10 4 -5 -3 -10 -1 -10 5 0 6 -5 8 -10 5 -6 -3 -7 -17
-4 -30 3 -12 1 -26 -5 -29 -6 -4 -11 -2 -11 4 0 6 -5 8 -10 5 -6 -3 -7 -18 -4
-32 6 -21 4 -25 -9 -20 -9 3 -18 -1 -21 -9 -3 -9 -1 -12 4 -9 6 3 10 1 10 -5
0 -18 -32 -63 -77 -107 -47 -45 -53 -69 -25 -102 l17 -22 80 52 c106 69 383
342 481 474 153 207 200 268 234 309 36 43 117 228 127 292 5 30 1 39 -35 74
-41 41 -79 50 -127 31z m-205 -284 c0 -2 -10 -12 -21 -23 -22 -19 -22 -19 -10
4 10 18 31 31 31 19z m-77 -112 c-3 -9 -8 -14 -10 -11 -3 3 -2 9 2 15 9 16 15
13 8 -4z"/>
<path d="M1485 2549 c-22 -5 -56 -12 -75 -16 -98 -18 -366 -176 -495 -290
-254 -227 -312 -293 -499 -578 -40 -60 -92 -150 -117 -200 -24 -49 -49 -94
-56 -100 -31 -27 -142 -284 -167 -390 -9 -38 -23 -86 -31 -105 -22 -60 -48
-249 -41 -307 7 -59 57 -213 81 -250 22 -33 107 -73 155 -73 61 0 129 20 185
54 75 46 307 253 328 292 10 20 25 34 35 34 27 0 64 44 60 70 -3 19 -13 12
-78 -53 -115 -114 -323 -262 -357 -255 -13 2 -8 10 22 27 34 21 82 60 156 127
9 8 18 14 21 14 2 0 38 33 79 73 41 40 98 94 127 120 47 44 67 74 43 65 -5 -2
-62 -52 -125 -112 -64 -60 -128 -118 -144 -130 -16 -11 -37 -29 -47 -39 -27
-28 -161 -115 -228 -149 -70 -35 -145 -41 -194 -15 -28 15 -32 24 -43 84 -7
38 -10 91 -7 118 14 140 37 264 55 300 11 22 26 60 32 85 7 25 16 52 21 60 28
48 99 200 99 212 0 9 14 33 31 54 18 22 43 64 57 94 14 30 39 78 57 105 17 28
35 57 40 66 14 22 100 148 125 182 11 15 29 39 40 55 11 15 36 50 54 77 19 28
59 76 90 108 30 31 69 77 87 102 18 25 37 45 42 45 5 0 39 26 76 58 198 173
380 284 511 312 30 6 73 15 94 20 78 16 118 -43 124 -182 5 -109 -9 -152 -88
-284 -33 -55 -60 -105 -60 -111 0 -14 37 -17 65 -6 23 8 133 157 156 211 39
89 15 239 -51 332 -53 75 -152 111 -245 89z"/>
<path d="M1933 1875 c-6 -11 -15 -19 -20 -17 -4 2 -9 -2 -12 -9 -2 -7 1 -9 8
-5 13 9 15 -6 2 -19 -11 -11 -3 -65 9 -65 10 0 31 26 34 42 1 7 5 19 10 27 5
8 4 16 -2 20 -5 3 -11 15 -14 26 l-4 20 -11 -20z"/>
<path d="M1876 1775 c-3 -8 -1 -15 3 -15 5 0 11 7 15 15 3 8 1 15 -3 15 -5 0
-11 -7 -15 -15z"/>
<path d="M1855 1738 c-4 -9 -13 -14 -21 -11 -8 3 -14 0 -14 -7 0 -6 5 -8 10
-5 6 3 10 0 10 -7 0 -8 5 -7 16 4 9 9 14 22 11 30 -3 10 -6 9 -12 -4z"/>
<path d="M1866 1675 c-9 -13 -16 -30 -16 -36 0 -14 37 18 51 43 15 29 -16 22
-35 -7z"/>
<path d="M1593 1493 c-7 -3 -13 -10 -13 -16 0 -7 -11 -19 -24 -27 -51 -33
-136 -106 -136 -117 0 -17 15 -16 30 2 7 8 18 15 25 15 7 0 19 10 27 23 9 12
37 43 64 69 46 45 54 61 27 51z"/>
<path d="M2064 1338 c-190 -134 -308 -248 -493 -473 -70 -85 -121 -141 -121
-132 0 20 45 172 69 232 34 84 34 85 24 85 -5 0 -17 -18 -27 -40 -13 -28 -23
-37 -30 -30 -17 17 -36 11 -36 -12 0 -12 -5 -37 -12 -55 -10 -26 -10 -38 0
-53 10 -16 9 -18 -9 -15 -18 4 -20 0 -16 -21 2 -13 2 -22 -2 -19 -5 6 -37 -97
-47 -155 -6 -32 29 -90 55 -90 19 0 81 70 240 268 45 57 120 142 166 190 47
48 85 93 85 99 0 7 15 19 33 26 34 15 78 55 78 72 0 13 29 45 41 45 5 0 6 -5
2 -11 -4 -7 1 -10 11 -7 22 4 28 18 16 37 -7 11 -16 8 -45 -14 -21 -16 -35
-34 -32 -42 4 -9 -1 -12 -17 -8 -18 5 -46 -17 -155 -121 -73 -70 -162 -162
-199 -206 -65 -79 -101 -102 -47 -31 37 49 177 206 229 257 67 65 194 168 253
203 60 37 79 38 35 3 -18 -15 -23 -24 -15 -27 14 -5 16 -44 3 -58 -5 -6 -14
-28 -21 -50 -7 -22 -43 -99 -81 -171 -77 -146 -86 -190 -48 -238 16 -21 29
-26 62 -26 89 1 165 50 334 214 l104 101 -3 60 -3 60 -122 -119 c-68 -66 -144
-134 -169 -152 -47 -34 -131 -71 -139 -62 -3 3 8 31 24 64 17 32 39 80 50 106
16 38 25 47 42 45 17 -1 31 14 67 73 37 60 47 86 50 132 4 52 2 59 -23 82 -43
40 -88 35 -161 -16z"/>
<path d="M1617 1343 c-4 -3 -7 -13 -7 -22 1 -13 3 -13 11 2 11 19 8 33 -4 20z"/>
<path d="M1346 1274 c-18 -17 -22 -64 -6 -64 6 0 10 8 10 17 0 9 7 24 16 34
20 22 1 35 -20 13z"/>
<path d="M1640 1259 c0 -5 5 -7 10 -4 6 3 10 8 10 11 0 2 -4 4 -10 4 -5 0 -10
-5 -10 -11z"/>
<path d="M1278 1206 c-28 -29 -35 -46 -20 -46 15 0 54 48 50 62 -2 9 -12 4
-30 -16z"/>
<path d="M1579 1173 c-5 -16 -12 -35 -15 -43 -4 -13 -6 -13 -15 0 -9 12 -10
11 -5 -4 4 -10 1 -25 -5 -32 -6 -7 -9 -19 -7 -25 5 -16 51 44 72 94 13 32 13
37 0 37 -8 0 -19 -12 -25 -27z"/>
<path d="M1220 1145 c-7 -9 -11 -18 -8 -20 3 -3 11 1 18 10 7 9 11 18 8 20 -3
3 -11 -1 -18 -10z"/>
<path d="M1295 1139 c-11 -17 1 -21 15 -4 8 9 8 15 2 15 -6 0 -14 -5 -17 -11z"/>
<path d="M1506 1113 c-6 -14 -5 -15 5 -6 7 7 10 15 7 18 -3 3 -9 -2 -12 -12z"/>
<path d="M1260 1101 c-6 -12 -7 -21 -1 -21 10 0 24 30 17 37 -2 3 -9 -5 -16
-16z"/>
<path d="M1038 979 c-51 -50 -108 -102 -125 -116 -31 -24 -42 -43 -25 -43 4 0
50 41 101 90 51 50 98 87 103 83 6 -3 8 -1 4 5 -3 5 -3 12 1 14 16 7 56 58 45
58 -6 0 -53 -41 -104 -91z"/>
<path d="M1160 1005 c-8 -9 -8 -15 -2 -15 12 0 26 19 19 26 -2 2 -10 -2 -17
-11z"/>
<path d="M1063 910 c-18 -16 -33 -33 -33 -37 0 -5 -20 -23 -43 -40 -61 -47
-130 -113 -124 -119 10 -11 54 21 131 95 43 42 87 84 97 94 19 17 25 37 12 37
-5 0 -23 -14 -40 -30z"/>
</g>
</svg>
