<svg width="162" height="149" viewBox="0 0 162 149" fill="none" xmlns="http://www.w3.org/2000/svg">
<path opacity="0.3" d="M27.8201 13.2787C38.4414 3.22039 38.7916 1.8125 42.849 1.8125C46.0226 1.8125 50.6609 4.21856 50.6609 9.90376C50.6609 11.6607 50.214 13.6047 49.0774 14.7006L27.8201 13.2787Z" fill="#A080FF"/>
<path d="M27.2226 12.5395C41.3506 8.52086 44.8983 7.25049 47.3109 7.25049C52.2411 7.25049 57.5961 11.5003 57.5961 17.7928C57.5961 21.9621 54.6337 26.6918 51.4756 27.621L27.2226 12.5395Z" fill="white"/>
<path d="M39.277 27.6215C38.9639 26.1666 38.5194 24.6856 37.9216 23.1886C36.8899 20.6046 35.7441 18.5113 34.5242 16.8238C34.5242 16.8238 31.5782 23.0295 19.0891 28.1184C6.59101 33.1353 0.197692 30.7193 0.180216 30.7127C0.459708 32.7805 1.07206 35.0907 2.10374 37.6746C2.70145 39.1717 3.39876 40.5504 4.17298 41.8189C5.62791 44.2009 7.35903 46.1923 9.22542 47.8488C7.35903 46.1923 5.62972 44.2017 4.17481 41.8197C4.28497 41.8661 11.3422 44.8074 23.7643 39.8272C36.1399 34.7784 39.2209 27.7522 39.2765 27.6236C39.2765 27.6234 39.2766 27.6239 39.2765 27.6236L39.277 27.6215Z" fill="#141414"/>
<path d="M39.7744 35.4958C35.2383 44.1399 18.3699 50.9067 9.22724 47.8496C17.1123 54.8438 27.4371 55.8569 29.7851 54.9073C32.1329 53.9577 38.8902 46.036 39.7744 35.4958Z" fill="#141414"/>
<path d="M0.00915031 28.751C-0.0260336 27.7704 0.0201755 26.8541 0.134788 25.9958C0.100231 26.2537 0.0717813 26.5169 0.0497518 26.7855C-0.000531989 27.4109 -0.015538 28.0653 0.00915031 28.751Z" fill="#141414"/>
<path d="M29.1932 11.9787L29.1834 11.9543C26.5161 5.32376 17.9903 4.34634 10.7645 7.26875C3.53862 10.1912 -1.94448 16.8343 0.688452 23.4787L0.698205 23.5031C0.698202 23.5031 0.698208 23.5031 0.698205 23.5031C7.02448 25.6026 26.0851 17.8709 29.1932 11.9787Z" fill="#141414"/>
<path d="M5.73881 16.4853C5.93211 17.7392 5.44571 18.5855 4.70264 18.7016C3.95957 18.8176 3.24124 18.1594 3.04794 16.9055C2.85464 15.6515 3.25959 14.2767 4.00264 14.1607C4.74571 14.0447 5.54551 15.2314 5.73881 16.4853Z" fill="white"/>
<path fill-rule="evenodd" clip-rule="evenodd" d="M34.4897 16.637C33.6501 15.4877 32.7787 14.5355 31.887 13.748C30.995 12.9628 30.0848 12.3415 29.165 11.8535C26.0602 17.6732 7.01951 25.3096 0.699847 23.236C0.0510489 25.2058 -0.204582 27.5391 0.181978 30.3557C0.181978 30.3557 6.5694 32.7564 19.0715 27.7944C31.5476 22.7682 34.4897 16.637 34.4897 16.637ZM4.17283 41.327C4.28288 41.3729 11.3327 44.278 23.7419 39.359C36.121 34.3658 39.1905 27.4142 39.238 27.3053C39.8248 30.0046 39.9445 32.6138 39.7362 35.0788C35.2055 43.6168 18.3534 50.3023 9.21998 47.2826C7.35554 45.6465 5.62622 43.6797 4.17283 41.327Z" fill="#FFFF00"/>
<path d="M36.5 63.9998C41.1667 78.8331 51.5 111.231 72.5 117.5C106 127.5 137.5 97.0064 137.5 77.9998C137.5 36.5004 83.1842 43.5 85 77.9998C86.5 106.5 125.5 148 162 148" stroke="black" stroke-dasharray="10 10"/>
</svg>
