<svg width="58" height="58" viewBox="0 0 58 58" fill="none" xmlns="http://www.w3.org/2000/svg">
<path opacity="0.3" d="M30.1799 13.2787C19.5586 3.22039 19.2085 1.8125 15.1511 1.8125C11.9775 1.8125 7.33918 4.21856 7.33918 9.90376C7.33918 11.6607 7.78602 13.6047 8.92267 14.7006L30.1799 13.2787Z" fill="#A080FF"/>
<path d="M30.7773 12.5395C16.6494 8.52086 13.1017 7.25049 10.6891 7.25049C5.7588 7.25049 0.403852 11.5003 0.403852 17.7928C0.403852 21.9621 3.3662 26.6918 6.52438 27.621L30.7773 12.5395Z" fill="white"/>
<path d="M18.7231 27.6215C19.0362 26.1666 19.4807 24.6856 20.0784 23.1886C21.1101 20.6046 22.256 18.5113 23.4759 16.8238C23.4759 16.8238 26.4218 23.0295 38.911 28.1184C51.4091 33.1353 57.8024 30.7193 57.8198 30.7127C57.5404 32.7805 56.928 35.0907 55.8963 37.6746C55.2986 39.1717 54.6013 40.5504 53.8271 41.8189C52.3722 44.2009 50.641 46.1923 48.7746 47.8488C50.641 46.1923 52.3703 44.2017 53.8253 41.8197C53.7151 41.8661 46.6579 44.8074 34.2357 39.8272C21.8602 34.7784 18.7791 27.7522 18.7235 27.6236C18.7236 27.6234 18.7235 27.6239 18.7235 27.6236L18.7231 27.6215Z" fill="#141414"/>
<path d="M18.2257 35.4958C22.7618 44.1399 39.6301 50.9067 48.7728 47.8496C40.8878 54.8438 30.563 55.8569 28.215 54.9073C25.8671 53.9577 19.1099 46.036 18.2257 35.4958Z" fill="#141414"/>
<path d="M57.9909 28.751C58.0261 27.7704 57.9799 26.8541 57.8653 25.9958C57.8998 26.2537 57.9283 26.5169 57.9503 26.7855C58.0006 27.4109 58.0156 28.0653 57.9909 28.751Z" fill="#141414"/>
<path d="M28.8069 11.9787L28.8167 11.9543C31.484 5.32376 40.0097 4.34634 47.2356 7.26875C54.4614 10.1912 59.9445 16.8343 57.3116 23.4787L57.3019 23.5031C57.3019 23.5031 57.3019 23.5031 57.3019 23.5031C50.9756 25.6026 31.915 17.8709 28.8069 11.9787Z" fill="#141414"/>
<path d="M52.2611 16.4853C52.0678 17.7392 52.5542 18.5855 53.2973 18.7016C54.0404 18.8176 54.7587 18.1594 54.952 16.9055C55.1453 15.6515 54.7404 14.2767 53.9973 14.1607C53.2542 14.0447 52.4544 15.2314 52.2611 16.4853Z" fill="white"/>
<path fill-rule="evenodd" clip-rule="evenodd" d="M23.5103 16.637C24.3499 15.4877 25.2213 14.5355 26.113 13.748C27.005 12.9628 27.9152 12.3415 28.835 11.8535C31.9398 17.6732 50.9805 25.3096 57.3002 23.236C57.949 25.2058 58.2046 27.5391 57.818 30.3557C57.818 30.3557 51.4306 32.7564 38.9285 27.7944C26.4524 22.7682 23.5103 16.637 23.5103 16.637ZM53.8272 41.327C53.7171 41.3729 46.6673 44.278 34.2581 39.359C21.879 34.3658 18.8095 27.4142 18.762 27.3053C18.1752 30.0046 18.0555 32.6138 18.2638 35.0788C22.7945 43.6168 39.6466 50.3023 48.78 47.2826C50.6445 45.6465 52.3738 43.6797 53.8272 41.327Z" fill="#FFFF00"/>
</svg>
