<svg width="555" height="990" viewBox="0 0 555 990" fill="none" xmlns="http://www.w3.org/2000/svg">
<g opacity="0.7">
<path opacity="0.2" fill-rule="evenodd" clip-rule="evenodd" d="M472.329 988.585C473.537 989.272 475.026 989.272 476.234 988.585L555.901 943.258C557.109 942.571 557.853 941.301 557.853 939.926V849.274C557.853 847.899 557.109 846.629 555.901 845.942L476.234 800.616C475.026 799.928 473.537 799.928 472.329 800.616L392.662 845.942C391.454 846.629 390.71 847.899 390.71 849.274V939.926C390.71 941.301 391.454 942.571 392.662 943.258L472.329 988.585Z" fill="#FFE500"/>
<path opacity="0.2" fill-rule="evenodd" clip-rule="evenodd" d="M369.062 508.734C370.27 509.422 371.759 509.422 372.967 508.735L452.634 463.408C453.842 462.721 454.586 461.451 454.586 460.076V369.424C454.586 368.049 453.842 366.779 452.634 366.092L372.967 320.765C371.759 320.078 370.27 320.078 369.062 320.765L289.396 366.092C288.187 366.779 287.443 368.049 287.443 369.424V460.076C287.443 461.451 288.187 462.721 289.396 463.408L369.062 508.734Z" fill="#FFE500"/>
<path opacity="0.4" fill-rule="evenodd" clip-rule="evenodd" d="M274.313 349.135C275.521 349.822 277.009 349.822 278.217 349.135L357.884 303.809C359.092 303.121 359.836 301.851 359.836 300.476V209.824C359.836 208.449 359.092 207.179 357.884 206.492L278.217 161.166C277.009 160.478 275.521 160.478 274.313 161.166L194.646 206.492C193.438 207.179 192.693 208.449 192.693 209.824V300.476C192.693 301.851 193.438 303.121 194.646 303.809L274.313 349.135Z" fill="#FFE500"/>
<path opacity="0.1" fill-rule="evenodd" clip-rule="evenodd" d="M81.6192 349.135C82.8273 349.822 84.3157 349.822 85.5237 349.135L165.191 303.809C166.399 303.121 167.143 301.851 167.143 300.476V209.824C167.143 208.449 166.399 207.179 165.191 206.492L85.5237 161.166C84.3157 160.478 82.8273 160.478 81.6192 161.166L1.95228 206.492C0.744204 207.179 0 208.449 0 209.824V300.476C0 301.851 0.744203 303.121 1.95227 303.809L81.6192 349.135Z" fill="#FFE500"/>
<path opacity="0.2" fill-rule="evenodd" clip-rule="evenodd" d="M176.369 188.484C177.577 189.172 179.065 189.172 180.274 188.485L259.94 143.158C261.149 142.471 261.893 141.201 261.893 139.826V49.1738C261.893 47.7992 261.149 46.529 259.94 45.8416L180.274 0.515488C179.065 -0.171829 177.577 -0.171829 176.369 0.515488L96.7021 45.8416C95.494 46.529 94.7498 47.7992 94.7498 49.1738V139.826C94.7498 141.201 95.494 142.471 96.7021 143.158L176.369 188.484Z" fill="#FFE500"/>
<path opacity="0.56" fill-rule="evenodd" clip-rule="evenodd" d="M278.571 668.335C279.779 669.022 281.268 669.022 282.476 668.335L362.143 623.008C363.351 622.321 364.095 621.051 364.095 619.676V529.024C364.095 527.649 363.351 526.379 362.143 525.692L282.476 480.366C281.268 479.678 279.779 479.678 278.571 480.366L198.904 525.692C197.696 526.379 196.952 527.649 196.952 529.024V619.676C196.952 621.051 197.696 622.321 198.904 623.008L278.571 668.335Z" fill="#FFE500"/>
<path opacity="0.5" fill-rule="evenodd" clip-rule="evenodd" d="M85.8776 668.335C87.0857 669.022 88.5741 669.022 89.7822 668.335L169.449 623.008C170.657 622.321 171.401 621.051 171.401 619.676V529.024C171.401 527.649 170.657 526.379 169.449 525.692L89.7822 480.366C88.5741 479.678 87.0857 479.678 85.8776 480.366L6.2107 525.692C5.00263 526.379 4.25842 527.649 4.25842 529.024V619.676C4.25842 621.051 5.00263 622.321 6.2107 623.008L85.8776 668.335Z" fill="#FFE500"/>
<path opacity="0.3" fill-rule="evenodd" clip-rule="evenodd" d="M180.627 508.734C181.835 509.422 183.324 509.422 184.532 508.735L264.199 463.408C265.407 462.721 266.151 461.451 266.151 460.076V369.424C266.151 368.049 265.407 366.779 264.199 366.092L184.532 320.765C183.324 320.078 181.835 320.078 180.627 320.765L100.961 366.092C99.7524 366.779 99.0082 368.049 99.0082 369.424V460.076C99.0082 461.451 99.7524 462.721 100.961 463.408L180.627 508.734Z" fill="#FFE500"/>
<path opacity="0.3" fill-rule="evenodd" clip-rule="evenodd" d="M373.321 828.984C374.529 829.672 376.017 829.672 377.225 828.985L456.892 783.658C458.1 782.971 458.845 781.701 458.845 780.326V689.674C458.845 688.299 458.1 687.029 456.892 686.342L377.225 641.015C376.017 640.328 374.529 640.328 373.321 641.015L293.654 686.342C292.446 687.029 291.702 688.299 291.702 689.674V780.326C291.702 781.701 292.446 782.971 293.654 783.658L373.321 828.984Z" fill="#FFE500"/>
</g>
</svg>
