<svg width="558" height="990" viewBox="0 0 558 990" fill="none" xmlns="http://www.w3.org/2000/svg">
<g opacity="0.7">
<path opacity="0.2" fill-rule="evenodd" clip-rule="evenodd" d="M472.329 0.515502C473.537 -0.171832 475.026 -0.171832 476.234 0.515488L555.901 45.8416C557.109 46.529 557.853 47.7992 557.853 49.1739V139.826C557.853 141.201 557.109 142.471 555.901 143.158L476.234 188.485C475.026 189.172 473.537 189.172 472.329 188.485L392.662 143.158C391.454 142.471 390.71 141.201 390.71 139.826V49.1739C390.71 47.7992 391.454 46.529 392.662 45.8416L472.329 0.515502Z" fill="#C2C2C2"/>
<path opacity="0.2" fill-rule="evenodd" clip-rule="evenodd" d="M369.062 480.366C370.27 479.678 371.759 479.678 372.967 480.366L452.634 525.692C453.842 526.379 454.586 527.649 454.586 529.024V619.676C454.586 621.051 453.842 622.321 452.634 623.008L372.967 668.335C371.759 669.022 370.27 669.022 369.062 668.335L289.396 623.008C288.187 622.321 287.443 621.051 287.443 619.676V529.024C287.443 527.649 288.187 526.379 289.396 525.692L369.062 480.366Z" fill="#C2C2C2"/>
<path opacity="0.4" fill-rule="evenodd" clip-rule="evenodd" d="M274.313 639.966C275.521 639.278 277.009 639.278 278.217 639.966L357.884 685.292C359.092 685.979 359.836 687.249 359.836 688.624V779.276C359.836 780.651 359.092 781.921 357.884 782.609L278.217 827.935C277.009 828.622 275.521 828.622 274.313 827.935L194.646 782.609C193.438 781.921 192.693 780.651 192.693 779.276V688.624C192.693 687.249 193.438 685.979 194.646 685.292L274.313 639.966Z" fill="#C2C2C2"/>
<path opacity="0.1" fill-rule="evenodd" clip-rule="evenodd" d="M81.6192 639.966C82.8273 639.278 84.3157 639.278 85.5237 639.966L165.191 685.292C166.399 685.979 167.143 687.249 167.143 688.624V779.276C167.143 780.651 166.399 781.921 165.191 782.609L85.5237 827.935C84.3157 828.622 82.8273 828.622 81.6192 827.935L1.95228 782.609C0.744204 781.921 0 780.651 0 779.276V688.624C0 687.249 0.744203 685.979 1.95227 685.292L81.6192 639.966Z" fill="#C2C2C2"/>
<path opacity="0.2" fill-rule="evenodd" clip-rule="evenodd" d="M176.369 800.616C177.577 799.928 179.065 799.928 180.273 800.616L259.94 845.942C261.148 846.629 261.893 847.899 261.893 849.274V939.926C261.893 941.301 261.148 942.571 259.94 943.258L180.273 988.585C179.065 989.272 177.577 989.272 176.369 988.585L96.702 943.258C95.494 942.571 94.7498 941.301 94.7498 939.926V849.274C94.7498 847.899 95.494 846.629 96.702 845.942L176.369 800.616Z" fill="#C2C2C2"/>
<path opacity="0.56" fill-rule="evenodd" clip-rule="evenodd" d="M278.571 320.766C279.779 320.078 281.268 320.078 282.476 320.765L362.143 366.092C363.351 366.779 364.095 368.049 364.095 369.424V460.076C364.095 461.451 363.351 462.721 362.143 463.408L282.476 508.735C281.268 509.422 279.779 509.422 278.571 508.735L198.904 463.408C197.696 462.721 196.952 461.451 196.952 460.076V369.424C196.952 368.049 197.696 366.779 198.904 366.092L278.571 320.766Z" fill="#C2C2C2"/>
<path opacity="0.5" fill-rule="evenodd" clip-rule="evenodd" d="M85.8776 320.766C87.0857 320.078 88.5741 320.078 89.7822 320.765L169.449 366.092C170.657 366.779 171.401 368.049 171.401 369.424V460.076C171.401 461.451 170.657 462.721 169.449 463.408L89.7822 508.735C88.5741 509.422 87.0857 509.422 85.8776 508.735L6.2107 463.408C5.00263 462.721 4.25842 461.451 4.25842 460.076V369.424C4.25842 368.049 5.00263 366.779 6.2107 366.092L85.8776 320.766Z" fill="#C2C2C2"/>
<path opacity="0.3" fill-rule="evenodd" clip-rule="evenodd" d="M180.627 480.366C181.835 479.678 183.324 479.678 184.532 480.366L264.199 525.692C265.407 526.379 266.151 527.649 266.151 529.024V619.676C266.151 621.051 265.407 622.321 264.199 623.008L184.532 668.335C183.324 669.022 181.835 669.022 180.627 668.335L100.96 623.008C99.7524 622.321 99.0082 621.051 99.0082 619.676V529.024C99.0082 527.649 99.7524 526.379 100.96 525.692L180.627 480.366Z" fill="#C2C2C2"/>
<path opacity="0.3" fill-rule="evenodd" clip-rule="evenodd" d="M373.321 160.116C374.529 159.428 376.017 159.428 377.225 160.116L456.892 205.442C458.1 206.129 458.845 207.399 458.845 208.774V299.426C458.845 300.801 458.1 302.071 456.892 302.758L377.225 348.085C376.017 348.772 374.529 348.772 373.321 348.085L293.654 302.758C292.446 302.071 291.702 300.801 291.702 299.426V208.774C291.702 207.399 292.446 206.129 293.654 205.442L373.321 160.116Z" fill="#C2C2C2"/>
</g>
</svg>
