<svg width="395" height="1086" viewBox="0 0 395 1086" fill="none" xmlns="http://www.w3.org/2000/svg">
<g opacity="0.7">
<path opacity="0.2" fill-rule="evenodd" clip-rule="evenodd" d="M308.619 0.515502C309.827 -0.171832 311.316 -0.171832 312.524 0.515488L392.191 45.8416C393.399 46.529 394.143 47.7992 394.143 49.1739V139.826C394.143 141.201 393.399 142.471 392.191 143.158L312.524 188.485C311.316 189.172 309.827 189.172 308.619 188.485L228.952 143.158C227.744 142.471 227 141.201 227 139.826V49.1739C227 47.7992 227.744 46.529 228.952 45.8416L308.619 0.515502Z" fill="#C2C2C2"/>
<path opacity="0.4" fill-rule="evenodd" clip-rule="evenodd" d="M274.313 736.115C275.521 735.428 277.009 735.428 278.217 736.115L357.884 781.441C359.092 782.129 359.836 783.399 359.836 784.773V875.426C359.836 876.8 359.092 878.071 357.884 878.758L278.217 924.084C277.009 924.771 275.521 924.771 274.313 924.084L194.646 878.758C193.438 878.071 192.693 876.8 192.693 875.426V784.773C192.693 783.399 193.438 782.129 194.646 781.441L274.313 736.115Z" fill="#C2C2C2"/>
<path opacity="0.1" fill-rule="evenodd" clip-rule="evenodd" d="M81.6192 736.115C82.8273 735.428 84.3157 735.428 85.5237 736.115L165.191 781.441C166.399 782.129 167.143 783.399 167.143 784.773V875.426C167.143 876.8 166.399 878.071 165.191 878.758L85.5237 924.084C84.3157 924.771 82.8273 924.771 81.6192 924.084L1.95228 878.758C0.744204 878.071 0 876.8 0 875.426V784.773C0 783.399 0.744203 782.129 1.95227 781.441L81.6192 736.115Z" fill="#C2C2C2"/>
<path opacity="0.2" fill-rule="evenodd" clip-rule="evenodd" d="M176.369 896.766C177.577 896.078 179.065 896.078 180.273 896.765L259.94 942.092C261.148 942.779 261.893 944.049 261.893 945.424V1036.08C261.893 1037.45 261.148 1038.72 259.94 1039.41L180.273 1084.73C179.065 1085.42 177.577 1085.42 176.369 1084.73L96.702 1039.41C95.494 1038.72 94.7498 1037.45 94.7498 1036.08V945.424C94.7498 944.049 95.494 942.779 96.702 942.092L176.369 896.766Z" fill="#C2C2C2"/>
<path opacity="0.5" fill-rule="evenodd" clip-rule="evenodd" d="M85.8776 315.766C87.0857 315.078 88.5741 315.078 89.7822 315.765L169.449 361.092C170.657 361.779 171.401 363.049 171.401 364.424V455.076C171.401 456.451 170.657 457.721 169.449 458.408L89.7822 503.735C88.5741 504.422 87.0857 504.422 85.8776 503.735L6.2107 458.408C5.00263 457.721 4.25842 456.451 4.25842 455.076V364.424C4.25842 363.049 5.00263 361.779 6.2107 361.092L85.8776 315.766Z" fill="#C2C2C2"/>
<path opacity="0.3" fill-rule="evenodd" clip-rule="evenodd" d="M180.627 576.516C181.835 575.828 183.324 575.828 184.532 576.515L264.199 621.842C265.407 622.529 266.151 623.799 266.151 625.174V715.826C266.151 717.201 265.407 718.471 264.199 719.158L184.532 764.485C183.324 765.172 181.835 765.172 180.627 764.485L100.96 719.158C99.7524 718.471 99.0082 717.201 99.0082 715.826V625.174C99.0082 623.799 99.7524 622.529 100.96 621.842L180.627 576.516Z" fill="#C2C2C2"/>
<path opacity="0.3" fill-rule="evenodd" clip-rule="evenodd" d="M190.619 169.516C191.827 168.828 193.316 168.828 194.524 169.515L274.191 214.842C275.399 215.529 276.143 216.799 276.143 218.174V308.826C276.143 310.201 275.399 311.471 274.191 312.158L194.524 357.485C193.316 358.172 191.827 358.172 190.619 357.485L110.952 312.158C109.744 311.471 109 310.201 109 308.826V218.174C109 216.799 109.744 215.529 110.952 214.842L190.619 169.516Z" fill="#C2C2C2"/>
</g>
</svg>
