<svg width="188" height="211" viewBox="0 0 188 211" fill="none" xmlns="http://www.w3.org/2000/svg">
<path opacity="0.56" fill-rule="evenodd" clip-rule="evenodd" d="M91.8041 210.424C93.1629 211.192 94.8371 211.192 96.1959 210.425L185.804 159.822C187.163 159.055 188 157.637 188 156.102V54.8978C188 53.3631 187.163 51.945 185.804 51.1777L96.1959 0.575485C94.8371 -0.191839 93.1629 -0.191839 91.8041 0.575485L2.19589 51.1777C0.83707 51.945 0 53.3631 0 54.8978V156.102C0 157.637 0.837069 159.055 2.19589 159.822L91.8041 210.424Z" fill="#C2C2C2"/>
<path d="M45.22 143L41.38 129.8H44.32L46.92 140.7L49.56 129.8H52.2L54.88 140.7L57.46 129.8H60.28L56.44 143H53.34L51.5 135.8L50.88 132.68H50.84L50.22 135.8L48.4 143H45.22ZM65.7695 132.8C66.7829 132.8 67.6695 133.007 68.4295 133.42C69.2029 133.833 69.8029 134.427 70.2295 135.2C70.6695 135.973 70.8895 136.907 70.8895 138C70.8895 139.08 70.6695 140.013 70.2295 140.8C69.8029 141.573 69.2029 142.167 68.4295 142.58C67.6695 142.993 66.7829 143.2 65.7695 143.2C64.7695 143.2 63.8829 142.993 63.1095 142.58C62.3362 142.167 61.7295 141.573 61.2895 140.8C60.8629 140.013 60.6495 139.08 60.6495 138C60.6495 136.907 60.8629 135.973 61.2895 135.2C61.7295 134.427 62.3362 133.833 63.1095 133.42C63.8829 133.007 64.7695 132.8 65.7695 132.8ZM65.7695 134.84C65.2629 134.84 64.8295 134.96 64.4695 135.2C64.1229 135.427 63.8562 135.773 63.6695 136.24C63.4829 136.707 63.3895 137.293 63.3895 138C63.3895 138.707 63.4829 139.293 63.6695 139.76C63.8562 140.227 64.1229 140.58 64.4695 140.82C64.8295 141.047 65.2629 141.16 65.7695 141.16C66.2629 141.16 66.6829 141.047 67.0295 140.82C67.3895 140.58 67.6629 140.227 67.8495 139.76C68.0362 139.293 68.1295 138.707 68.1295 138C68.1295 137.293 68.0362 136.707 67.8495 136.24C67.6629 135.773 67.3895 135.427 67.0295 135.2C66.6829 134.96 66.2629 134.84 65.7695 134.84ZM73.1822 143V133H75.5622L75.7422 134.96C76.0089 134.267 76.3955 133.733 76.9022 133.36C77.4222 132.987 78.0689 132.8 78.8422 132.8C79.0689 132.8 79.2755 132.82 79.4622 132.86C79.6489 132.9 79.8022 132.953 79.9222 133.02L79.6022 135.32C79.4689 135.267 79.3022 135.227 79.1022 135.2C78.9155 135.173 78.6689 135.16 78.3622 135.16C77.9622 135.16 77.5755 135.26 77.2022 135.46C76.8289 135.647 76.5222 135.94 76.2822 136.34C76.0422 136.727 75.9222 137.22 75.9222 137.82V143H73.1822ZM91.7997 133L87.1797 137.82L86.6397 138.08L83.6397 141.3L83.5997 138.38L88.6797 133H91.7997ZM84.3597 128.62V143H81.6197V128.62H84.3597ZM87.5597 136.18L92.0397 143H88.9397L85.6797 137.78L87.5597 136.18ZM104.513 129.6C105.713 129.6 106.766 129.807 107.673 130.22C108.579 130.633 109.353 131.247 109.993 132.06L108.453 133.84C107.906 133.147 107.306 132.64 106.653 132.32C106.013 131.987 105.266 131.82 104.413 131.82C103.853 131.82 103.386 131.893 103.013 132.04C102.653 132.187 102.386 132.38 102.213 132.62C102.053 132.86 101.973 133.127 101.973 133.42C101.973 133.78 102.113 134.087 102.393 134.34C102.673 134.58 103.153 134.78 103.833 134.94L106.293 135.5C107.599 135.793 108.533 136.233 109.093 136.82C109.666 137.393 109.953 138.14 109.953 139.06C109.953 139.927 109.726 140.673 109.273 141.3C108.819 141.913 108.186 142.387 107.373 142.72C106.559 143.04 105.626 143.2 104.573 143.2C103.653 143.2 102.806 143.093 102.033 142.88C101.273 142.653 100.593 142.347 99.9927 141.96C99.3927 141.573 98.8927 141.127 98.4927 140.62L100.053 138.76C100.359 139.187 100.739 139.567 101.193 139.9C101.646 140.233 102.159 140.5 102.733 140.7C103.319 140.887 103.933 140.98 104.573 140.98C105.119 140.98 105.579 140.92 105.953 140.8C106.339 140.667 106.626 140.487 106.813 140.26C107.013 140.02 107.113 139.733 107.113 139.4C107.113 139.053 106.993 138.76 106.753 138.52C106.526 138.267 106.099 138.073 105.473 137.94L102.793 137.34C102.019 137.153 101.353 136.913 100.793 136.62C100.246 136.313 99.826 135.927 99.5327 135.46C99.2527 134.98 99.1127 134.413 99.1127 133.76C99.1127 132.973 99.326 132.267 99.7527 131.64C100.179 131.013 100.793 130.52 101.593 130.16C102.406 129.787 103.379 129.6 104.513 129.6ZM117.867 136.62C117.867 136.047 117.7 135.6 117.367 135.28C117.047 134.96 116.62 134.8 116.087 134.8C115.593 134.8 115.16 134.927 114.787 135.18C114.413 135.433 114.14 135.853 113.967 136.44L111.627 135.72C111.853 134.84 112.347 134.133 113.107 133.6C113.88 133.067 114.913 132.8 116.207 132.8C117.087 132.8 117.853 132.94 118.507 133.22C119.16 133.487 119.667 133.893 120.027 134.44C120.4 134.987 120.587 135.673 120.587 136.5V140.56C120.587 141.067 120.827 141.32 121.307 141.32C121.533 141.32 121.747 141.287 121.947 141.22L121.787 142.92C121.44 143.093 121.007 143.18 120.487 143.18C120.02 143.18 119.6 143.1 119.227 142.94C118.853 142.78 118.56 142.54 118.347 142.22C118.133 141.887 118.027 141.473 118.027 140.98V140.9L118.507 140.82C118.427 141.327 118.207 141.76 117.847 142.12C117.487 142.467 117.047 142.733 116.527 142.92C116.02 143.107 115.493 143.2 114.947 143.2C114.267 143.2 113.68 143.1 113.187 142.9C112.693 142.687 112.313 142.38 112.047 141.98C111.78 141.58 111.647 141.087 111.647 140.5C111.647 139.753 111.887 139.147 112.367 138.68C112.847 138.2 113.533 137.873 114.427 137.7L118.187 136.94L118.167 138.64L115.767 139.12C115.313 139.213 114.967 139.34 114.727 139.5C114.5 139.647 114.387 139.893 114.387 140.24C114.387 140.573 114.507 140.827 114.747 141C115 141.173 115.3 141.26 115.647 141.26C115.927 141.26 116.2 141.227 116.467 141.16C116.733 141.093 116.973 140.987 117.187 140.84C117.4 140.693 117.567 140.493 117.687 140.24C117.807 139.987 117.867 139.68 117.867 139.32V136.62ZM123.651 143V133H126.111L126.271 136L125.931 135.68C126.091 135.027 126.344 134.487 126.691 134.06C127.038 133.633 127.458 133.32 127.951 133.12C128.458 132.907 129.011 132.8 129.611 132.8C130.304 132.8 130.918 132.933 131.451 133.2C131.998 133.467 132.424 133.873 132.731 134.42C133.051 134.953 133.211 135.627 133.211 136.44V143H130.471V137.22C130.471 136.367 130.304 135.78 129.971 135.46C129.638 135.127 129.204 134.96 128.671 134.96C128.298 134.96 127.931 135.053 127.571 135.24C127.224 135.413 126.938 135.7 126.711 136.1C126.498 136.5 126.391 137.033 126.391 137.7V143H123.651ZM140.034 143.2C139.02 143.2 138.094 143.02 137.254 142.66C136.427 142.3 135.754 141.793 135.234 141.14L136.814 139.54C137.134 140.02 137.56 140.413 138.094 140.72C138.627 141.027 139.26 141.18 139.994 141.18C140.514 141.18 140.927 141.107 141.234 140.96C141.554 140.8 141.714 140.553 141.714 140.22C141.714 140.007 141.64 139.827 141.494 139.68C141.347 139.52 141.054 139.393 140.614 139.3L138.854 138.94C137.694 138.7 136.867 138.34 136.374 137.86C135.894 137.367 135.654 136.733 135.654 135.96C135.654 135.413 135.814 134.9 136.134 134.42C136.467 133.94 136.96 133.553 137.614 133.26C138.267 132.953 139.08 132.8 140.054 132.8C141.054 132.8 141.92 132.96 142.654 133.28C143.4 133.587 143.987 134.047 144.414 134.66L142.774 136.26C142.48 135.793 142.094 135.44 141.614 135.2C141.147 134.947 140.654 134.82 140.134 134.82C139.76 134.82 139.44 134.86 139.174 134.94C138.907 135.02 138.707 135.133 138.574 135.28C138.44 135.413 138.374 135.587 138.374 135.8C138.374 136.013 138.467 136.2 138.654 136.36C138.84 136.507 139.18 136.633 139.674 136.74L141.714 137.16C142.7 137.36 143.407 137.7 143.834 138.18C144.26 138.647 144.474 139.213 144.474 139.88C144.474 140.52 144.3 141.093 143.954 141.6C143.62 142.093 143.12 142.487 142.454 142.78C141.8 143.06 140.994 143.2 140.034 143.2Z" fill="black" fill-opacity="0.9"/>
<path d="M96.327 102H85.1893L80.9055 89.4603H61.2003L56.9166 102H45.9346L64.7052 50.5951H77.5564L96.327 102ZM63.6148 81.5159H78.4911L71.014 59.0847L63.6148 81.5159ZM125.059 77.1543C125.059 74.9216 124.41 73.1821 123.112 71.9359C121.866 70.6898 120.204 70.0667 118.127 70.0667C116.206 70.0667 114.518 70.5599 113.065 71.5465C111.611 72.5331 110.546 74.1687 109.871 76.4533L100.759 73.6494C101.641 70.2224 103.562 67.4705 106.522 65.3935C109.534 63.3165 113.558 62.278 118.595 62.278C122.022 62.278 125.007 62.8232 127.551 63.9137C130.096 64.9521 132.069 66.5358 133.471 68.6647C134.925 70.7936 135.652 73.4677 135.652 76.687V92.4979C135.652 94.471 136.586 95.4576 138.456 95.4576C139.338 95.4576 140.169 95.3278 140.948 95.0681L140.325 101.688C138.975 102.363 137.287 102.701 135.262 102.701C133.445 102.701 131.809 102.389 130.355 101.766C128.901 101.143 127.759 100.209 126.928 98.9624C126.098 97.6643 125.682 96.0547 125.682 94.1335V93.822L127.551 93.5104C127.24 95.4835 126.383 97.1711 124.981 98.573C123.579 99.923 121.866 100.962 119.841 101.688C117.868 102.415 115.817 102.779 113.688 102.779C111.04 102.779 108.755 102.389 106.834 101.611C104.913 100.78 103.433 99.5855 102.394 98.0278C101.356 96.4701 100.836 94.5489 100.836 92.2642C100.836 89.3565 101.771 86.9939 103.64 85.1766C105.51 83.3073 108.184 82.0352 111.663 81.3602L126.305 78.4005L126.227 85.0208L116.881 86.8901C115.116 87.2535 113.766 87.7468 112.831 88.3699C111.948 88.9411 111.507 89.9017 111.507 91.2517C111.507 92.5498 111.974 93.5364 112.909 94.2114C113.895 94.8864 115.064 95.2239 116.414 95.2239C117.504 95.2239 118.569 95.0941 119.607 94.8345C120.646 94.5749 121.58 94.1595 122.411 93.5883C123.242 93.0171 123.891 92.2383 124.358 91.2517C124.825 90.2651 125.059 89.0709 125.059 87.6689V77.1543Z" fill="black" fill-opacity="0.9"/>
</svg>
