<svg width="188" height="211" viewBox="0 0 188 211" fill="none" xmlns="http://www.w3.org/2000/svg">
<path opacity="0.56" fill-rule="evenodd" clip-rule="evenodd" d="M91.8041 210.424C93.1629 211.192 94.8371 211.192 96.1959 210.425L185.804 159.822C187.163 159.055 188 157.637 188 156.102V54.8978C188 53.3631 187.163 51.945 185.804 51.1777L96.1959 0.575485C94.8371 -0.191839 93.1629 -0.191839 91.8041 0.575485L2.19589 51.1777C0.83707 51.945 0 53.3631 0 54.8978V156.102C0 157.637 0.837069 159.055 2.19589 159.822L91.8041 210.424Z" fill="#C2C2C2"/>
<path d="M72.28 145.7C72.2 145.74 72.2 145.78 72.28 145.82C73.64 146.46 74.32 147.56 74.32 149.12C74.32 150.387 73.8933 151.353 73.04 152.02C72.2 152.673 71.1 153 69.74 153H64.7C64.6333 153 64.5733 152.98 64.52 152.94C64.48 152.887 64.46 152.827 64.46 152.76V139.24C64.46 139.173 64.48 139.12 64.52 139.08C64.5733 139.027 64.6333 139 64.7 139H69.58C71.0333 139 72.1533 139.313 72.94 139.94C73.7267 140.567 74.12 141.513 74.12 142.78C74.12 144.18 73.5067 145.153 72.28 145.7ZM66.88 141C66.8133 141 66.78 141.033 66.78 141.1V144.8C66.78 144.867 66.8133 144.9 66.88 144.9H69.58C70.2867 144.9 70.84 144.733 71.24 144.4C71.6533 144.053 71.86 143.58 71.86 142.98C71.86 142.367 71.6533 141.887 71.24 141.54C70.84 141.18 70.2867 141 69.58 141H66.88ZM69.74 150.98C70.4333 150.98 70.98 150.793 71.38 150.42C71.7933 150.047 72 149.54 72 148.9C72 148.247 71.7933 147.74 71.38 147.38C70.9667 147.007 70.4067 146.82 69.7 146.82H66.88C66.8133 146.82 66.78 146.853 66.78 146.92V150.88C66.78 150.947 66.8133 150.98 66.88 150.98H69.74ZM80.5033 142.62C81.3433 142.62 82.0833 142.767 82.7233 143.06C83.3633 143.353 83.8566 143.76 84.2033 144.28C84.5499 144.787 84.7233 145.367 84.7233 146.02V152.76C84.7233 152.827 84.6966 152.887 84.6433 152.94C84.6033 152.98 84.5499 153 84.4833 153H82.6433C82.5766 153 82.5166 152.98 82.4633 152.94C82.4233 152.887 82.4033 152.827 82.4033 152.76V152.12C82.4033 152.08 82.3899 152.06 82.3633 152.06C82.3366 152.047 82.3099 152.053 82.2833 152.08C81.6299 152.8 80.6833 153.16 79.4433 153.16C78.4433 153.16 77.6166 152.907 76.9633 152.4C76.3233 151.893 76.0033 151.14 76.0033 150.14C76.0033 149.1 76.3633 148.293 77.0833 147.72C77.8166 147.133 78.8433 146.84 80.1633 146.84H82.3033C82.3699 146.84 82.4033 146.807 82.4033 146.74V146.26C82.4033 145.74 82.2499 145.34 81.9433 145.06C81.6366 144.767 81.1766 144.62 80.5633 144.62C80.0566 144.62 79.6433 144.713 79.3233 144.9C79.0166 145.073 78.8233 145.32 78.7433 145.64C78.7033 145.8 78.6099 145.867 78.4633 145.84L76.5233 145.6C76.4566 145.587 76.3966 145.567 76.3433 145.54C76.3033 145.5 76.2899 145.453 76.3033 145.4C76.4099 144.587 76.8433 143.92 77.6033 143.4C78.3766 142.88 79.3433 142.62 80.5033 142.62ZM80.0233 151.32C80.6766 151.32 81.2366 151.147 81.7033 150.8C82.1699 150.453 82.4033 150.013 82.4033 149.48V148.54C82.4033 148.473 82.3699 148.44 82.3033 148.44H80.6233C79.9166 148.44 79.3566 148.573 78.9433 148.84C78.5433 149.107 78.3433 149.487 78.3433 149.98C78.3433 150.407 78.4966 150.74 78.8033 150.98C79.1233 151.207 79.5299 151.32 80.0233 151.32ZM91.8125 142.66C92.2392 142.66 92.6125 142.747 92.9325 142.92C93.0392 142.973 93.0792 143.073 93.0525 143.22L92.7125 145.02C92.6992 145.18 92.6058 145.227 92.4325 145.16C92.2325 145.093 91.9992 145.06 91.7325 145.06C91.5592 145.06 91.4258 145.067 91.3325 145.08C90.7725 145.107 90.3058 145.307 89.9325 145.68C89.5592 146.04 89.3725 146.513 89.3725 147.1V152.76C89.3725 152.827 89.3458 152.887 89.2925 152.94C89.2525 152.98 89.1992 153 89.1325 153H87.2925C87.2258 153 87.1658 152.98 87.1125 152.94C87.0725 152.887 87.0525 152.827 87.0525 152.76V143.02C87.0525 142.953 87.0725 142.9 87.1125 142.86C87.1658 142.807 87.2258 142.78 87.2925 142.78H89.1325C89.1992 142.78 89.2525 142.807 89.2925 142.86C89.3458 142.9 89.3725 142.953 89.3725 143.02V143.92C89.3725 143.973 89.3792 144.007 89.3925 144.02C89.4192 144.02 89.4458 144 89.4725 143.96C90.0325 143.093 90.8125 142.66 91.8125 142.66ZM94.812 153C94.7454 153 94.6854 152.98 94.632 152.94C94.592 152.887 94.572 152.827 94.572 152.76V139.24C94.572 139.173 94.592 139.12 94.632 139.08C94.6854 139.027 94.7454 139 94.812 139H96.652C96.7187 139 96.772 139.027 96.812 139.08C96.8654 139.12 96.892 139.173 96.892 139.24V152.76C96.892 152.827 96.8654 152.887 96.812 152.94C96.772 152.98 96.7187 153 96.652 153H94.812ZM103.697 153.16C102.644 153.16 101.737 152.893 100.977 152.36C100.231 151.827 99.7039 151.087 99.3972 150.14C99.1705 149.42 99.0572 148.66 99.0572 147.86C99.0572 147.007 99.1639 146.247 99.3772 145.58C99.6839 144.647 100.217 143.92 100.977 143.4C101.737 142.88 102.651 142.62 103.717 142.62C104.731 142.62 105.604 142.88 106.337 143.4C107.084 143.92 107.611 144.64 107.917 145.56C108.157 146.2 108.277 146.96 108.277 147.84C108.277 148.68 108.164 149.44 107.937 150.12C107.631 151.067 107.104 151.813 106.357 152.36C105.611 152.893 104.724 153.16 103.697 153.16ZM103.697 151.16C104.191 151.16 104.611 151.02 104.957 150.74C105.317 150.46 105.577 150.067 105.737 149.56C105.871 149.12 105.937 148.56 105.937 147.88C105.937 147.16 105.871 146.6 105.737 146.2C105.591 145.693 105.337 145.307 104.977 145.04C104.617 144.76 104.177 144.62 103.657 144.62C103.164 144.62 102.737 144.76 102.377 145.04C102.017 145.307 101.757 145.693 101.597 146.2C101.464 146.667 101.397 147.227 101.397 147.88C101.397 148.533 101.464 149.093 101.597 149.56C101.744 150.067 101.997 150.46 102.357 150.74C102.731 151.02 103.177 151.16 103.697 151.16ZM112.383 153C112.236 153 112.143 152.933 112.103 152.8L109.243 143.04L109.223 142.96C109.223 142.827 109.296 142.76 109.443 142.76H111.343C111.489 142.76 111.583 142.827 111.623 142.96L113.283 149.64C113.296 149.68 113.316 149.7 113.343 149.7C113.369 149.7 113.389 149.68 113.403 149.64L115.143 142.96C115.183 142.827 115.276 142.76 115.423 142.76H117.083C117.229 142.76 117.323 142.827 117.363 142.96L119.143 149.64C119.156 149.68 119.176 149.7 119.203 149.7C119.229 149.7 119.249 149.68 119.263 149.64L121.043 142.96C121.083 142.827 121.176 142.76 121.323 142.76L123.203 142.8C123.283 142.8 123.336 142.827 123.363 142.88C123.403 142.92 123.416 142.98 123.403 143.06L120.523 152.8C120.483 152.933 120.396 153 120.263 153H118.343C118.196 153 118.103 152.933 118.063 152.8L116.303 146.7C116.289 146.66 116.269 146.64 116.243 146.64C116.216 146.64 116.196 146.66 116.183 146.7L114.563 152.8C114.523 152.933 114.429 153 114.283 153H112.383Z" fill="black" fill-opacity="0.9"/>
<path d="M87.4883 116C86.9691 116 86.6315 115.74 86.4758 115.221L83.9055 106.887C83.8017 106.68 83.6719 106.576 83.5161 106.576H62.9541C62.7984 106.576 62.6686 106.68 62.5647 106.887L59.9945 115.221C59.8387 115.74 59.5012 116 58.982 116H51.1933C50.8818 116 50.6481 115.922 50.4924 115.766C50.3366 115.559 50.3106 115.273 50.4145 114.91L67.3158 62.2585C67.4715 61.7393 67.8091 61.4797 68.3283 61.4797H78.0641C78.5833 61.4797 78.9208 61.7393 79.0766 62.2585L96.0558 114.91C96.1077 115.013 96.1337 115.143 96.1337 115.299C96.1337 115.766 95.8481 116 95.2769 116H87.4883ZM64.9792 99.0208C64.9273 99.3324 65.0311 99.4881 65.2907 99.4881H81.1016C81.4132 99.4881 81.517 99.3324 81.4132 99.0208L73.3909 72.9289C73.339 72.7212 73.2611 72.6174 73.1572 72.6174C73.0534 72.6174 72.9755 72.7212 72.9236 72.9289L64.9792 99.0208ZM118.521 75.5771C121.792 75.5771 124.674 76.1482 127.166 77.2906C129.659 78.4329 131.58 80.0166 132.93 82.0416C134.28 84.0147 134.955 86.2734 134.955 88.8177V115.065C134.955 115.325 134.851 115.559 134.644 115.766C134.488 115.922 134.28 116 134.02 116H126.855C126.595 116 126.362 115.922 126.154 115.766C125.998 115.559 125.92 115.325 125.92 115.065V112.573C125.92 112.417 125.868 112.339 125.764 112.339C125.661 112.287 125.557 112.313 125.453 112.417C122.909 115.221 119.222 116.623 114.393 116.623C110.499 116.623 107.279 115.637 104.735 113.663C102.243 111.69 100.997 108.757 100.997 104.862C100.997 100.812 102.399 97.6708 105.203 95.438C108.058 93.1534 112.057 92.0111 117.197 92.0111H125.531C125.79 92.0111 125.92 91.8812 125.92 91.6216V89.7524C125.92 87.7273 125.323 86.1696 124.129 85.0792C122.935 83.9369 121.143 83.3657 118.755 83.3657C116.782 83.3657 115.172 83.7292 113.926 84.4561C112.732 85.1311 111.979 86.0917 111.667 87.3379C111.511 87.961 111.148 88.2206 110.577 88.1167L103.022 87.1821C102.762 87.1302 102.528 87.0523 102.321 86.9485C102.165 86.7927 102.113 86.6109 102.165 86.4033C102.58 83.2359 104.268 80.6397 107.228 78.6146C110.239 76.5896 114.004 75.5771 118.521 75.5771ZM116.652 109.458C119.196 109.458 121.377 108.783 123.194 107.433C125.012 106.082 125.92 104.369 125.92 102.292V98.6314C125.92 98.3718 125.79 98.242 125.531 98.242H118.988C116.236 98.242 114.056 98.7612 112.446 99.7997C110.888 100.838 110.109 102.318 110.109 104.239C110.109 105.901 110.706 107.199 111.901 108.133C113.147 109.016 114.731 109.458 116.652 109.458Z" fill="black" fill-opacity="0.9"/>
</svg>
