<svg width="188" height="94" viewBox="0 0 188 94" fill="none" xmlns="http://www.w3.org/2000/svg">
<rect width="188" height="94" rx="24" fill="white"/>
<mask id="mask0_158_1156" style="mask-type:luminance" maskUnits="userSpaceOnUse" x="39" y="9" width="109" height="76">
<path d="M39.5092 9.00732H148V84.9927H39.5092V9.00732Z" fill="#00A1E0"/>
</mask>
<g mask="url(#mask0_158_1156)">
<path fill-rule="evenodd" clip-rule="evenodd" d="M84.5568 17.3254C88.0588 13.6701 92.9329 11.4066 98.3176 11.4066C105.497 11.4066 111.719 15.4058 115.07 21.3647C118.044 20.0316 121.265 19.3434 124.523 19.345C137.446 19.345 147.936 29.943 147.936 43.0205C147.936 56.098 137.446 66.6959 124.523 66.6959C122.943 66.6959 121.404 66.5368 119.896 66.236C116.964 71.475 111.36 75.0343 104.979 75.0343C102.38 75.0395 99.8154 74.4485 97.48 73.3067C94.5085 80.3053 87.5882 85.2244 79.5311 85.2244C71.1151 85.2244 63.9755 79.9054 61.2233 72.4268C59.9984 72.686 58.7498 72.8163 57.4979 72.8156C47.4865 72.8156 39.3895 64.5772 39.3895 54.4591C39.3895 47.6604 43.0351 41.7415 48.4437 38.5422C47.2963 35.8919 46.7057 33.033 46.7087 30.1438C46.7087 18.466 56.1617 9.02783 67.8085 9.02783C74.6291 9.02783 80.7317 12.2872 84.5608 17.3462" fill="#00A1E0"/>
</g>
<path fill-rule="evenodd" clip-rule="evenodd" d="M55.2004 48.5198C55.1322 48.6982 55.2248 48.7354 55.2467 48.767C55.4505 48.9149 55.6575 49.0221 55.865 49.1425C56.9738 49.7304 58.0188 49.9024 59.1117 49.9024C61.3374 49.9024 62.7214 48.7146 62.7214 46.803V46.7654C62.7214 44.9977 61.1579 44.3538 59.698 43.8939L59.507 43.8319C58.4021 43.4728 57.4488 43.1601 57.4488 42.4322V42.395C57.4488 41.7711 58.0073 41.3112 58.8688 41.3112C59.8261 41.3112 60.9668 41.6307 61.6967 42.0351C61.6967 42.0351 61.9129 42.175 61.9915 41.9659C62.0342 41.8527 62.4063 40.8541 62.4462 40.7421C62.4885 40.6249 62.4143 40.5366 62.3381 40.491C61.5005 39.9791 60.3438 39.6311 59.1472 39.6311L58.925 39.6319C56.8868 39.6319 55.4629 40.8677 55.4629 42.6354V42.6733C55.4629 44.537 57.0344 45.1449 58.5022 45.5648L58.7384 45.6384C59.8073 45.9679 60.7327 46.2543 60.7327 47.0061V47.0437C60.7327 47.7356 60.1304 48.2515 59.1652 48.2515C58.7898 48.2515 57.5936 48.2451 56.2973 47.4236C56.1406 47.332 56.0512 47.2661 55.9304 47.1921C55.8666 47.1533 55.707 47.0833 55.6376 47.2929L55.1989 48.5166M87.786 48.5166C87.7178 48.695 87.8103 48.7322 87.8331 48.7638C88.0361 48.9117 88.2439 49.0189 88.4513 49.1393C89.5601 49.7272 90.6052 49.8992 91.698 49.8992C93.9237 49.8992 95.3078 48.7114 95.3078 46.7998V46.7622C95.3078 44.9945 93.7482 44.3506 92.2844 43.8907L92.0933 43.8287C90.9885 43.4696 90.0352 43.1569 90.0352 42.429V42.3918C90.0352 41.7679 90.5936 41.308 91.4551 41.308C92.4124 41.308 93.5492 41.6275 94.2831 42.0319C94.2831 42.0319 94.4993 42.1718 94.5782 41.9627C94.6205 41.8495 94.9931 40.8509 95.029 40.7389C95.0716 40.6217 94.997 40.5334 94.9213 40.4878C94.0836 39.9759 92.9269 39.6279 91.7304 39.6279L91.5078 39.6287C89.4696 39.6287 88.0457 40.8645 88.0457 42.6322V42.6701C88.0457 44.5338 89.6172 45.1417 91.085 45.5616L91.3207 45.6352C92.3937 45.9647 93.315 46.2511 93.315 47.0029V47.0405C93.315 47.7324 92.7128 48.2483 91.7475 48.2483C91.3714 48.2483 90.172 48.2419 88.8797 47.4204C88.7229 47.3288 88.6312 47.2657 88.5123 47.1889C88.472 47.1633 88.2842 47.0897 88.22 47.2897L87.7812 48.5134M110.038 44.7701C110.038 45.8499 109.837 46.7018 109.443 47.3057C109.051 47.9015 108.458 48.1935 107.633 48.1935C106.807 48.1935 106.217 47.9039 105.83 47.3097C105.44 46.7098 105.243 45.8539 105.243 44.7741C105.243 43.6943 105.441 42.8465 105.83 42.2506C106.216 41.6587 106.803 41.3748 107.633 41.3748C108.462 41.3748 109.053 41.6615 109.443 42.2506C109.839 42.8465 110.038 43.6943 110.038 44.7741M111.896 42.7705C111.713 42.1506 111.43 41.6067 111.051 41.1508C110.672 40.6949 110.193 40.327 109.623 40.063C109.057 39.7971 108.386 39.6631 107.629 39.6631C106.871 39.6631 106.205 39.7979 105.634 40.063C105.068 40.3286 104.585 40.6949 104.206 41.1508C103.828 41.6067 103.544 42.1506 103.361 42.7705C103.179 43.3864 103.087 44.0583 103.087 44.7741C103.087 45.49 103.179 46.1619 103.361 46.7778C103.543 47.3976 103.827 47.9415 104.206 48.3974C104.586 48.8534 105.068 49.2173 105.634 49.4772C106.205 49.7364 106.875 49.8684 107.629 49.8684C108.383 49.8684 109.053 49.7364 109.619 49.4772C110.185 49.2181 110.668 48.8534 111.047 48.3974C111.425 47.9415 111.709 47.3976 111.893 46.7778C112.074 46.1619 112.166 45.49 112.166 44.7741C112.166 44.0623 112.074 43.3864 111.893 42.7705M127.169 47.8895C127.108 47.7084 126.932 47.7768 126.932 47.7768C126.662 47.8803 126.373 47.9763 126.066 48.0243C125.757 48.0731 125.412 48.0975 125.049 48.0975C124.152 48.0975 123.434 47.8292 122.923 47.2977C122.409 46.7658 122.121 45.9099 122.125 44.7501C122.128 43.6943 122.383 42.9025 122.839 42.2946C123.29 41.6947 123.984 41.3828 124.901 41.3828C125.667 41.3828 126.254 41.472 126.868 41.6647C126.868 41.6647 127.013 41.7283 127.083 41.536C127.246 41.084 127.367 40.7601 127.542 40.2642C127.591 40.1222 127.47 40.0622 127.426 40.045C127.185 39.9507 126.616 39.7959 126.185 39.7307C125.783 39.6691 125.316 39.6371 124.789 39.6371C124.008 39.6371 123.314 39.7711 122.719 40.0366C122.125 40.3018 121.622 40.6685 121.224 41.1244C120.825 41.5804 120.522 42.1242 120.318 42.7441C120.117 43.36 120.015 44.0359 120.015 44.7517C120.015 46.2954 120.43 47.5472 121.251 48.463C122.073 49.3829 123.31 49.8468 124.921 49.8468C125.874 49.8468 126.851 49.6536 127.553 49.3749C127.553 49.3749 127.687 49.3101 127.629 49.1533L127.171 47.8895M130.421 43.7303C130.51 43.1305 130.674 42.6306 130.932 42.2426C131.318 41.6507 131.905 41.3268 132.731 41.3268C133.556 41.3268 134.103 41.6523 134.494 42.2426C134.753 42.6325 134.866 43.1505 134.909 43.7303L130.401 43.7295L130.421 43.7303ZM136.683 42.4106C136.525 41.8147 136.133 41.2108 135.878 40.9349C135.471 40.499 135.076 40.191 134.681 40.0231C134.111 39.78 133.498 39.6552 132.878 39.6563C132.093 39.6563 131.379 39.7895 130.8 40.0602C130.222 40.333 129.735 40.7041 129.352 41.168C128.97 41.6319 128.682 42.1798 128.499 42.8077C128.315 43.4276 128.223 44.1075 128.223 44.8193C128.223 45.5472 128.319 46.2231 128.508 46.8349C128.699 47.4508 129.007 47.9907 129.421 48.4386C129.836 48.8905 130.367 49.2425 131.005 49.4904C131.639 49.7364 132.409 49.864 133.29 49.8612C135.109 49.8552 136.066 49.4492 136.457 49.2293C136.527 49.1901 136.593 49.1225 136.511 48.9277L136.1 47.772C136.037 47.5996 135.863 47.662 135.863 47.662C135.412 47.8308 134.774 48.1339 133.278 48.1299C132.301 48.1283 131.579 47.8391 131.125 47.386C130.662 46.9221 130.43 46.2463 130.395 45.2864L136.697 45.2912C136.697 45.2912 136.863 45.2896 136.88 45.1273C136.886 45.0601 137.095 43.8315 136.692 42.4118L136.683 42.4106ZM80.0449 43.7303C80.1338 43.1305 80.2981 42.6306 80.5554 42.2426C80.9415 41.6507 81.5286 41.3268 82.3543 41.3268C83.1799 41.3268 83.7264 41.6523 84.1172 42.2426C84.3761 42.6325 84.4894 43.1505 84.5321 43.7303L80.0249 43.7295L80.0449 43.7303ZM86.307 42.4106C86.1491 41.8147 85.7566 41.2108 85.5013 40.9349C85.0945 40.499 84.6996 40.191 84.3047 40.0231C83.7346 39.78 83.1213 39.6552 82.5019 39.6563C81.7161 39.6563 81.0021 39.7895 80.4238 40.0602C79.8454 40.333 79.3588 40.7041 78.9759 41.168C78.5942 41.6319 78.3058 42.1798 78.1223 42.8077C77.9393 43.4276 77.8471 44.1075 77.8471 44.8193C77.8471 45.5472 77.9424 46.2231 78.1327 46.8349C78.3234 47.4508 78.6313 47.9907 79.0421 48.4386C79.4569 48.8905 79.9874 49.2425 80.6256 49.4904C81.2598 49.7364 82.0256 49.864 82.9111 49.8612C84.7299 49.8552 85.6872 49.4492 86.0781 49.2293C86.1475 49.1901 86.2137 49.1225 86.1311 48.9277L85.7203 47.772C85.6569 47.5996 85.483 47.662 85.483 47.662C85.0322 47.8308 84.3941 48.1339 82.8983 48.1299C81.9251 48.1283 81.1992 47.8391 80.7445 47.386C80.2818 46.9221 80.0504 46.2463 80.0145 45.2864L86.3166 45.2912C86.3166 45.2912 86.4825 45.2896 86.4997 45.1273C86.5064 45.0601 86.7154 43.8315 86.3114 42.4118L86.307 42.4106ZM66.4436 47.8495C66.1967 47.652 66.1624 47.6036 66.0806 47.4752C65.9558 47.2821 65.892 47.0073 65.892 46.6554C65.892 46.1035 66.0755 45.7036 66.4544 45.4356C66.4504 45.4364 66.9968 44.9637 68.2812 44.9797C68.8528 44.99 69.4232 45.0387 69.9883 45.1257V47.9931H69.9891C69.9891 47.9931 69.1914 48.1655 68.29 48.2199C67.0096 48.2971 66.4432 47.8503 66.4472 47.8515L66.4436 47.8495ZM68.9485 43.4104C68.6932 43.3916 68.3621 43.3824 67.9673 43.3824C67.4288 43.3824 66.9063 43.4496 66.4197 43.5816C65.9291 43.7143 65.4863 43.9199 65.1074 44.1935C64.7275 44.4652 64.4149 44.821 64.194 45.2333C63.9711 45.6492 63.8574 46.1371 63.8574 46.689C63.8574 47.2489 63.9543 47.7328 64.1458 48.1287C64.3334 48.5214 64.6158 48.8609 64.9674 49.1165C65.3172 49.3717 65.7492 49.5604 66.2478 49.6724C66.7424 49.7856 67.3008 49.8428 67.915 49.8428C68.5612 49.8428 69.2033 49.7884 69.8256 49.6832C70.3555 49.5915 70.8835 49.4886 71.4091 49.3745C71.6189 49.3261 71.8518 49.2625 71.8518 49.2625C72.0074 49.2229 71.9954 49.0561 71.9954 49.0561L71.9918 43.2972C71.9918 42.0335 71.6552 41.0936 70.9907 40.5138C70.3285 39.9339 69.3593 39.6419 68.1029 39.6419C67.6322 39.6419 66.8704 39.7059 66.4157 39.7975C66.4157 39.7975 65.0436 40.0646 64.4772 40.5094C64.4772 40.5094 64.3528 40.5861 64.4206 40.7601L64.8673 41.9599C64.9227 42.1155 65.0739 42.0623 65.0739 42.0623C65.0739 42.0623 65.1214 42.0435 65.1772 42.0103C66.3858 41.3504 67.9174 41.3704 67.9174 41.3704C68.5955 41.3704 69.122 41.5084 69.473 41.7783C69.8164 42.0427 69.9915 42.4422 69.9915 43.282V43.5488C69.453 43.4704 68.9545 43.4252 68.9545 43.4252L68.9485 43.4104ZM119.604 40.159C119.613 40.1379 119.618 40.1152 119.618 40.0923C119.618 40.0693 119.614 40.0465 119.605 40.0253C119.596 40.0041 119.583 39.985 119.567 39.9689C119.55 39.9528 119.531 39.9402 119.51 39.9319C119.402 39.8911 118.867 39.7779 118.457 39.7523C117.667 39.7027 117.228 39.8363 116.833 40.0139C116.443 40.1902 116.012 40.4738 115.772 40.8017L115.771 40.0339C115.771 39.9283 115.697 39.8431 115.591 39.8431H113.979C113.875 39.8431 113.799 39.9283 113.799 40.0339V49.432C113.799 49.4828 113.819 49.5315 113.855 49.5674C113.891 49.6033 113.939 49.6235 113.99 49.6236H115.641C115.692 49.6235 115.741 49.6033 115.776 49.5674C115.812 49.5314 115.832 49.4828 115.832 49.432V44.713C115.832 44.0811 115.901 43.4532 116.04 43.0573C116.176 42.6657 116.362 42.3534 116.59 42.1294C116.808 41.9131 117.075 41.7526 117.368 41.6615C117.643 41.5824 117.928 41.5423 118.214 41.5424C118.543 41.5424 118.904 41.6271 118.904 41.6271C119.025 41.6407 119.092 41.5664 119.133 41.4568C119.242 41.1684 119.548 40.305 119.608 40.133" fill="#FFFFFE"/>
<path fill-rule="evenodd" clip-rule="evenodd" d="M104.181 35.8216C103.977 35.7597 103.77 35.7103 103.559 35.6736C103.277 35.6263 102.991 35.6041 102.704 35.6072C101.566 35.6072 100.669 35.9296 100.039 36.5662C99.4141 37.1981 98.9885 38.1607 98.7751 39.4273L98.6981 39.8548H97.2698C97.2698 39.8548 97.0955 39.8476 97.0588 40.0384L96.8242 41.3501C96.8079 41.4757 96.8617 41.5541 97.0293 41.5533H98.4197L97.0089 49.449C96.8984 50.0848 96.772 50.6079 96.632 51.0043C96.494 51.3954 96.3592 51.6885 96.1932 51.9013C96.0325 52.1073 95.8801 52.2588 95.6173 52.3472C95.4003 52.4204 95.1506 52.454 94.877 52.454C94.7246 52.454 94.522 52.4284 94.3724 52.3984C94.2228 52.3688 94.1451 52.3352 94.033 52.288C94.033 52.288 93.8699 52.2256 93.8056 52.3896C93.7534 52.5236 93.3828 53.5454 93.339 53.6717C93.2943 53.7965 93.3569 53.8949 93.4359 53.9233C93.621 53.9897 93.7586 54.0321 94.0107 54.0917C94.3609 54.1745 94.656 54.1797 94.9324 54.1797C95.5116 54.1797 96.0393 54.0981 96.4768 53.9397C96.9172 53.7801 97.3005 53.5022 97.6395 53.1259C98.0061 52.7199 98.2366 52.2948 98.4572 51.7149C98.6754 51.1402 98.8612 50.4268 99.01 49.5953L100.428 41.5533H102.5C102.5 41.5533 102.675 41.5597 102.711 41.3697L102.946 40.058C102.962 39.9324 102.908 39.854 102.74 39.8548H100.729C100.739 39.8092 100.83 39.0997 101.061 38.4319C101.159 38.1467 101.345 37.9168 101.502 37.7588C101.649 37.6084 101.83 37.4956 102.029 37.4301C102.248 37.3623 102.475 37.3294 102.704 37.3325C102.894 37.3325 103.08 37.3553 103.221 37.3849C103.416 37.4265 103.492 37.4485 103.543 37.4637C103.748 37.5265 103.776 37.4657 103.816 37.3661L104.297 36.0415C104.346 35.8992 104.226 35.8392 104.181 35.8216ZM76.0718 49.4658C76.0718 49.5713 75.9968 49.6573 75.8915 49.6573H74.223C74.1173 49.6573 74.0424 49.5713 74.0424 49.4658V36.0011C74.0424 35.896 74.1173 35.8108 74.223 35.8108H75.8915C75.9968 35.8108 76.0718 35.896 76.0718 36.0011V49.4658Z" fill="#FFFFFE"/>
</svg>
