<svg width="188" height="94" viewBox="0 0 188 94" fill="none" xmlns="http://www.w3.org/2000/svg">
<rect width="188" height="94" rx="24" fill="white"/>
<path d="M126.366 51.7593C126.868 51.7731 127.368 51.6882 127.837 51.5097C128.305 51.3311 128.733 51.0625 129.096 50.7192L130.449 52.1721C129.555 53.0795 128.316 53.7543 126.389 53.7543C123.087 53.7543 120.954 51.5925 120.954 48.664C120.941 47.9931 121.065 47.3266 121.319 46.7039C121.572 46.0813 121.95 45.5152 122.429 45.0392C122.908 44.5632 123.479 44.1871 124.108 43.933C124.737 43.6789 125.411 43.5522 126.091 43.5602C129.37 43.5602 131.23 46.0248 131.067 49.441H123.313C123.589 50.8587 124.596 51.7661 126.363 51.7661M128.726 47.8123C128.514 46.4853 127.715 45.5098 126.11 45.5098C124.62 45.5098 123.581 46.3423 123.313 47.8123H128.726ZM75.4597 51.6538L81.4273 45.6686H75.6033V43.7791H84.1957V45.7072L78.2281 51.6901H84.2749V53.5695H75.462L75.4597 51.6538ZM90.9731 51.7604C91.4752 51.7742 91.975 51.6894 92.4435 51.5108C92.9121 51.3323 93.34 51.0636 93.7025 50.7204L95.058 52.1721C94.1643 53.0795 92.9248 53.7543 90.9984 53.7543C87.6958 53.7543 85.5627 51.5925 85.5627 48.664C85.5503 47.9931 85.6745 47.3266 85.9279 46.7039C86.1813 46.0813 86.5587 45.5152 87.0377 45.0392C87.5168 44.5632 88.0878 44.1871 88.7168 43.933C89.3459 43.6789 90.0201 43.5522 90.6997 43.5602C93.9793 43.5602 95.8391 46.0248 95.676 49.441H87.9221C88.1978 50.8587 89.2052 51.7661 90.972 51.7661M93.3349 47.8123C93.1247 46.4853 92.324 45.5098 90.7193 45.5098C89.2294 45.5098 88.1898 46.3423 87.9221 47.8123H93.3349ZM108.558 48.6516C108.558 45.5303 110.924 43.5647 113.532 43.5647C114.157 43.5564 114.777 43.6835 115.348 43.9371C115.918 44.1906 116.426 44.5645 116.834 45.0323V39.2649H118.942V53.5558H116.834V52.1948C116.433 52.6818 115.926 53.0734 115.351 53.3408C114.776 53.6082 114.148 53.7445 113.512 53.7396C110.983 53.7396 108.559 51.7661 108.559 48.655M116.953 48.6368C116.878 45.8921 113.506 44.5877 111.554 46.5544C109.601 48.5211 111.025 51.8262 113.809 51.8251C115.619 51.8251 116.951 50.396 116.951 48.6493M132.44 51.4848L134.349 50.5071C134.863 51.4145 135.842 51.9623 136.895 51.9362C138.09 51.9362 138.706 51.3305 138.706 50.6455C138.706 49.8516 137.553 49.686 136.299 49.4319C134.613 49.0916 132.858 48.5302 132.858 46.517C132.858 44.9711 134.348 43.5431 136.694 43.5636C138.532 43.5636 139.918 44.2894 140.699 45.4599L138.93 46.4195C138.685 46.0618 138.352 45.7717 137.962 45.5764C137.572 45.3812 137.138 45.2872 136.701 45.3034C135.568 45.3034 134.978 45.8512 134.978 46.4773C134.978 47.1805 135.893 47.3767 137.326 47.6909C138.957 48.0312 140.807 48.571 140.807 50.6058C140.807 51.9668 139.612 53.7736 136.79 53.7543C134.722 53.7543 133.27 52.932 132.433 51.4859M146.53 49.2175L144.858 51.0175V53.5581H142.751V39.2672H144.858V48.6175L149.334 43.7666H151.901L148.021 47.9631L152 53.557H149.614L146.53 49.2175ZM102.175 43.5806C99.6689 43.5806 97.5806 45.1855 97.5806 47.8452V53.5581H99.7287V48.089C99.7287 46.4841 100.663 45.5257 102.258 45.5257C103.854 45.5257 104.647 46.4853 104.647 48.089V53.5377H106.784V47.8247C106.784 45.165 104.676 43.5602 102.189 43.5602M51.433 40.6033V59H36L51.433 40.6033ZM51.433 34C51.4334 36.021 50.6207 37.9595 49.1737 39.389C47.7268 40.8185 45.764 41.622 43.7171 41.6229C41.6702 41.622 39.7074 40.8185 38.2605 39.389C36.8135 37.9595 36.0008 36.021 36.0011 34H51.433ZM53.9752 58.9977C53.9761 56.9775 54.7893 55.0402 56.2361 53.6117C57.6829 52.1832 59.645 51.3802 61.6911 51.3793C63.7372 51.3802 65.6993 52.1832 67.1461 53.6117C68.5929 55.0402 69.4062 56.9775 69.4071 58.9977H53.9752ZM53.9752 52.3944V34.0023H69.4082L53.9752 52.3944Z" fill="#03363D"/>
</svg>
