<svg width="188" height="94" viewBox="0 0 188 94" fill="none" xmlns="http://www.w3.org/2000/svg">
<rect width="188" height="94" rx="24" fill="white"/>
<path d="M121.201 59.077C115.246 59.077 112.059 55.3029 112.059 49.5159C112.059 44.2321 115.666 40.1226 121.117 40.1226C124.64 40.1226 127.575 41.7999 129.001 45.0708L126.065 46.3289C125.311 44.316 123.465 42.8902 121.285 42.8902C117.427 42.8902 115.833 46.245 115.833 49.6836C115.833 53.1223 117.511 56.1416 121.369 56.1416C123.801 56.1416 125.562 54.7158 126.401 52.4513L129.252 53.7094C128.414 56.3093 126.317 57.9867 123.885 58.6576C122.878 58.9931 122.04 59.077 121.201 59.077Z" fill="black"/>
<path d="M135.207 51.4449V58.8254H131.685V40.458H138.31C142.001 40.458 145.188 41.7999 145.188 45.9934C145.188 48.5933 143.678 50.2707 141.162 50.9417L146.278 58.8254H142.504L137.723 51.4449H135.207ZM135.207 49.0127H138.143C140.239 49.0127 141.665 48.2578 141.665 45.9934C141.665 43.7289 140.072 43.2257 138.143 43.2257H135.207V49.0127Z" fill="black"/>
<path d="M151.813 44.8192V58.8254H148.626V40.458H153.155L158.439 53.8771L163.639 40.458H168V58.8254H164.729V44.8192L158.942 58.8254H157.349L151.813 44.8192Z" fill="black"/>
<path d="M101.995 38.8647V58.4063L99.3112 61.0901V41.884L101.995 38.8647Z" fill="#D57928"/>
<path d="M99.3112 41.8838H81.3632V61.0898H99.3112V41.8838Z" fill="url(#paint0_linear_158_1133)"/>
<path d="M84.2147 38.8647L81.3632 41.884H99.3112L101.995 38.8647H84.2147Z" fill="#FDD600"/>
<path d="M61.9894 39.7032L79.6019 37.271L78.1762 41.4645L60.7314 43.8128L61.9894 39.7032Z" fill="#90C7EA"/>
<path d="M78.1762 41.4644L80.6084 58.6575L63.1636 61.0897L60.7314 43.8127L78.1762 41.4644Z" fill="url(#paint1_linear_158_1133)"/>
<path d="M78.1761 41.4645L80.6084 58.6576L81.9503 54.9674L79.6019 37.3549V37.271" fill="#0798D5"/>
<path d="M47.0607 38.1938L62.6604 45.2389L55.6153 61.2579L40.0157 54.2129L47.0607 38.1938Z" fill="url(#paint2_linear_158_1133)"/>
<path d="M45.4672 32.7422L47.0607 38.1937L62.6603 45.2387L61.4023 40.0388L45.4672 32.7422Z" fill="#95CE9F"/>
<path d="M45.4672 32.7422L39.177 47.6709L40.0157 54.2127L47.0607 38.1937L45.4672 32.7422Z" fill="#69BE6C"/>
<path d="M36.7448 41.4644L39.3447 58.3221L22.0677 61.0897L19.3 44.1482L36.7448 41.4644Z" fill="url(#paint3_linear_158_1133)"/>
<path d="M37.9189 35.2583L40.5189 52.3676L39.3447 58.3223L36.7448 41.4646L37.9189 35.2583Z" fill="#761116"/>
<path d="M96.5435 48.8453C96.208 47.9227 95.7048 47.1679 94.95 46.4131C94.279 45.7421 93.5242 45.2389 92.6855 44.9034C91.8468 44.5679 91.0081 44.4002 90.0017 44.4002C88.9953 44.4002 88.1566 44.5679 87.3179 44.9034C86.4792 45.2389 85.7244 45.7421 85.0534 46.4131C84.3825 47.084 83.7954 47.9227 83.4599 48.7614C83.1244 49.684 82.9567 50.6065 82.9567 51.6968C82.9567 52.7033 83.1244 53.7097 83.4599 54.6322C83.7954 55.5548 84.2986 56.3096 85.0534 57.0644C85.7244 57.7354 86.3953 58.2386 87.234 58.5741C88.0727 58.9096 88.9953 59.0773 89.9178 59.0773C90.8404 59.0773 91.763 58.9096 92.6016 58.5741C93.4403 58.2386 94.1952 57.7354 94.8661 57.0644C95.5371 56.3935 96.1242 55.5548 96.4596 54.6322C96.7951 53.7097 96.9628 52.7871 96.9628 51.6968C97.1306 50.6904 96.9628 49.684 96.5435 48.8453ZM92.8532 55.1355C92.1823 55.9742 91.2597 56.3935 90.0856 56.3935C88.9114 56.3935 87.9888 55.9742 87.234 55.1355C86.5631 54.2968 86.2276 53.2065 86.2276 51.6968C86.2276 50.1872 86.5631 49.0969 87.234 48.2582C87.905 47.4195 88.8275 47.0002 90.0856 47.0002C91.2597 47.0002 92.1823 47.4195 92.8532 48.2582C93.5242 49.0969 93.8597 50.271 93.8597 51.6968C93.9436 53.2065 93.6081 54.2968 92.8532 55.1355ZM34.8997 55.6387C34.7319 55.4709 34.5642 55.3871 34.3965 55.3032C34.1449 55.2193 33.8932 55.2193 33.5578 55.2193C33.2223 55.2193 32.8868 55.2193 32.4675 55.3032L27.9385 56.058C28.0224 55.7225 28.1901 55.2193 28.4417 54.7161C28.7772 54.0452 29.2804 53.2903 29.9514 52.4516C30.203 52.1162 30.3707 51.9484 30.4546 51.7807C30.5385 51.6968 30.6223 51.5291 30.7901 51.2775C31.7965 49.9356 32.4675 48.7614 32.7191 47.9227C32.8868 47.4195 32.9707 46.9163 32.9707 46.4131C32.9707 46.2453 32.9707 46.1615 32.9707 45.9937C32.9707 45.6582 32.9707 45.2389 32.8868 44.9034C32.8029 44.5679 32.7191 44.3163 32.6352 44.1486C32.5513 43.897 32.3836 43.8131 32.2159 43.6454C32.0481 43.5615 31.7965 43.4776 31.461 43.4776C31.2094 43.4776 30.874 43.4776 30.4546 43.5615L25.2547 44.4841C24.5838 44.5679 24.1644 44.8196 23.8289 45.0712C23.5773 45.3228 23.4935 45.5744 23.4935 45.9099C23.4935 45.9937 23.4935 46.0776 23.4935 46.1615C23.5773 46.5808 23.8289 46.9163 24.1644 47.084C24.416 47.1679 24.6676 47.2518 25.0031 47.2518C25.2547 47.2518 25.4225 47.2518 25.6741 47.1679L30.1191 46.4131C30.1191 46.4969 30.1191 46.5808 30.1191 46.6647C30.1191 46.9163 30.0353 47.1679 29.9514 47.5034C29.7837 47.8388 29.532 48.4259 28.945 49.013C28.7772 49.1808 28.6095 49.5162 28.274 49.8517C27.0998 51.2775 26.2612 52.5355 25.7579 53.5419C25.4225 54.2129 25.1709 54.9677 25.0031 55.6387C24.9192 56.058 24.9192 56.3935 24.9192 56.8128C24.9192 57.0645 24.9192 57.3161 25.0031 57.5677C25.087 57.9031 25.1709 58.2386 25.2547 58.4064C25.3386 58.658 25.5063 58.8257 25.6741 58.9096C25.8418 58.9934 26.0934 59.0773 26.4289 59.0773C26.8482 59.0773 27.4353 58.9934 28.1901 58.9096L32.9707 58.0709C33.8094 57.9031 34.3965 57.7354 34.7319 57.4838C34.9835 57.2322 35.1513 56.9806 35.1513 56.5612C35.1513 56.4774 35.1513 56.3935 35.1513 56.3096C35.1513 56.058 35.0674 55.8064 34.8997 55.6387ZM56.5379 44.2325C55.9508 43.5615 55.196 43.0583 54.2734 42.7228C53.4348 42.3873 52.5122 42.1357 51.6735 42.1357C50.7509 42.1357 49.9123 42.3035 48.9897 42.7228C48.0671 43.1422 47.3123 43.6454 46.6414 44.4002C45.9704 45.155 45.3833 45.9937 44.964 47.0002C44.5446 48.0066 44.293 49.013 44.293 49.9356C44.293 50.0194 44.293 50.1872 44.293 50.271C44.293 51.1097 44.4608 52.0323 44.7124 52.871C45.0478 53.7936 45.4672 54.5484 46.1381 55.1355C46.7252 55.8064 47.48 56.3096 48.4026 56.6451C49.2413 56.9806 50.1639 57.2322 51.0025 57.2322C51.9251 57.2322 52.7638 57.0644 53.6864 56.6451C54.6089 56.2258 55.4476 55.6387 56.1186 54.9677C56.7895 54.2129 57.3766 53.3742 57.796 52.3678C58.2153 51.3613 58.4669 50.3549 58.4669 49.4324C58.4669 49.3485 58.4669 49.2646 58.4669 49.1808C58.4669 48.2582 58.2992 47.4195 57.9637 46.5808C57.6282 45.6582 57.2089 44.9034 56.5379 44.2325ZM54.8605 51.1936C54.2734 52.6194 53.5186 53.5419 52.5122 54.0452C52.009 54.2968 51.5058 54.4645 50.9187 54.4645C50.4155 54.4645 49.9961 54.3806 49.409 54.129C48.3187 53.6258 47.6478 52.9549 47.3123 51.8646C47.2284 51.5291 47.1446 51.1097 47.1446 50.7743C47.1446 50.0194 47.3123 49.1808 47.7317 48.2582C48.3187 46.8324 49.1574 45.9099 50.08 45.3228C50.5832 45.0712 51.0864 44.9034 51.6735 44.9034C52.1767 44.9034 52.6799 44.9873 53.1831 45.2389C54.2734 45.7421 54.9444 46.4131 55.196 47.5034C55.2799 47.8388 55.3637 48.1743 55.3637 48.5937C55.4476 49.3485 55.2799 50.271 54.8605 51.1936ZM75.1569 44.7357C75.073 44.2325 74.9053 43.8131 74.5698 43.5615C74.3182 43.3099 74.0666 43.226 73.7311 43.226C73.6472 43.226 73.5634 43.226 73.4795 43.226C73.0601 43.3099 72.6408 43.4776 72.4731 43.8131C72.3053 44.0647 72.2214 44.4002 72.2214 44.7357C72.2214 44.9034 72.2214 44.9873 72.2214 45.155L72.8924 49.6001L67.9441 50.3549L67.2732 45.9099C67.1893 45.4066 67.0216 44.9873 66.6861 44.7357C66.4345 44.4841 66.1829 44.4002 65.8474 44.4002C65.7635 44.4002 65.6796 44.4002 65.5958 44.4002C65.0926 44.4841 64.7571 44.6518 64.5894 44.9873C64.4216 45.2389 64.3377 45.5744 64.3377 45.9099C64.3377 46.0776 64.3377 46.1615 64.3377 46.3292L66.0151 57.987C66.099 58.4902 66.2667 58.9096 66.6022 59.1612C66.8538 59.3289 67.1054 59.4967 67.5248 59.4967C67.6086 59.4967 67.6925 59.4967 67.7764 59.4967C68.1957 59.4128 68.5312 59.245 68.6989 58.9096C68.8667 58.658 68.9505 58.4064 68.9505 58.0709C68.9505 57.9031 68.9505 57.8193 68.9505 57.6515L68.2796 53.0387L73.3117 52.2839L73.9827 56.8967C74.0666 57.3999 74.2343 57.8193 74.5698 58.0709C74.8214 58.3225 75.073 58.4064 75.4085 58.4064C75.4923 58.4064 75.5762 58.4064 75.6601 58.4064C76.0794 58.3225 76.4149 58.1548 76.6665 57.8193C76.8342 57.5677 76.9181 57.3161 76.9181 56.8967C76.9181 56.729 76.9181 56.6451 76.9181 56.4774L75.1569 44.7357Z" fill="white"/>
<path d="M19.3 44.1484L19.6355 42.3872L20.4742 38.026L37.9189 35.2583L36.7448 41.4646L19.3 44.1484Z" fill="#ED463E"/>
<defs>
<linearGradient id="paint0_linear_158_1133" x1="81.1999" y1="41.4264" x2="98.9866" y2="61.0219" gradientUnits="userSpaceOnUse">
<stop offset="0.005618" stop-color="#F9C517"/>
<stop offset="1" stop-color="#E78E24"/>
</linearGradient>
<linearGradient id="paint1_linear_158_1133" x1="61.374" y1="43.8169" x2="79.7173" y2="58.5471" gradientUnits="userSpaceOnUse">
<stop offset="0.005618" stop-color="#198ACA"/>
<stop offset="1" stop-color="#00649D"/>
</linearGradient>
<linearGradient id="paint2_linear_158_1133" x1="51.3709" y1="44.6161" x2="51.3709" y2="60.6901" gradientUnits="userSpaceOnUse">
<stop stop-color="#239F49"/>
<stop offset="1" stop-color="#008953"/>
</linearGradient>
<linearGradient id="paint3_linear_158_1133" x1="28.0533" y1="43.0434" x2="30.8176" y2="59.7316" gradientUnits="userSpaceOnUse">
<stop stop-color="#D71F31"/>
<stop offset="1" stop-color="#BA2436"/>
</linearGradient>
</defs>
</svg>
