<svg width="32" height="32" viewBox="0 0 32 32" fill="none" xmlns="http://www.w3.org/2000/svg">
<path d="M16.0011 4.24023C12.7421 4.24023 12.3331 4.25375 11.0531 4.30901C9.77556 4.36449 8.90355 4.55634 8.14054 4.83784C7.35128 5.12857 6.68177 5.51748 6.01477 6.15041C5.34727 6.78311 4.93726 7.41817 4.62976 8.16659C4.33225 8.89059 4.12974 9.71797 4.07225 10.9293C4.015 12.1435 4 12.5317 4 15.623C4 18.7144 4.0145 19.1012 4.0725 20.3153C4.13126 21.5271 4.33351 22.3543 4.63 23.0781C4.93676 23.8267 5.34676 24.4618 6.01402 25.0945C6.68078 25.7276 7.35028 26.1175 8.13904 26.4082C8.90254 26.6897 9.77482 26.8816 11.0521 26.9371C12.3321 26.9923 12.7408 27.0058 15.9996 27.0058C19.2589 27.0058 19.6667 26.9923 20.9467 26.9371C22.2242 26.8816 23.0972 26.6897 23.8607 26.4082C24.6497 26.1175 25.3182 25.7276 25.985 25.0945C26.6525 24.4618 27.0625 23.8267 27.37 23.0783C27.665 22.3543 27.8675 21.5269 27.9275 20.3156C27.985 19.1014 28 18.7144 28 15.623C28 12.5316 27.985 12.1437 27.9275 10.9295C27.8675 9.71773 27.665 8.89059 27.37 8.16683C27.0625 7.41817 26.6525 6.7831 25.985 6.15041C25.3175 5.51724 24.65 5.12833 23.86 4.83783C23.0949 4.55634 22.2224 4.36449 20.9449 4.30901C19.6649 4.25375 19.2574 4.24023 15.9974 4.24023H16.0011ZM14.9246 6.29151C15.2441 6.29104 15.6006 6.29151 16.0011 6.29151C19.2052 6.29151 19.5849 6.30242 20.8502 6.35696C22.0202 6.40772 22.6552 6.59315 23.0782 6.74895C23.6382 6.95527 24.0375 7.2019 24.4572 7.60029C24.8772 7.9987 25.1372 8.37812 25.3552 8.90931C25.5195 9.31008 25.7152 9.91242 25.7685 11.0223C25.826 12.2222 25.8385 12.5826 25.8385 15.6204C25.8385 18.6582 25.826 19.0187 25.7685 20.2186C25.715 21.3284 25.5195 21.9308 25.3552 22.3315C25.1377 22.8627 24.8772 23.241 24.4572 23.6391C24.0372 24.0375 23.6384 24.2842 23.0782 24.4905C22.6557 24.647 22.0202 24.832 20.8502 24.8827C19.5852 24.9372 19.2052 24.9491 16.0011 24.9491C12.7968 24.9491 12.4171 24.9372 11.1521 24.8827C9.98207 24.8315 9.34706 24.646 8.9238 24.4902C8.3638 24.2839 7.96378 24.0373 7.54379 23.6389C7.12378 23.2405 6.86379 22.862 6.64577 22.3306C6.48152 21.9298 6.28577 21.3275 6.23253 20.2177C6.17502 19.0177 6.16352 18.6573 6.16352 15.6176C6.16352 12.5779 6.17502 12.2193 6.23253 11.0194C6.28603 9.90958 6.48152 9.30724 6.64577 8.906C6.86327 8.3748 7.12378 7.99537 7.54379 7.59698C7.96378 7.19857 8.3638 6.95195 8.9238 6.74517C9.34681 6.58865 9.98207 6.40369 11.1521 6.35269C12.2591 6.30526 12.6881 6.29104 14.9246 6.28865L14.9246 6.29151ZM22.4067 8.18153C21.6117 8.18153 20.9667 8.79265 20.9667 9.54698C20.9667 10.3011 21.6117 10.9129 22.4067 10.9129C23.2017 10.9129 23.8467 10.3011 23.8467 9.54698C23.8467 8.79288 23.2017 8.18106 22.4067 8.18106L22.4067 8.18153ZM16.0011 9.77749C12.5978 9.77749 9.83857 12.3948 9.83857 15.623C9.83857 18.8512 12.5978 21.4674 16.0011 21.4674C19.4044 21.4674 22.1627 18.8512 22.1627 15.623C22.1627 12.3948 19.4042 9.77749 16.0009 9.77749H16.0011ZM16.0011 11.8288C18.2101 11.8288 20.0012 13.5274 20.0012 15.623C20.0012 17.7184 18.2101 19.4173 16.0011 19.4173C13.7919 19.4173 12.0011 17.7184 12.0011 15.623C12.0011 13.5274 13.7919 11.8288 16.0011 11.8288Z" fill="black"/>
</svg>
