<svg width="32" height="32" viewBox="0 0 32 32" fill="none" xmlns="http://www.w3.org/2000/svg">
<path fill-rule="evenodd" clip-rule="evenodd" d="M28 27.0058H23.0688V19.0388C23.0688 16.8545 22.1938 15.6338 20.3711 15.6338C18.3883 15.6338 17.3523 16.9041 17.3523 19.0388V27.0058H12.6V11.8288H17.3523V13.8731C17.3523 13.8731 18.7813 11.3651 22.1766 11.3651C25.5703 11.3651 28 13.3309 28 17.3967V27.0058ZM6.93047 9.84145C5.31172 9.84145 4 8.58744 4 7.04084C4 5.49425 5.31172 4.24023 6.93047 4.24023C8.54922 4.24023 9.86016 5.49425 9.86016 7.04084C9.86016 8.58744 8.54922 9.84145 6.93047 9.84145ZM4.47656 27.0058H9.43203V11.8288H4.47656V27.0058Z" fill="black"/>
</svg>
