<svg width="70" height="50" viewBox="0 0 70 50" fill="none" xmlns="http://www.w3.org/2000/svg">
<path d="M19.6658 49.8777C17.8211 49.8777 15.7751 49.3465 13.5391 48.273C11.2919 47.2106 9.14534 45.6392 7.11055 43.5697C5.06459 41.5002 3.3764 38.9549 2.0236 35.9337C0.670807 32.9124 0 29.4264 0 25.4645C0 21.5026 0.670807 18.072 2.0236 15.0286C3.3764 11.9853 5.06459 9.43991 7.11055 7.39257C9.15652 5.34523 11.3031 3.79588 13.5391 2.72241C15.7863 1.66001 17.8323 1.11774 19.6658 1.11774C21.2422 1.11774 22.4944 1.30587 23.4335 1.68214C24.3727 2.05841 25.1888 2.45681 25.8596 2.87735C26.5304 3.29788 27.2236 3.66308 27.9503 3.97295C28.6658 4.28282 29.5938 4.43775 30.7118 4.43775C31.2037 4.43775 31.6062 4.33815 31.9192 4.13895C32.2323 3.93975 32.5006 3.68522 32.7242 3.37535C32.9478 3.06548 33.1155 2.76668 33.2273 2.47894C33.3391 2.19121 33.4174 1.95881 33.4621 1.78174L33.5292 1.44974H33.9317V17.7842H33.5292C33.5292 16.5447 33.2049 15.0175 32.5565 13.2137C31.9081 11.4098 30.9689 9.63911 29.7615 7.8795C28.554 6.1199 27.0894 4.65909 25.3789 3.47495C23.6683 2.30188 21.7677 1.70427 19.6546 1.70427C16.9602 1.70427 14.8025 2.81095 13.1925 5.03536C11.5714 7.25977 10.4087 10.1814 9.69316 13.8002C8.97763 17.419 8.61987 21.3034 8.61987 25.4424C8.61987 29.5814 8.97763 33.5211 9.69316 37.1399C10.4087 40.7587 11.5826 43.6914 13.1925 45.9048C14.8137 48.1292 16.9602 49.2359 19.6546 49.2359C23.5118 49.2359 26.8882 47.1664 29.7615 43.0385C30.9689 41.301 31.9081 39.5303 32.5565 37.7043C33.2049 35.8783 33.5292 34.3511 33.5292 33.1006H33.9317V49.5015H33.5292C33.5292 49.2359 33.2832 48.7268 32.7913 47.9632C32.1652 46.9893 31.349 46.4913 30.3652 46.4913C29.4708 46.4913 28.6658 46.6352 27.9727 46.9229C27.2795 47.2106 26.5528 47.5648 25.8149 47.9853C25.077 48.4058 24.2161 48.8153 23.2546 49.2137C22.2932 49.6121 21.0857 49.8113 19.6546 49.8113L19.6658 49.8777Z" fill="#231F20"/>
<path d="M69.2386 48.8153H55.4982V48.2177H58.9305V21.2702C58.9305 20.0308 58.7069 19.0458 58.2597 18.3376C57.4994 17.0981 56.3702 16.4673 54.8945 16.4673C53.687 16.4673 52.4684 16.9874 51.2609 18.0388C50.0535 19.079 49.0361 20.2521 48.2311 21.5358C47.4262 22.8307 46.9007 24.0037 46.6771 25.0661V48.2066H50.3106V48.8043H36.369V48.2066H39.3317V0.597603H36.369V0H46.6771V23.7381L46.9454 22.9413C47.8845 20.4956 49.4721 18.5146 51.697 17.0096C53.9218 15.4934 56.2025 14.7409 58.5392 14.7409L59.3442 14.8073C59.8361 14.8073 60.4622 14.929 61.2336 15.1725C61.9938 15.4159 62.7653 15.8475 63.5255 16.4784C64.2858 17.0981 64.9342 18.0056 65.4485 19.1786C65.9628 20.3517 66.2199 21.9232 66.2199 23.882V48.2177H69.2497V48.8153H69.2386Z" fill="#231F20"/>
</svg>
