<svg width="125" height="93" viewBox="0 0 125 93" fill="none" xmlns="http://www.w3.org/2000/svg">
<path d="M51.9093 56.7429H52.817L53.5184 55.9643C54.1373 55.7595 54.6737 55.3088 54.9625 54.7351H54.3436C53.6422 54.94 52.817 55.6365 51.9093 56.7429Z" fill="#050E29"/>
<path d="M53.106 59.1183C52.9409 59.2412 52.7346 59.3641 52.5283 59.4051C52.3633 59.4461 52.1983 59.4871 52.0332 59.569C51.5381 60.2246 50.7129 60.7982 49.5164 61.249L49.4338 61.4129C49.3513 61.4948 49.2688 61.6177 49.2275 61.7407C49.145 61.8636 49.0625 61.9865 48.8975 62.0685C49.2688 62.0685 49.4338 62.1504 49.4338 62.3143C49.5576 62.2733 50.2178 61.9046 51.4143 61.249C52.157 60.8802 52.7759 60.2656 53.1885 59.569V59.1183H53.106V59.1183Z" fill="#050E29"/>
<path d="M52.817 56.8242V57.2749L52.9821 57.193C53.0233 57.152 53.1058 57.07 53.1471 57.0291C52.9408 56.9881 52.817 56.9471 52.817 56.8242Z" fill="#050E29"/>
<path d="M46.3393 63.7471C45.349 64.3206 44.4413 65.0169 43.6161 65.7953L42.3783 66.2459C41.6769 66.6555 41.2643 67.1471 41.223 67.6796C41.6356 67.6796 42.337 67.4338 43.286 66.9013C44.07 66.5736 44.7714 66.041 45.349 65.3856C46.0504 65.0169 46.7106 64.5663 47.3708 64.0748C47.9897 63.5832 48.6911 63.1326 49.3925 62.7639C49.4338 62.7639 49.475 62.723 49.475 62.6001C49.1037 62.4362 48.9386 62.2724 48.9386 62.1495C48.4023 62.4362 47.5771 62.9688 46.3393 63.7471Z" fill="#050E29"/>
<path d="M73.1995 42.5689C73.6947 42.0773 74.2723 41.7086 74.8912 41.4219C75.2213 41.34 75.4688 41.0942 75.5926 40.8074C74.9737 40.8074 74.3961 40.9713 73.901 41.34C70.7652 43.4291 68.826 44.5761 68.1658 44.7809C68.1658 44.9857 68.0421 45.1496 67.9183 45.2315C67.877 45.3954 67.877 45.5183 67.9183 45.6002C67.9183 45.6411 67.9595 45.7231 68.0833 45.764C68.2071 45.805 68.2484 45.8869 68.2484 45.9279L68.4959 45.764C68.7847 45.6411 69.0736 45.4363 69.2799 45.2315C69.4862 45.0267 69.775 44.8628 70.1051 44.7809C70.8065 44.7399 71.4254 44.3713 71.7967 43.7978C72.003 43.593 72.2506 43.4291 72.4569 43.2653C72.7869 43.0604 73.0345 42.8147 73.1995 42.5689Z" fill="#050E29"/>
<path d="M51.0428 56.9881C50.8365 57.152 50.6302 57.2749 50.4239 57.3568C50.1763 57.5207 49.6812 57.8893 48.9385 58.3809C48.1958 58.8725 47.6182 59.2821 47.2056 59.5688C47.1231 59.6917 47.0818 59.8146 47.1231 59.9375V60.3062C46.9168 60.3062 46.6692 60.3471 46.5042 60.47C46.3391 60.5929 46.0091 60.7977 45.5552 61.0435C45.1839 61.2893 44.8125 61.5351 44.4412 61.7809C44.1936 61.9447 43.9048 62.1086 43.5747 62.2315C43.2034 62.3953 42.832 62.6001 42.502 62.8869C42.2957 63.0917 42.1306 63.3784 42.0068 63.6242H42.4607C43.1621 63.3375 43.8223 62.9688 44.4412 62.4772C44.9776 62.0266 45.5965 61.658 46.2154 61.3303L46.7517 60.9616L47.2056 60.2652C47.5769 60.4291 47.907 60.3062 48.1958 59.8146C49.3099 58.7905 50.5889 57.9303 51.9505 57.2339V56.7014C51.6204 56.7014 51.2903 56.7833 51.0428 56.9881Z" fill="#050E29"/>
<path d="M55.6227 56.9473C55.4576 57.1522 55.2513 57.357 55.045 57.5209H56.0353C56.2828 57.1931 56.4066 56.8244 56.4891 56.4556H56.4066C56.0765 56.5375 55.7877 56.7014 55.6227 56.9473Z" fill="#050E29"/>
<path d="M75.5926 40.7669L76.5828 40.2342C76.9129 40.1113 77.1192 39.8654 77.2017 39.5376C76.9129 39.4967 76.5828 39.5376 76.294 39.7015C76.0877 39.8245 75.8814 39.9064 75.6751 39.9474C75.5926 40.2342 75.5513 40.521 75.5926 40.7669Z" fill="#050E29"/>
<path d="M52.817 57.2748H51.9093C52.2806 57.6846 52.5695 57.6846 52.817 57.2748Z" fill="#050E29"/>
<path d="M23.5225 77.2241C23.3987 77.2241 23.2749 77.1831 23.1511 77.1422C23.1924 77.429 23.2749 77.4699 23.5225 77.2241Z" fill="#050E29"/>
<path d="M64.6175 48.3862L65.4014 47.7716C65.649 47.7306 65.8141 47.4847 65.7728 47.2389C65.8966 47.2389 65.8553 47.1569 65.6903 46.993H65.4427C64.6175 47.075 63.8748 47.6077 63.586 48.4272C63.5035 48.5501 63.4622 48.714 63.5035 48.8779C63.5035 48.9598 63.586 49.0827 63.6273 49.1647C63.7098 49.2466 63.751 49.3696 63.751 49.5335V49.6154H63.8336C63.8748 49.8613 63.9986 49.8613 64.2049 49.6974C64.2462 49.6564 64.3699 49.4925 64.5762 49.2466C64.2049 48.8369 64.2462 48.5911 64.6175 48.3862Z" fill="#050E29"/>
<path d="M38.7474 68.9086C38.0459 69.4001 37.5508 69.6869 37.262 69.8917C36.5193 70.3423 35.8592 70.8339 35.199 71.4073C35.1165 71.5302 34.9927 71.6531 34.9514 71.776C34.8277 71.9399 34.7451 72.1037 34.5801 72.2266C34.4563 72.3495 34.3738 72.3905 34.3325 72.3905C34.085 72.4314 32.7647 73.1688 30.4128 74.5206L27.1946 76.282C26.947 76.3639 26.6994 76.4868 26.4931 76.6097C26.2456 76.7326 26.0393 76.8145 25.7917 76.9374C24.2651 77.8796 22.656 78.6579 20.9643 79.2314C20.8405 79.2724 20.7167 79.3133 20.593 79.2724C20.4279 79.2314 20.3041 79.2724 20.1391 79.3133C19.9741 79.3543 19.8503 79.5181 19.7678 79.682H19.5202L19.4377 79.6001C19.3139 79.4772 19.2314 79.3952 19.1489 79.3543C19.1076 79.3133 19.0663 79.2314 19.0663 79.1904C19.0663 79.1904 19.0663 79.1904 19.0663 79.1495C19.0663 79.1085 19.1076 79.0675 19.1489 79.0675C19.6852 78.8627 20.2216 78.6169 20.758 78.3302C21.2531 78.0434 21.7482 77.7977 22.2846 77.5928L23.1923 77.2242V77.1422C23.7287 76.6507 24.3064 76.241 24.9253 75.9133C25.5442 75.5856 26.0805 75.176 26.5757 74.6844C26.782 74.6025 26.9883 74.5615 27.1946 74.6025C27.3183 74.5206 27.4421 74.4796 27.6072 74.5206C27.7722 74.5206 27.9372 74.4796 28.061 74.3977C28.1848 74.2748 28.2261 74.1519 28.2673 73.9881L28.4324 73.8242C28.5561 73.7013 28.6387 73.6194 28.6799 73.4555L28.845 73.2917H29.8352C29.959 73.2917 30.0002 73.2097 29.959 73.0869C29.9177 72.964 29.959 72.8001 30.0002 72.6772C30.0828 72.5543 30.2065 72.4724 30.3716 72.5134C30.7429 72.2266 31.3618 71.776 32.2283 71.2025C32.971 70.7519 33.6311 70.2194 34.2913 69.605C34.7451 69.4821 35.1165 69.2363 35.4466 68.9086C35.7766 68.5809 36.1892 68.3351 36.6018 68.2122L41.1404 65.099L41.9656 63.87C41.8419 63.911 41.7181 63.952 41.5943 63.952H41.2642C41.1817 63.952 41.1404 63.9929 41.1404 64.0339L38.9949 65.5496L37.0144 66.7785C36.6431 67.0242 36.313 67.27 36.0242 67.6387C35.7354 68.0074 35.364 68.2941 34.9514 68.4989C34.7039 68.6218 34.3738 68.8266 33.8787 69.0724C33.3836 69.3182 33.0535 69.523 32.8884 69.6459C32.6409 69.8098 32.1045 70.2194 31.238 70.8748C30.3716 71.5302 29.6289 72.0218 29.01 72.4314C28.3911 72.8001 27.7722 73.1278 27.0708 73.3736L26.4519 73.9881C25.9568 74.3977 25.4204 74.7254 24.8427 74.9712L23.77 75.5856C23.5224 75.7085 22.9448 75.9953 21.9958 76.5278C21.2944 76.9374 20.5517 77.2242 19.7678 77.47C18.9013 78.1663 17.9111 78.6579 16.8383 78.9037C16.2607 79.1495 15.4355 79.4362 14.4865 79.7639C13.4962 80.0916 12.9186 80.2964 12.7536 80.3374C12.2997 80.4193 11.8458 80.4603 11.4332 80.4603C10.9794 80.4603 10.4843 80.5422 10.1129 80.788C9.94788 80.9109 9.74158 80.9928 9.53528 80.9519C9.32898 80.9519 9.12268 80.9109 8.95764 80.788C7.9674 80.6241 6.97716 80.3784 6.02818 80.0916C5.53306 79.9687 5.0792 79.7639 4.70786 79.4772C4.33652 79.3133 4.17148 79.1085 4.17148 78.8627C4.13022 78.3302 4.00644 77.7977 3.80014 77.2651C3.59384 76.7736 3.51132 76.2001 3.55258 75.6676V71.2435C3.51132 70.9567 3.6351 70.67 3.80014 70.4652C4.0477 70.1784 4.17148 69.564 4.17148 68.6218C4.21274 68.3351 4.254 68.0074 4.33652 67.7206C4.41904 67.4339 4.50156 67.1471 4.50156 66.8194C4.79038 65.6315 4.95542 65.017 4.95542 64.9761C4.83164 63.7881 5.20298 62.9279 6.02818 62.3954C6.5233 61.9857 6.85338 61.4122 6.9359 60.7978L7.63732 58.6677C7.84362 58.6267 8.00866 58.4219 8.00866 58.2171C7.9674 57.5617 8.25622 56.9062 8.83386 56.5376C9.49402 55.8412 10.0717 55.1038 10.608 54.3255C10.608 54.1207 10.6493 53.9159 10.6906 53.7111C10.7731 53.5063 10.8969 53.2605 11.0619 53.0966L11.4332 52.8508C11.6395 52.4412 11.9284 52.0725 12.1759 51.7448C12.506 51.3352 12.7948 50.8436 13.0424 50.3521C13.2074 49.9015 13.2899 49.4099 13.2074 48.9183L13.3725 48.8364C13.5375 48.7545 13.6613 48.6316 13.7438 48.4677C13.8676 48.4677 13.9914 48.3448 14.1151 48.0581C14.1977 47.8533 14.3627 47.6485 14.569 47.5665L15.4767 46.8702C15.518 46.8292 15.9306 46.2967 16.6733 45.3545C17.2096 44.6991 17.7048 44.0027 18.0761 43.2244C18.2411 42.7738 18.53 42.3232 18.8188 41.9545C19.1489 41.5859 19.5202 41.1762 19.9328 40.7256C20.3454 40.275 20.6755 39.9063 20.923 39.6196C21.0881 39.3329 21.2944 39.0871 21.5419 38.8823C21.872 38.6365 22.0371 38.2678 22.0783 37.8582C22.5734 37.2027 23.1923 36.6702 23.8525 36.2606C23.9763 36.0558 24.1413 35.8919 24.3064 35.7281C24.5127 35.5232 24.6777 35.3184 24.8427 35.1136C25.6267 33.8028 26.4106 32.9425 27.2358 32.5329L28.061 31.8365L28.9687 30.6895C29.5464 29.8703 29.8765 29.3787 29.959 29.2558C30.7842 28.7233 31.2793 28.3546 31.4031 28.1088C31.5681 27.945 31.9395 27.5353 32.5171 26.9209C32.971 26.4293 33.4248 25.8968 33.7962 25.3643C34.0025 25.2414 34.1675 25.0775 34.3325 24.9137C34.4976 24.7089 34.7039 24.586 34.9514 24.4631C35.5703 24.0125 36.148 23.5209 36.6844 22.9884C37.2207 22.4968 37.7571 22.0462 38.3348 21.5956C39.0774 21.2679 39.7376 20.7354 40.1915 20.08C40.5628 19.6703 40.9754 19.2607 41.388 18.892C41.8006 18.5643 42.1719 18.1956 42.502 17.786C42.8321 17.5812 43.2034 17.4583 43.5748 17.4173C43.9049 17.2944 44.2349 17.1306 44.4825 16.8848C44.9776 16.3932 45.5965 15.9836 46.2567 15.7378L47.577 14.9595C48.526 14.2222 49.5575 13.5668 50.6302 12.9933L55.9941 9.79811C57.4794 9.10173 58.3046 8.69209 58.3871 8.65113L60.5327 7.87282C60.739 7.66801 60.9865 7.46319 61.2341 7.29933C61.5642 7.13548 61.8942 6.97162 62.2243 6.84873C62.6369 6.68488 62.9257 6.60295 63.132 6.52103C63.5446 6.35717 63.9985 6.23428 64.4111 6.15235C64.865 6.11139 65.3188 5.94754 65.6902 5.70175C66.1853 5.45597 66.6804 5.25115 67.2168 5.12826C67.7532 4.96441 68.3721 4.84152 69.0735 4.67766C69.6099 4.59574 70.1462 4.43188 70.6826 4.26803C72.8694 3.89936 74.1897 3.77646 74.6023 3.89936C74.8499 3.94032 75.0974 3.89936 75.3037 3.81743C75.6338 3.61261 76.0464 3.48972 76.459 3.44876C76.8304 3.44876 77.2017 3.32587 77.5318 3.20297L79.6773 4.26803C80.9564 5.57886 81.7816 7.25837 81.9879 9.06077V11.6415C82.1529 12.8704 81.5753 14.5499 80.2137 16.68C79.6773 17.6222 78.3982 19.3017 76.3765 21.6366C76.2527 21.9643 75.9639 22.251 75.6751 22.4149L74.6023 24.0944L74.8911 24.545C75.6751 24.7908 76.1289 24.8727 76.3352 24.7908C77.9444 24.504 79.0997 23.8896 79.8011 22.9474L83.1019 19.6703C84.1334 18.6053 84.9998 17.3764 85.7013 16.0246C85.825 15.7378 85.9076 15.4511 85.8663 15.1234C85.9901 14.7547 86.0726 14.3451 86.0313 13.9354C86.0313 13.5258 86.1139 13.1162 86.2789 12.7475V12.2969C86.0726 11.7644 85.9901 11.1909 86.0313 10.6174C85.9901 10.2897 85.8663 9.96197 85.5775 9.71618C85.3299 9.51137 85.1649 9.26559 85.0411 9.0198V8.5692C84.1334 6.4391 82.8956 4.88248 81.2864 3.85839L80.7501 3.48972C80.585 3.36683 80.3375 3.24394 80.0899 3.08008C79.8423 2.91623 79.5948 2.79334 79.4297 2.67045C78.2332 2.26081 77.6143 1.97407 77.573 1.89214C77.573 1.76925 77.4493 1.72829 77.2017 1.72829L74.6023 1.56443C74.396 1.60539 74.1897 1.60539 73.9834 1.52347C73.6946 1.44154 73.4883 1.44154 73.3645 1.56443C72.8694 1.64636 72.333 1.68732 71.8379 1.64636C71.6729 1.72829 71.4666 1.72829 71.2603 1.72829H70.6826L69.156 2.26081C68.3721 2.34274 67.5468 2.42467 66.7629 2.42467C66.6391 2.42467 66.5154 2.46563 66.3916 2.50659L66.144 2.3837C65.6901 2.71141 65.195 2.95719 64.6174 3.08008C64.1635 3.16201 63.7509 3.32587 63.3796 3.53068L58.0158 5.29212C57.4381 5.49694 56.9018 5.74272 56.3654 6.02946C55.6227 6.39813 55.0451 6.68488 54.6325 6.8897C54.2611 7.17644 53.8485 7.38126 53.4359 7.54511C52.9408 7.74993 52.6107 7.87282 52.4869 7.95475C52.0331 8.15957 51.6205 8.36439 51.2079 8.61017C50.8778 8.77402 50.589 8.97884 50.2589 9.18366C50.0113 9.18366 49.7638 9.26559 49.5575 9.34751C49.3099 9.4704 49.0624 9.63426 48.8561 9.83908C48.691 10.0029 48.4435 10.1668 48.2372 10.2487C45.3902 11.6005 43.3272 12.9113 42.0894 14.1403C41.9656 14.1403 41.8419 14.1403 41.7181 14.2222C41.5118 14.2222 41.3055 14.2631 41.0992 14.3451C40.9341 14.427 40.8104 14.5089 40.6866 14.5909C40.6041 14.6728 40.4803 14.8366 40.274 15.0415C40.1089 15.2463 39.9439 15.4101 39.8201 15.533L39.0362 16.0655C36.7669 17.2125 34.7039 18.6872 32.8884 20.4077L31.4443 21.6366C31.0317 22.0053 30.6191 22.3739 30.2065 22.7016C29.7939 23.0293 29.3813 23.3571 29.0513 23.7667C28.7212 24.3402 28.2673 24.7908 27.6897 25.0775C27.4834 25.2823 27.2771 25.5281 27.112 25.7739C26.9057 26.0607 26.6582 26.3064 26.3694 26.4703C25.998 26.5932 25.7505 26.8799 25.6679 27.2486C25.4616 27.5353 25.2141 27.7811 24.9665 28.0269L24.2651 28.7233C22.4084 30.5667 21.4182 31.5498 21.3356 31.7546L19.5615 33.8028C19.3964 34.0486 19.0663 34.4172 18.6537 34.9498C18.3649 35.3594 18.0348 35.7281 17.6635 36.0967C16.3019 37.4485 15.3942 38.7184 14.9816 39.8244C14.4865 40.316 14.0326 40.8485 13.7025 41.463C13.4137 41.9545 13.1249 42.4051 12.7536 42.8557C12.7123 42.8557 12.7123 42.8557 12.671 42.8557C12.5473 42.8557 12.4647 42.9786 12.4647 43.1015C12.8361 43.675 12.7123 44.0027 12.0934 44.0027C11.5983 44.0027 11.2269 44.2895 10.9381 44.9039C10.443 45.7232 10.1542 46.1328 9.94788 46.1328C9.90662 46.3786 9.78284 46.5015 9.70032 46.5015C9.53528 46.7063 9.37024 46.9521 9.24646 47.1979L9.16394 47.4436V47.5256L8.09118 49.287V49.3689H7.88488C7.84362 49.6147 7.71984 49.7376 7.51354 49.7376L7.1422 50.5159C7.18346 50.7617 7.05968 51.0075 6.89464 51.1304L6.81212 51.2942L6.35826 51.9906C6.60582 52.1545 6.60582 52.2773 6.35826 52.2773L5.9044 52.9737C5.9044 53.0147 5.82188 53.1376 5.65684 53.3424C5.6981 53.3424 5.6981 53.4243 5.65684 53.5882L4.83164 54.5713V54.94L3.38754 58.6677C3.34628 58.8315 3.2225 59.2002 3.13998 59.7327C3.05746 60.1014 2.97494 60.4701 2.76864 60.7978C1.90218 62.1496 1.3658 63.6652 1.1595 65.2218C1.11824 65.5086 0.953196 66.2869 0.664376 67.5158C0.416816 68.7447 0.210516 69.6869 0.086736 70.3423C-0.160824 71.5302 0.127996 73.2097 0.870676 75.3808C0.994456 76.0772 1.32454 76.6916 1.7784 77.2242C1.7784 77.2651 2.06722 78.0025 2.68612 79.3543C3.59384 81.6482 5.0792 83.041 7.22472 83.5326C7.43102 83.5735 7.59606 83.6555 7.7611 83.7374C7.92614 83.8603 8.09118 83.9422 8.29748 83.9422L8.5863 84.0241C8.71008 84.1061 8.87512 84.2289 9.04016 84.2699C9.98914 84.2289 10.9794 84.3109 11.8871 84.5567H12.2584C12.671 84.4338 13.0836 84.3518 13.4962 84.2699C14.0739 84.2289 14.6103 84.147 15.1466 84.0241C15.7655 83.8603 16.4257 83.8193 17.0859 83.8603L17.5397 83.6964L21.4594 81.935C22.1608 81.6892 22.821 81.3205 23.4399 80.8699C23.7287 80.6242 24.0588 80.4193 24.4301 80.2555C24.8015 80.0916 25.1316 79.8458 25.4204 79.5591C25.6679 79.2314 25.998 78.9856 26.3694 78.8627C26.6994 78.7398 27.0295 78.535 27.3183 78.3302C30.0002 76.5688 31.5269 75.5856 31.9807 75.4218L32.4346 74.8893C32.2695 74.7254 32.0632 74.6435 31.8157 74.6435L31.7332 74.4796L31.8157 74.3977C32.2283 74.3977 32.4346 74.5615 32.4346 74.9302L34.5801 73.6194C35.4878 73.0049 36.148 72.1447 36.5606 71.1206C36.5606 70.9567 36.8081 70.7519 37.3445 70.5061L37.5921 71.0387H37.6746L37.8396 70.7929C38.0459 70.711 38.2935 70.67 38.4998 70.67C38.7474 70.67 38.9949 70.5881 39.16 70.4652C39.5726 69.9327 39.9026 69.6459 40.1502 69.564C40.3152 69.523 40.439 69.4001 40.5215 69.2363C40.5628 69.0724 40.6041 68.8676 40.5628 68.7037C40.5215 68.5399 40.5215 68.376 40.5215 68.2122C40.6866 68.1712 40.8516 67.9254 40.9754 67.5158C40.6866 67.5158 40.4803 67.5568 40.439 67.6797C39.9852 68.0483 39.4488 68.417 38.7474 68.9086Z" fill="#050E29"/>
<path d="M61.5642 52.8511C62.3482 52.8511 63.0496 52.4003 63.3384 51.7038C62.7195 51.7038 62.1006 52.0725 61.5642 52.8511Z" fill="#050E29"/>
<path d="M37.4683 71.3663C37.5096 71.3254 37.5509 71.2434 37.5509 71.2025C37.262 71.2025 37.2208 71.2434 37.4683 71.3663Z" fill="#050E29"/>
<path d="M62.4719 49.9018C62.637 49.6969 62.7195 49.451 62.7608 49.2052C62.9258 49.2052 62.9258 49.0823 62.7608 48.8364C62.7608 48.5906 62.6782 48.5496 62.5132 48.7545L61.9768 49.2871C61.688 49.574 61.3579 49.7788 60.9866 49.9837C60.2852 50.3115 59.7488 50.9261 59.46 51.6637H60.0789L62.4719 49.9018Z" fill="#050E29"/>
<path d="M59.4188 51.7038C58.7586 51.5399 58.2635 51.8267 57.8922 52.6053C57.8509 52.7692 57.8509 52.8511 57.8922 52.8511H58.346C59.0062 52.3594 59.3775 51.9906 59.4188 51.7038Z" fill="#050E29"/>
<path d="M60.0375 53.9981C59.9138 54.0391 59.9138 54.162 60.0375 54.2849H60.4914C60.8627 53.9161 61.2341 53.5474 61.5642 53.1376C61.0278 52.9328 60.5327 53.2196 60.0375 53.9981Z" fill="#050E29"/>
<path d="M79.7186 45.2316H79.3473V46.133H79.7186V45.2316Z" fill="#050E29"/>
<path d="M90.2811 32.2871C90.1574 32.369 90.0748 32.451 89.9511 32.5739C89.6622 32.8607 89.4559 33.0246 89.4147 33.0246C89.2496 33.2295 89.0433 33.3524 88.7958 33.3934L88.4244 34.6226C88.7958 34.6226 89.1671 34.4587 89.4147 34.1719C89.6622 34.049 89.9098 33.8851 90.0748 33.6802C90.3224 33.3934 90.4874 33.2705 90.57 33.1885C91.1063 32.8198 91.2714 32.492 91.0238 32.2052C90.9 32.1642 90.7763 32.1232 90.6112 32.1232C90.5287 32.1232 90.4049 32.1642 90.2811 32.2871Z" fill="#050E29"/>
<path d="M79.2647 47.5255C79.0584 47.5665 78.8521 47.6894 78.6458 47.7714C78.522 48.0582 78.522 48.2221 78.6458 48.2221C78.7696 48.2221 78.8934 48.1401 79.0172 48.0582C79.1822 47.9762 79.2647 47.8123 79.2647 47.5255Z" fill="#050E29"/>
<path d="M92.468 25.692H92.5505C92.3855 26.1835 92.2205 26.4293 92.0967 26.4703C91.9729 27.0438 91.6841 27.5353 91.3127 27.9859C90.9001 28.1088 90.6938 28.3546 90.6938 28.6823C91.0239 28.6823 91.354 28.7233 91.6841 28.8462C91.4778 28.9281 91.3127 29.1329 91.3127 29.3787C91.1477 29.7883 91.189 29.9931 91.4778 29.9931C91.6841 29.9112 91.9316 29.8703 92.1379 29.8293C92.3855 29.7883 92.6331 29.7064 92.7981 29.6654C92.9631 29.5425 93.0869 29.2968 93.0869 28.8462C93.1282 28.7233 93.417 28.6823 93.8709 28.6823H94.0359C93.9121 28.6004 93.8296 28.4775 93.8709 28.3136C93.582 28.3546 93.3345 28.3136 93.0869 28.2317C93.0869 28.1088 93.1694 27.9859 93.3345 27.863C93.417 27.8221 93.5408 27.7402 93.6233 27.6992C94.0359 27.6992 94.2422 27.6173 94.2422 27.4124C94.2422 27.0438 93.9946 26.8799 93.5408 26.8799H93.0869C93.0869 26.5932 93.1282 26.3474 93.1694 26.0606C93.1694 25.9787 93.2107 25.8968 93.252 25.8149C93.2932 25.692 93.3345 25.5691 93.3345 25.4462C93.0869 25.5691 92.7981 25.651 92.5505 25.61V25.4462L92.468 25.2004C92.2205 25.2004 92.0967 25.2823 92.0967 25.4462H92.468V25.692Z" fill="#050E29"/>
<path d="M95.0673 25.9787H94.7784C94.9022 26.1016 94.9435 26.2655 94.9435 26.4294C95.026 26.2655 95.0673 26.1426 95.0673 25.9787Z" fill="#050E29"/>
<path d="M88.0118 32.3695C88.507 32.0827 88.9196 31.7549 89.2909 31.3452C89.5385 30.9764 89.6622 30.5667 89.7035 30.1569C89.5797 30.3618 89.3734 30.5257 89.1671 30.6486C88.9196 30.8125 88.7133 31.0174 88.5482 31.2223L88.0118 31.591V32.3695Z" fill="#050E29"/>
<path d="M96.223 24.7513L96.14 24.6679C96.14 24.6679 96.14 24.6679 96.14 24.7096C96.14 24.7096 96.1815 24.7513 96.223 24.7513Z" fill="#050E29"/>
<path d="M101.215 17.9089V17.4582H100.802L101.215 17.9089Z" fill="#050E29"/>
<path d="M84.7947 35.197V35.1136L84.6287 35.197H84.7947Z" fill="#050E29"/>
<path d="M88.0118 31.5498C87.5992 31.0171 87.3104 30.9762 87.1041 31.4679C87.1041 31.7137 87.0629 31.8366 86.9391 31.9186C87.1454 31.8776 87.3104 31.8366 87.4755 31.7547C87.6405 31.6318 87.8055 31.5908 88.0118 31.5498Z" fill="#050E29"/>
<path d="M91.9316 25.692C91.1477 26.4705 90.7351 26.9622 90.6938 27.208C91.189 27.1261 91.6016 26.8802 91.9316 26.5114V25.692Z" fill="#050E29"/>
<path d="M86.2377 33.3112H86.6091C86.6916 33.8847 86.4028 34.4582 85.9076 34.7449C85.9076 35.1136 85.7013 35.2365 85.2887 35.1136C85.2887 34.8678 85.495 34.7449 85.9076 34.7449C85.6188 34.4991 85.495 34.1305 85.5363 33.7618C84.9587 34.1305 84.7111 34.5401 84.8349 35.0726L84.9999 35.1545H85.2887C85.2887 35.728 84.9587 36.2606 84.381 36.4654V35.5642C83.7209 35.9329 83.3908 36.3425 83.3908 36.875C83.6796 36.6292 84.0097 36.5063 84.381 36.4244V37.3256C83.432 37.6943 82.9369 38.2268 82.9369 39.0051C82.6894 39.128 82.4418 39.3328 82.2768 39.5786C82.0705 39.8654 81.9467 40.0292 81.8642 40.0702C81.7816 40.1521 81.6991 40.1521 81.6166 40.1521C81.4928 40.1931 81.369 40.234 81.2453 40.234C81.2453 40.1521 81.204 40.0702 81.1627 39.9882V39.8244C80.9977 39.9882 80.7501 40.275 80.4613 40.6027C80.2138 40.9304 79.8837 41.2172 79.5536 41.5039C79.2648 41.7497 78.9347 41.9135 78.5634 42.0364V42.487C78.6459 42.6918 78.6459 42.9376 78.6459 43.1424C78.6046 43.4292 78.7697 43.675 79.0172 43.7979C79.0585 43.7979 79.1823 44.0436 79.3886 44.5762C79.4298 44.5762 79.4298 44.5762 79.4711 44.5762C79.6361 44.6171 79.7599 44.74 79.7599 44.9448C80.8327 44.822 81.5753 44.5762 81.9879 44.1665C82.8131 43.634 83.7209 43.2244 84.6698 42.9376L85.5776 42.487C89.5798 40.1111 92.1792 38.3907 93.417 37.3256C94.7373 36.4244 96.2639 35.2774 98.0793 33.8847C100.679 31.9184 102.494 30.5257 103.526 29.6245C106.373 26.9618 107.94 25.4871 108.188 25.2004L110.499 22.6197C110.664 22.3329 111.53 21.5137 113.015 20.1209C114.295 19.0149 115.491 17.786 116.605 16.4751C116.853 16.1884 117.1 15.9426 117.43 15.7378C117.719 15.533 117.925 15.3282 118.132 15.0824C118.255 14.9185 118.421 14.7547 118.627 14.6727C118.957 14.4679 119.246 14.2631 119.493 13.9764C120.153 13.1161 120.731 12.174 121.226 11.2318C122.093 9.71615 123.124 7.66797 124.321 5.08727V4.67763L124.403 4.39088C124.403 4.18607 124.403 3.98125 124.321 3.77643C124.279 3.73547 124.073 3.53065 123.743 3.16198C123.413 2.7933 123.207 2.58849 123.165 2.54752C123.124 2.50656 122.918 2.30174 122.629 2.015C122.423 1.81018 122.216 1.60536 121.969 1.48247C121.804 1.44151 121.598 1.31862 121.309 1.15476C121.061 1.03187 120.772 0.908979 120.442 0.868016C120.153 0.827052 119.865 0.827052 119.576 0.827052C117.141 0.704161 115.491 1.15476 114.666 2.13789C114.129 2.50656 113.676 2.9162 113.222 3.3668C112.892 3.6945 112.52 3.98125 112.149 4.26799C111.53 4.63667 110.994 5.0463 110.457 5.4969C109.178 6.76677 107.858 7.95472 106.455 9.06073C105.919 9.63422 105.382 10.1668 104.805 10.6993C104.227 11.1908 103.814 11.6005 103.567 11.8463C103.278 12.133 103.031 12.3378 102.824 12.5426C102.618 12.7065 102.494 12.9113 102.37 13.1161C102.329 13.3209 102.329 13.5258 102.37 13.7306H102.618L102.37 14.2631C102.329 14.386 102.123 14.386 101.834 14.2631C100.72 14.6318 99.9773 15.492 99.606 16.9257H99.9773V17.6221H99.606C99.606 17.3763 99.5647 17.1306 99.5234 16.9257C98.9458 17.0896 98.3269 17.7041 97.7493 18.7691V19.0149H98.2031C98.1619 19.3016 97.9968 19.4655 97.7493 19.4655V19.0149C96.8415 19.0149 96.4289 19.5065 96.4289 20.5305L97.0478 20.0799C97.2954 20.039 97.543 19.9571 97.7493 19.8342V20.5305C98.4507 19.9571 98.8633 19.5884 98.9871 19.4655C99.2759 19.1787 99.4822 19.0149 99.606 19.0149C99.606 19.0968 99.5647 19.1787 99.5234 19.2607V19.5884H99.0696C98.9458 19.8751 98.822 20.1209 98.7395 20.4486C98.657 20.7354 98.5745 21.0221 98.4094 21.3089C98.2856 21.5546 98.1619 21.7595 97.9556 21.9233C97.8318 22.251 97.6255 22.5787 97.3367 22.8245C96.9241 23.3161 96.5527 23.3161 96.1814 22.8245C96.2639 22.7426 96.3464 22.6197 96.4289 22.4968C96.5115 22.3739 96.6352 22.251 96.7178 22.0872C96.8415 21.7594 96.8828 21.3908 96.8828 21.0221C96.6765 21.2679 96.3877 21.4727 96.0989 21.6366V20.6534C95.1911 21.0221 94.4897 21.8004 94.3247 22.7835H94.7785C94.7785 22.9064 94.7373 23.0293 94.696 23.1522V23.2341C94.531 23.1112 94.4072 22.9884 94.3247 22.7835C93.7058 23.3161 93.1694 23.9305 92.7981 24.6269C92.633 24.7088 92.5092 24.8727 92.5505 25.0775C92.8393 25.0365 93.1281 24.9136 93.3344 24.7088V25.4871C93.4995 25.4052 93.7058 25.3642 93.8708 25.3233C94.0359 25.2823 94.1596 25.2414 94.3247 25.2414V25.9377H94.7785L94.9436 25.7739L95.1086 25.9377H95.2737C95.7688 25.692 96.0989 25.1594 96.0576 24.6269C97.4192 23.7257 98.3269 23.2751 98.7395 23.1932C99.3584 22.7016 99.8123 22.0052 99.9773 21.2269C99.9773 20.6125 100.142 20.039 100.514 19.5474C100.72 19.3016 100.968 19.0149 101.133 18.7691C100.679 18.6053 100.142 18.6053 99.6885 18.851L99.8948 18.7691H99.8123C99.8123 18.4824 99.8535 18.1547 99.8948 17.8679C100.019 17.786 100.184 17.7041 100.349 17.6631C100.514 17.6221 100.679 17.5402 100.803 17.4583C100.803 17.4173 100.803 17.3763 100.803 17.3354C100.844 17.1306 101.05 16.9667 101.256 17.0077V17.4583C101.463 17.4173 101.71 17.4992 101.875 17.6221H102.494C102.535 17.4992 102.577 17.3763 102.659 17.2535C103.98 16.0655 105.176 14.7956 106.331 13.4438C107.652 11.8872 109.921 9.71615 113.098 6.88966C114.171 5.9475 115.285 5.08727 116.481 4.30896C116.688 4.1451 116.894 3.94029 117.018 3.6945C117.183 3.28487 117.513 2.9162 117.925 2.71138L118.627 2.17885C118.627 2.13789 118.751 2.09692 118.998 2.13789C119.163 2.13789 119.328 2.17885 119.452 2.26078C120.112 3.20294 120.277 4.02221 119.988 4.75956C117.884 8.93784 114.336 13.6077 109.261 18.7691C108.889 19.1378 108.147 19.8342 106.992 20.8583C105.836 21.8823 104.929 22.7016 104.268 23.3161C101.545 25.7329 99.8535 27.1666 99.1934 27.5763C98.822 27.863 98.2031 28.3956 97.3367 29.1739C96.6352 29.7883 95.8926 30.3618 95.1086 30.8534C94.7373 31.3859 94.2009 31.7955 93.582 32.0003C93.0456 32.369 92.1379 33.0244 90.9001 33.9666C90.2812 34.4582 89.7448 34.9907 89.2084 35.5642C89.0434 35.81 88.6721 35.8919 88.1357 35.8919C87.7231 35.8509 87.3517 35.8919 86.9804 36.0148C86.9391 36.5473 86.6916 37.0798 86.279 37.4485C86.1965 37.5714 86.1139 37.6943 86.0314 37.8172C85.7426 37.6533 85.4538 37.7352 85.165 38.1039C84.8761 38.4726 84.6286 38.5955 84.4223 38.4726V37.4895C84.5461 37.3666 84.6698 37.2437 84.8761 37.0798C85.0412 36.916 85.2062 36.7931 85.33 36.6702C85.7426 36.2606 86.0727 36.0557 86.3202 36.0557C86.279 35.9738 86.279 35.8919 86.2377 35.81C86.1965 35.3184 86.5265 34.8678 87.0217 34.8268V34.663C87.0217 34.2533 87.393 33.8437 88.0944 33.4341C88.1769 33.557 88.2182 33.6799 88.1769 33.8027C88.2182 33.6799 88.2595 33.557 88.2595 33.4341H88.0944V32.4509C87.9294 32.4919 87.7643 32.5738 87.6406 32.6558C87.393 32.8196 87.1867 32.9425 87.0217 33.0654V32.0823C86.444 32.1232 86.2377 32.5738 86.2377 33.3112ZM96.0163 23.6847C95.8926 23.8896 95.81 24.0944 95.81 24.2992H95.3562C95.3974 23.7257 95.6863 23.1522 96.1401 22.7835C96.1814 23.0703 96.1401 23.398 96.0163 23.6847ZM104.433 13.4848C104.392 13.6896 104.186 13.8535 103.98 13.8125L103.897 13.8944C103.897 13.9354 103.856 14.0583 103.732 14.1402L103.484 14.5089C103.443 14.9185 102.989 15.4101 102.247 15.9426C102.205 15.3282 102.577 14.7547 103.154 14.5089C103.361 13.9354 103.814 13.4848 104.392 13.28L104.31 13.3619H104.475C104.433 13.4029 104.433 13.4438 104.433 13.4848ZM106.414 11.4366L106.249 11.7234L105.176 12.7065C105.094 12.7065 105.052 12.7475 105.011 12.7884H105.094C105.052 12.9523 104.97 13.1161 104.846 13.239C104.846 13.1161 104.846 12.9932 104.929 12.8703V12.092C105.3 11.9692 105.465 11.8053 105.465 11.5595C106.166 11.027 106.579 10.7402 106.703 10.6583C106.661 11.027 106.579 11.3137 106.414 11.4366ZM116.853 10.986C117.1 11.4776 116.976 11.7643 116.481 11.9691C116.44 11.6005 116.605 11.2318 116.853 10.986Z" fill="#050E29"/>
<path d="M90.6938 28.8871C90.0749 28.9691 89.621 29.5018 89.7035 30.1164C90.3637 30.0754 90.6938 29.6657 90.6938 28.8871Z" fill="#050E29"/>
<path d="M86.7328 35.8099C86.6503 35.8509 86.609 35.9329 86.609 35.9738H86.9803C86.9803 35.8509 86.9391 35.728 86.8978 35.6051C86.8566 35.687 86.8153 35.769 86.7328 35.8099Z" fill="#050E29"/>
<path d="M101.421 18.5644C101.545 18.3185 101.463 18.0317 101.215 17.8678V18.7693C101.339 18.7283 101.38 18.6873 101.421 18.5644Z" fill="#050E29"/>
<path d="M91.4778 30.8534C91.4778 30.8124 91.4365 30.7714 91.3127 30.7714C91.2715 30.7714 91.189 30.8534 91.1064 30.9763C91.0239 31.0992 90.9827 31.1812 90.9001 31.3041V31.3451C90.9001 31.427 90.9827 31.509 91.0652 31.468C91.519 31.468 91.6841 31.2631 91.4778 30.8534Z" fill="#050E29"/>
<path d="M97.1303 48.7547L97.5841 48.6727C97.7904 48.5088 97.9142 48.222 97.9555 47.9762C97.1303 48.0991 96.3463 48.5498 95.8099 49.2054H96.5939C96.6351 48.9596 96.8827 48.7957 97.1303 48.7547Z" fill="#050E29"/>
<path d="M72.9942 55.0629H72.8281V55.1463H72.9942V55.0629Z" fill="#050E29"/>
<path d="M95.7692 49.205H95.6862V49.3699H95.7692V49.205Z" fill="#050E29"/>
<path d="M69.3622 59.2416H69.1146V59.3236H69.3622V59.2416H69.651C69.651 58.7089 69.816 58.4221 70.1874 58.3402V57.4387C69.3209 57.7665 69.0321 58.3402 69.3622 59.2416Z" fill="#050E29"/>
<path d="M72.8282 55.0631V54.2845C72.4568 54.5713 72.4568 54.8172 72.8282 55.0631Z" fill="#050E29"/>
<path d="M96.7598 49.205H96.5938V49.3699H96.7598V49.205Z" fill="#050E29"/>
<path d="M72.2919 56.2099C72.2919 56.087 72.2506 56.0051 72.2094 55.8821C72.1681 55.8002 72.1268 55.7592 72.1268 55.6773C72.0856 55.7183 72.0031 55.8002 71.9618 55.8412L71.8793 55.9231C71.673 56.2099 71.5905 56.5377 71.5905 56.9065C71.7968 56.7426 72.0443 56.5787 72.2919 56.4558V56.2099V56.2099Z" fill="#050E29"/>
<path d="M97.1303 49.5738C97.3778 49.5738 97.5016 49.5328 97.5841 49.4099H96.8002V49.6557C96.7589 49.5738 96.8827 49.5738 97.1303 49.5738Z" fill="#050E29"/>
<path d="M73.282 51.4174C73.9009 51.2945 74.3135 50.7209 74.2722 50.1063C73.8596 50.2702 73.5295 50.7209 73.282 51.4174Z" fill="#050E29"/>
<path d="M74.9736 53.711C75.9226 53.0146 76.4177 52.2773 76.5003 51.499V51.417H76.1289L76.4177 51.2532C76.459 51.2532 76.5003 51.2941 76.5003 51.417C76.8303 51.0074 77.1604 50.5568 77.408 50.1062C77.2842 50.0652 77.1604 50.0243 77.0366 50.0243C76.7066 50.0652 76.4177 50.1472 76.1289 50.311C75.9639 50.352 75.7988 50.5568 75.6751 50.9255C75.5513 51.2941 75.4275 51.499 75.2212 51.5399C75.3862 52.1134 75.2625 52.4821 74.8499 52.605L74.6848 52.6869V52.8507H74.231V51.9496C74.0659 51.9905 73.9421 52.0724 73.8596 52.1953C73.8184 52.3182 73.7771 52.4411 73.7771 52.564C73.7771 52.6459 73.7358 52.7688 73.6946 52.8098H74.231C74.231 53.6291 73.9009 54.1206 73.2407 54.2435V55.0218H73.6946C74.1072 54.5712 74.5198 54.1206 74.9736 53.711Z" fill="#050E29"/>
<path d="M77.9032 44.699C77.3256 44.9448 76.9955 45.5185 76.9955 46.1331C77.5319 45.8053 77.8619 45.2726 77.9032 44.699Z" fill="#050E29"/>
<path d="M71.8379 53.711C71.4666 54.2846 71.1777 54.8993 71.054 55.5549C71.7141 55.2271 72.0855 54.4485 71.8379 53.711Z" fill="#050E29"/>
<path d="M72.8282 52.564C72.2919 52.605 72.0031 53.0148 72.0031 53.7113C72.4982 53.5064 72.8282 53.0967 72.8282 52.564Z" fill="#050E29"/>
<path d="M99.8123 47.5257V46.9111C99.0696 46.9111 98.3682 47.3208 98.0381 47.9764H99.3584C99.3584 48.0584 99.3171 48.1403 99.1934 48.2632L99.0283 48.3452C98.8633 48.3862 98.7395 48.4681 98.657 48.591C98.7808 48.591 98.9045 48.632 99.0283 48.632C99.1521 48.673 99.2759 48.673 99.3997 48.673C99.936 48.3452 100.39 47.9764 100.844 47.5257H99.8123V47.5257Z" fill="#050E29"/>
<path d="M68.7026 62.4362H68.6196V62.5196H68.7026V62.4362Z" fill="#050E29"/>
<path d="M69.0735 60.1015V59.323C68.6609 59.5688 68.6609 59.8147 69.0735 60.1015Z" fill="#050E29"/>
<mask id="mask0_1336_2254" style="mask-type:alpha" maskUnits="userSpaceOnUse" x="62" y="36" width="56" height="57">
<path d="M62.6875 36.0865H117.127V93H62.6875V36.0865Z" fill="#C4C4C4"/>
</mask>
<g mask="url(#mask0_1336_2254)">
<path d="M278.344 48.14C277.808 47.6894 277.148 47.4846 276.487 47.5256C274.92 47.8943 273.393 48.4268 271.949 49.0412C271.825 49.1232 271.784 49.2461 271.784 49.4099C271.908 49.6967 271.908 49.9015 271.784 50.0244C271.536 50.3521 271.124 50.5159 270.711 50.475V50.7208H271.949V50.8846C271.908 51.1304 271.784 51.2533 271.701 51.2942C271.536 51.3352 271.33 51.2942 271.165 51.2533C271 51.2123 270.876 51.1714 270.711 51.1714V50.8846C270.546 50.8846 270.422 50.8436 270.34 50.7208C270.216 50.7208 270.051 50.6798 269.968 50.5569H270.051C270.133 50.475 270.216 50.475 270.34 50.475H270.711C270.752 50.3111 271.082 50.1473 271.619 50.0244V49.4099H270.711C268.194 50.7208 265.595 51.9087 262.954 52.9738C262.913 52.9738 262.707 53.2195 262.418 53.6701C262.665 53.6701 262.913 53.6292 263.119 53.5472C263.326 53.4653 263.532 53.4244 263.738 53.4244C263.738 53.3015 263.779 53.2605 263.862 53.2605C263.986 53.2605 264.068 53.3015 264.192 53.3424C264.274 53.3834 264.357 53.4244 264.481 53.4244C264.316 53.5882 264.192 53.6701 264.109 53.6701C263.202 54.2027 262.542 54.4484 262.046 54.3665C262.088 54.2436 262.129 54.1617 262.17 54.0388C262.253 53.875 262.335 53.7521 262.377 53.6292C262.088 53.6292 261.799 53.7521 261.551 53.9978C258.952 55.1858 256.394 56.5376 253.96 58.0942C253.176 58.4629 252.68 58.299 252.433 57.6436C252.062 56.8653 251.071 55.1858 249.38 52.6051C248.431 50.9665 247.936 49.6557 247.853 48.7135C247.564 48.0172 247.77 47.4027 248.472 46.8702C248.967 46.3376 249.545 45.887 250.164 45.5593C251.278 45.2726 252.02 45.2316 252.392 45.4774C253.052 45.7232 253.506 45.4364 253.753 44.5762C253.877 44.4124 254.001 44.4124 254.207 44.5762C255.404 45.6413 256.6 45.8051 257.797 45.1087C258.333 44.6172 258.374 44.1666 257.879 43.675C256.146 41.9545 254.455 41.0533 252.804 41.0124C251.896 40.8895 250.948 40.9305 250.04 41.0943C248.843 41.2582 248.183 41.3401 248.059 41.3401C246.987 41.6678 245.996 42.2823 245.212 43.1015C244.511 43.7979 244.181 44.781 244.305 45.7642C244.387 46.7063 244.511 47.4846 244.676 48.14L244.222 47.8123C244.14 47.6075 244.057 47.4437 243.892 47.3208C243.768 47.1979 243.644 47.116 243.479 47.034C243.314 46.9931 243.191 46.9931 243.026 46.9931C242.902 46.9931 242.778 46.9931 242.654 46.9111C242.118 46.7882 241.581 46.8702 241.128 47.1979C239.807 48.0172 238.858 48.5906 238.281 48.8774C236.176 50.0653 235.021 50.8436 234.691 51.1714C234.278 51.581 233.742 51.8677 233.164 51.9906C232.463 52.3593 231.555 52.8509 230.441 53.5472C229.327 54.2436 228.543 54.6942 228.089 54.94C224.294 57.1111 222.148 58.299 221.735 58.5038C221.199 58.8725 220.663 59.2002 220.044 59.446C219.507 59.6508 219.012 59.8966 218.517 60.1833C217.444 60.6749 216.33 61.0845 215.216 61.4123C214.102 61.8629 212.988 62.2315 211.833 62.5592C210.348 62.9279 209.234 62.805 208.532 62.1906C208.285 61.0845 208.367 59.9785 208.697 58.9135C209.192 58.2171 209.522 57.4388 209.77 56.6195C210.348 54.8581 211.544 52.728 213.36 50.3111C213.607 49.9015 213.979 49.287 214.556 48.5087C215.01 47.8533 215.464 47.1979 215.835 46.5015C216.413 45.2726 217.321 44.7401 218.517 44.9858H218.765C218.93 44.9858 219.095 44.863 219.177 44.5762C219.26 44.3304 219.26 44.0437 219.136 43.8389C218.435 43.1835 217.692 42.61 216.908 42.0774C215.959 41.5859 214.762 41.7907 214.061 42.61C213.648 43.0606 213.236 43.5112 212.823 43.9208C212.369 44.3714 211.998 44.7401 211.792 45.0268C211.751 44.9858 211.751 44.9449 211.668 44.9039C211.132 45.1497 209.357 46.2148 206.304 48.181C203.251 50.1473 201.312 51.2123 200.487 51.3762C200.61 50.8846 200.858 50.393 201.188 49.9834C201.518 49.5738 201.766 49.1232 201.889 48.5906C202.178 48.0581 202.55 47.5666 203.045 47.1569C203.705 46.5015 203.787 45.8871 203.292 45.3136L201.848 43.7979C201.312 43.2244 200.61 42.7738 199.826 42.61C199.042 42.4051 198.176 42.4871 197.475 42.8148C196.691 43.1835 195.577 43.675 194.132 44.2895C192.688 44.9039 191.574 45.3955 190.873 45.7642C186.706 47.9352 182.786 50.5159 179.155 53.4653H178.908C178.825 53.3834 178.825 53.3015 178.825 53.2195C178.825 53.0966 178.866 53.0557 178.908 53.0557L181.301 48.7135C181.466 48.4268 181.796 47.7714 182.25 46.7473C182.58 45.969 182.992 45.1907 183.529 44.5353C183.817 44.2895 183.776 43.8389 183.364 43.2244L181.92 42.4461C181.424 42.0774 180.805 41.9955 180.269 42.2413C179.733 42.3642 179.279 42.7329 179.073 43.2654C178.949 43.6341 178.495 44.6172 177.711 46.1738L174.782 46.9111C173.75 47.1979 168.923 49.0003 160.217 52.3183L155.389 54.4484C153.285 55.3496 150.975 55.8412 148.705 55.8822C147.963 55.9231 147.179 55.8002 146.477 55.6364C146.312 55.3906 146.353 55.1039 146.601 54.7352C146.807 54.4894 146.972 54.1617 147.014 53.834C147.22 53.0557 147.509 52.3183 147.921 51.622C148.375 50.393 148.912 49.1641 149.53 47.9762C149.654 47.5666 149.695 47.1569 149.737 46.7473C149.778 46.2148 149.943 45.7232 150.149 45.2316C150.314 45.2316 150.397 45.0268 150.314 44.6172C150.232 44.3714 150.232 44.0846 150.314 43.8389C150.314 43.675 150.149 43.4702 149.86 43.2244C149.572 42.9786 149.489 42.7329 149.695 42.528C149.283 42.4051 149.077 42.3232 149.077 42.2823C148.705 42.1594 148.334 42.0365 147.963 41.9545C147.426 41.8726 146.931 41.5449 146.56 41.0943C146.353 41.0943 146.188 41.1353 146.023 41.2582C145.858 41.2991 145.734 41.3811 145.611 41.463C145.446 41.5859 145.239 41.7088 145.033 41.7907C142.929 43.0196 141.113 44.2485 139.504 45.4364C136.162 47.8123 133.645 49.5328 131.912 50.5979C129.561 52.3183 127.085 53.834 124.486 55.1039C124.238 55.1858 124.032 55.3087 123.825 55.4316C123.578 55.5545 123.33 55.6773 123.083 55.8002C122.835 55.8822 122.629 55.9231 122.381 55.9231L122.216 55.8412C122.093 55.6773 122.588 55.0219 123.743 53.875C123.99 53.6701 124.114 53.3834 124.155 53.0966C124.197 52.7689 124.362 52.4822 124.651 52.3183C124.939 52.0316 125.352 51.581 125.888 51.0075C126.342 50.5159 126.714 50.1063 127.126 49.6967C127.291 49.7376 127.456 49.7786 127.58 49.8605H128.199C128.447 49.8605 128.653 49.7376 128.735 49.4918C128.859 49.287 128.859 49.0412 128.735 48.8774C128.653 48.7135 128.57 48.5906 128.488 48.4268C128.612 48.3449 128.694 48.2629 128.818 48.14L131.954 45.0268C134.388 42.8557 136.245 41.422 137.482 40.7666C137.648 40.7256 138.019 40.5618 138.596 40.316C139.009 40.1112 139.463 39.9883 139.876 39.8654C140.164 39.8244 140.66 39.7425 141.361 39.6606C141.939 39.5377 142.516 39.6196 143.011 39.8654C143.176 39.9473 143.341 39.9064 143.465 39.7835C143.589 39.6606 143.63 39.4558 143.548 39.2919C143.506 39.0871 143.383 38.8823 143.3 38.7184C142.929 38.1449 142.227 37.6124 141.196 37.2028C140.164 36.7931 139.339 36.7112 138.72 37.0389C135.873 37.8582 133.81 38.6775 132.573 39.5377C129.354 41.8317 127.291 43.4292 126.425 44.3304C125.641 45.1497 124.898 45.8461 124.279 46.5015C123.99 46.5834 123.784 46.7473 123.578 46.9111C122.505 47.4437 121.721 47.8533 121.267 48.14C117.925 50.0244 115.532 51.581 114.129 52.8509C113.593 53.2195 112.809 53.7521 111.819 54.4894C110.787 55.2267 110.045 55.7593 109.508 56.1279C108.394 57.0291 107.239 57.8484 106.042 58.6267C103.773 60.1833 101.256 61.4123 98.6156 62.2725L96.8414 62.6412C96.6763 62.805 96.47 62.7231 96.2225 62.3954L96.3875 61.9448C97.3778 60.6749 98.2442 59.3231 99.0694 57.9713C99.5645 56.9882 100.101 56.046 100.761 55.1448C100.967 54.8581 101.297 54.7352 101.669 54.7761C101.999 54.899 102.329 54.981 102.659 54.94C102.989 54.899 103.278 54.7352 103.443 54.4894C103.814 53.7521 104.309 53.0966 104.887 52.4822C105.382 51.9497 105.877 51.3762 106.331 50.7617C107.486 49.4509 107.94 47.6894 107.569 45.969C107.528 45.7232 107.404 45.5184 107.198 45.3955C106.95 45.2316 106.909 44.9039 107.033 44.6581V44.5762C106.001 44.5762 105.3 44.2075 104.887 43.5112H104.186C102.7 43.5112 101.215 43.8798 99.8946 44.5762C98.9869 44.9859 98.1617 45.4774 97.2952 46.0099C95.9749 46.5425 95.1085 47.034 94.6959 47.4437C94.3245 47.9352 93.6231 48.3858 92.5503 48.8774C91.5601 49.1232 90.6524 49.6557 89.951 50.393C89.8272 50.5979 89.6209 50.7208 89.4146 50.8436C88.8369 50.9665 87.888 51.4171 86.6502 52.2774L78.8107 58.6677C78.6457 58.8315 78.3156 59.2412 77.8205 59.8147C76.9953 60.3062 76.5415 60.6749 76.5002 60.9617L72.2917 64.6893C72.0441 64.9351 71.7553 65.1809 71.5077 65.3857C71.2189 65.6315 70.8888 65.8773 70.4762 66.1231C70.1874 66.3279 69.8986 66.5327 69.6098 66.7785L69.5272 67.0243C69.4447 66.9014 69.3622 66.7375 69.3622 66.5737C69.4035 66.3279 69.6098 65.8363 69.8986 65.099C70.1874 64.3616 70.3937 63.7881 70.5175 63.3785C70.7651 62.8869 70.8888 62.3544 70.8888 61.7809C70.8888 61.658 71.0539 61.4123 71.3839 61.0845C71.714 60.7159 71.7965 60.3882 71.5902 60.1014C72.0028 59.6099 72.3742 59.0773 72.6217 58.5038C72.8693 57.9713 73.1581 57.4797 73.4882 56.9882C73.6533 56.8243 73.777 56.6195 73.8595 56.4147C73.9421 56.2508 74.0246 56.087 74.1484 55.9231C74.1484 55.6773 74.0246 55.4725 73.777 55.3906C73.6532 55.3906 73.5707 55.5545 73.5295 55.8412C73.5295 55.5954 73.4882 55.4725 73.3644 55.3906H73.0756V55.9231C73.0756 56.1279 73.1169 56.3328 73.1581 56.5376L72.8693 56.6195C72.7455 56.6605 72.5805 56.7014 72.4154 56.7014C72.3742 57.1111 71.9203 57.8894 71.0539 58.9954V57.6846H70.5175V56.4557C70.2699 56.4966 70.1461 56.8243 70.1461 57.4388H70.5175C70.5175 57.9303 70.3937 58.2171 70.1461 58.34C70.1874 58.7496 69.9811 59.1183 69.6098 59.3231C69.651 59.6918 69.4035 60.0195 69.0734 60.1424C69.0734 60.3882 68.8671 60.593 68.4545 60.7568C68.4545 60.8797 68.4132 61.0026 68.4132 61.1255C68.372 61.2894 68.372 61.4123 68.372 61.5761C68.4958 61.6171 68.6195 61.9448 68.7433 62.4773H69.1146V62.5592H69.3622C69.1559 62.805 69.0734 63.1327 69.1146 63.4604L69.0321 63.6243C68.9909 63.5014 68.8671 63.4604 68.7846 63.4604C68.7846 63.1737 68.7846 62.846 68.702 62.5592H68.4545L68.372 62.846C68.372 63.0918 68.2894 63.2147 68.1244 63.2147L68.0419 62.846V62.5592C67.8769 62.6002 67.7118 62.6821 67.588 62.846C67.5055 63.0098 67.5055 63.2146 67.5055 63.3785C67.5055 63.5424 67.4643 63.7472 67.423 63.911L67.7943 64.0749V64.4436C67.7118 64.4436 67.6706 64.4436 67.6293 64.4026C67.588 64.3616 67.5055 64.3616 67.4642 64.3616V63.8291L67.2992 63.911L67.2167 63.993C66.8041 65.6725 66.2264 67.311 65.525 68.8676C64.9474 69.6869 64.9474 70.4652 65.525 71.1616C66.309 72.3495 67.0104 72.964 67.6705 73.005C67.9594 73.0459 68.2895 73.005 68.5783 72.923L70.7238 71.3254C70.8888 70.8748 71.2189 70.4652 71.6728 70.2604C72.0441 70.0965 72.3329 69.8508 72.6217 69.564C76.8303 65.6725 79.1408 63.5424 79.5122 63.1737C80.75 61.8629 82.029 60.6339 83.4319 59.5279C84.4634 58.8315 85.825 57.7665 87.5579 56.3737C89.2908 54.981 90.4873 54.0388 91.1475 53.5882C91.3951 53.3424 91.6014 53.0557 91.7664 52.8099H90.9825C91.1062 52.5232 91.4363 52.3593 91.9727 52.3593C91.9727 52.3183 92.014 52.2364 92.1377 52.1954C92.2615 52.1545 92.344 52.0316 92.3853 51.9497V52.4003C93.8294 51.9087 95.191 51.1714 96.3875 50.2702C96.3875 50.2292 96.4288 50.1063 96.5526 49.9834C96.6763 49.8605 96.7589 49.7786 96.8414 49.6147H95.7686C95.7686 49.5328 95.7274 49.4099 95.6861 49.369C94.7371 49.2051 93.9532 49.5738 93.3755 50.5159C93.4168 50.5979 93.4993 50.7208 93.5406 50.7617C93.5406 50.7617 93.5406 50.7617 93.5818 50.7617C93.6231 50.7617 93.6644 50.8027 93.6644 50.8436L93.3755 51.1304V50.5159C93.2105 50.5159 92.8804 50.7208 92.4678 51.1304C92.2615 51.1714 92.0552 51.2942 91.9314 51.4991C91.6014 51.4991 91.2713 51.622 91.0237 51.8677C89.951 52.5232 88.9607 53.2605 87.9705 54.0798C87.9292 54.0798 87.8054 54.1617 87.7229 54.3256C87.6404 54.4484 87.5579 54.5713 87.4754 54.6942C87.0215 54.7352 86.5676 54.94 86.2376 55.2677C85.9487 55.5545 85.6187 55.7593 85.2473 55.9231C84.3396 56.7424 83.3493 57.4798 82.3178 58.1352C81.9052 58.4219 79.7185 60.3062 75.7988 63.8291C75.7163 63.8291 75.5925 63.911 75.5512 63.952C75.4274 64.0339 75.3037 64.1159 75.1799 64.1568C75.0561 64.2387 74.8911 64.2387 74.726 64.2387C75.3862 63.2147 76.1701 62.2725 77.1191 61.4942C78.0268 60.6749 79.3471 59.5279 81.1213 58.0532C82.8955 56.5785 83.927 55.7593 84.1746 55.5545C85.4124 54.4894 86.7327 53.4653 88.0943 52.5232C89.8272 51.1714 91.1475 50.3111 92.0965 49.9424C92.5091 49.6967 93.1692 49.287 94.1182 48.6726C95.0672 48.0581 95.8511 47.5256 96.5938 47.116C97.2952 46.7063 98.0379 46.3786 98.8219 46.1328C99.3582 45.928 99.9359 45.6822 100.431 45.3955C100.926 45.1087 101.504 44.863 102.04 44.6581C102.246 44.6172 102.411 44.7401 102.494 44.9039L102.411 45.1907C101.751 45.3955 101.132 45.7232 100.637 46.1738C100.142 46.3376 99.9359 46.5834 99.9359 46.8702H100.844V47.4846C101.215 47.6075 101.297 47.7714 101.091 48.0172C100.926 48.3449 100.72 48.6316 100.472 48.8774C100.183 49.1232 99.9771 49.4509 99.8534 49.8196C99.6058 50.8027 99.1519 51.7448 98.533 52.5641C97.9554 53.5063 97.0064 54.8581 95.7274 56.6605C94.4483 58.4219 93.5406 59.6918 93.0042 60.4701C92.8392 60.8388 92.6329 61.2074 92.3853 61.5351C92.014 62.4773 92.0965 63.5424 92.5916 64.4026C92.9629 65.2219 93.7056 65.8363 94.6133 66.0411C97.5841 66.4098 100.596 65.8363 103.195 64.3616C104.64 63.5833 105.382 63.1737 105.506 63.1327C105.795 62.9689 106.455 62.5183 107.445 61.8629C108.188 61.3303 108.972 60.8797 109.797 60.4701C110.292 60.0605 111.777 58.8725 114.253 56.9063C115.45 56.0051 116.729 55.1858 118.049 54.4484C117.967 54.8581 117.925 55.3087 117.925 55.7183C118.09 57.0701 118.462 58.0942 118.998 58.7906C119.534 59.487 120.401 59.9376 121.597 60.1833H124.527C124.692 60.1833 124.857 60.1014 125.022 60.0195C125.146 59.9376 125.27 59.8966 125.435 59.8556C128.24 58.1352 129.849 57.152 130.262 56.8243C130.51 56.7014 131.83 55.7593 134.264 53.9978C135.585 53.0966 136.781 52.3593 137.854 51.7858L144.208 47.3617C144.249 47.2388 144.373 47.2798 144.579 47.4437V47.6075C144.538 47.7714 144.332 48.3039 144.043 49.1641C143.795 49.8196 143.63 50.475 143.506 51.1714C142.929 53.875 143.259 55.9231 144.579 57.2749C144.62 57.4388 144.703 57.6436 144.786 57.8484C144.868 58.0123 144.909 58.1761 144.909 58.34C145.198 59.1183 146.023 59.7327 147.426 60.1833C149.077 60.7159 150.273 60.7568 150.892 60.2653H151.8C152.377 60.1424 153.244 59.9785 154.358 59.7737C155.472 59.5689 156.049 59.446 156.173 59.446C158.154 59.0364 160.01 58.299 161.702 57.234L164.301 56.3328C164.549 56.1279 164.797 55.9231 164.962 55.6774C165.209 55.3087 165.622 55.1448 166.076 55.1858H166.323C167.107 54.1617 167.891 53.6292 168.634 53.5063H168.716V53.4244C168.427 53.5063 168.097 53.5882 167.809 53.6701C167.52 53.793 167.19 53.9159 166.818 54.0388C166.447 54.1617 166.199 54.2436 166.034 54.2846L165.663 54.0388C165.704 53.9159 165.746 53.793 165.828 53.6701C167.644 52.8099 169.542 52.0726 171.439 51.4581C172.058 50.6388 173.007 50.0653 174.039 49.8605C174.493 49.2461 175.235 48.8364 176.019 48.7955C176.102 48.6726 176.184 48.5497 176.308 48.4268C176.019 48.3039 175.731 48.2629 175.4 48.222C174.988 48.14 174.616 48.0581 174.245 47.8943V47.8123C175.524 47.3617 176.597 47.034 177.505 46.8292C177.422 47.034 177.298 47.2388 177.216 47.4437C175.194 51.4171 173.502 54.5713 172.141 56.9472C171.976 57.234 170.49 59.8556 167.767 64.8532C167.479 65.2219 167.231 65.6315 167.066 66.0821V68.1303C167.231 68.458 167.479 68.7447 167.726 69.0315C167.974 69.2773 168.221 69.605 168.386 69.9327H168.551C168.634 69.9736 168.675 70.0556 168.758 70.0556C168.881 70.0965 168.964 70.1375 169.088 70.1785C169.583 70.4242 169.954 70.2604 170.243 69.7279C170.449 69.3592 170.697 69.0315 170.986 68.7038C171.316 68.3351 171.605 67.9255 171.852 67.5158C172.595 66.4098 173.379 65.3448 174.245 64.3616C175.359 63.0508 175.978 62.3544 176.019 62.2725C176.391 61.6171 177.381 60.5111 179.073 58.9954C179.238 58.8315 179.526 58.5858 179.857 58.299C180.228 58.0123 180.475 57.7665 180.64 57.6026L182.25 56.5376C183.24 55.6364 184.313 54.8171 185.427 54.0388C186.541 53.2605 187.943 52.3593 189.718 51.2533C191.492 50.1473 192.647 49.4509 193.266 49.0822C193.679 48.8364 194.132 48.6316 194.586 48.4678C195.164 48.222 195.618 48.0581 195.907 47.9352C196.072 47.8943 196.237 47.9352 196.361 48.0172C196.526 48.14 196.608 48.2629 196.608 48.3858C196.237 49.6147 196.526 51.0894 197.392 52.728C197.433 52.9328 197.475 53.1376 197.557 53.3015C197.681 53.5472 197.763 53.793 197.846 53.9569C198.135 54.4075 198.63 54.6533 199.166 54.6533C201.188 54.6533 202.632 54.1207 203.457 53.0557C203.705 52.687 204.984 51.6629 207.294 49.9424C207.955 49.4509 208.532 49.0412 209.027 48.6316C207.913 50.393 206.923 52.2364 206.139 54.2027C205.644 55.9641 205.355 57.3159 205.149 58.299C204.984 59.8966 205.273 61.4942 205.933 62.9279C206.18 63.5833 206.51 64.2387 206.964 64.7713C207.459 65.4677 207.748 65.8773 207.831 66.0002C208.037 66.164 208.285 66.2869 208.532 66.246C210.843 66.9014 213.318 66.8604 215.588 66.0821C217.362 65.3857 218.517 64.9761 218.971 64.8532C219.466 64.6893 221.694 63.5014 225.779 61.2894C227.759 60.1014 228.956 59.405 229.451 59.1593C229.616 59.0364 229.987 58.7906 230.524 58.3809C230.978 58.0123 231.432 57.7255 231.927 57.3978C232.298 57.152 232.711 56.9882 233.123 56.8653C233.412 56.5376 233.701 56.2508 234.072 56.0051C234.444 55.7183 234.939 55.4316 235.475 55.1039C236.011 54.7761 236.383 54.5304 236.63 54.3665V53.9978H235.723C235.929 53.4244 236.465 53.0147 237.043 53.0147C237.084 52.9738 237.167 52.8918 237.208 52.8509C237.249 52.8099 237.332 52.7689 237.414 52.7689C237.538 52.7689 237.621 52.7689 237.744 52.728C237.827 52.728 237.951 52.646 237.992 52.6051C238.157 52.1954 238.652 51.8268 239.436 51.54C239.642 51.4171 239.89 51.3352 240.137 51.3762C240.344 51.0075 240.798 50.8027 241.21 50.8436V51.3762C241.499 51.2942 241.788 51.2533 242.077 51.2123C242.448 51.1714 242.696 51.1304 242.737 51.1304C243.397 50.475 244.14 49.9834 244.965 49.6147C245.089 49.5738 245.171 49.4509 245.212 49.369C245.666 50.0653 246.285 51.0894 247.028 52.4003C247.812 53.793 248.348 54.7352 248.637 55.2677C248.802 55.6364 249.132 56.1689 249.627 56.9063C249.999 57.4388 250.329 58.0532 250.617 58.6267C250.659 58.6677 250.659 58.7087 250.7 58.7087C250.948 59.0773 250.906 59.5689 250.535 59.8556C249.71 60.3062 248.513 61.0845 247.028 62.0677C245.501 63.0918 244.346 63.7881 243.603 64.1978C241.747 65.4267 240.756 66.1231 240.55 66.246C238.404 67.4339 236.383 68.9086 234.567 70.5881C234.485 70.752 234.361 70.9158 234.196 71.0387C234.155 71.1616 234.072 71.2845 234.031 71.4074C233.412 72.5134 233.371 73.8652 233.866 75.0531C234.072 76.1182 234.856 76.9784 235.929 77.2652C236.424 77.5519 236.919 77.7567 237.456 77.9615C238.157 78.2483 238.652 78.4531 238.9 78.576C240.756 79.3543 242.118 79.3543 243.026 78.576C243.397 78.4121 243.768 78.3302 244.14 78.2483C244.635 78.1664 245.006 78.0844 245.254 78.0435C246.079 77.9206 246.863 77.5109 247.399 76.8965C249.38 75.2579 250.535 74.1929 250.989 73.7833C252.763 72.1857 253.918 70.67 254.372 69.1544C255.074 67.4339 255.28 66.0002 254.908 64.8122C254.785 64.0339 254.702 63.2966 254.661 62.5183C254.661 61.699 254.991 61.1665 255.651 60.9207C255.857 60.7978 256.064 60.6339 256.27 60.4701C256.518 60.2653 256.806 60.1014 257.095 59.9376C257.343 59.8147 257.632 59.7737 257.879 59.7737C259.076 59.0773 260.19 58.299 261.263 57.4797C261.551 57.3978 261.84 57.234 262.129 57.0291C262.294 56.8653 262.5 56.7424 262.707 56.6605C262.954 56.6605 263.078 56.4966 263.119 56.2099V56.1689C263.16 55.9231 263.367 55.7593 263.614 55.8002C264.109 55.5135 264.77 55.1039 265.677 54.6533C266.585 54.2027 267.204 53.834 267.534 53.6701C267.782 53.5882 268.07 53.5882 268.359 53.5882C269.102 52.9738 269.968 52.5232 270.876 52.1545C271.495 51.8268 272.073 51.4991 272.65 51.0894V50.8027H272.155C272.238 50.8027 272.32 50.7208 272.279 50.6388H272.031C272.196 50.475 272.692 50.393 273.475 50.393C273.682 50.1063 274.012 49.9424 274.383 49.9424H274.466C274.507 49.7786 274.631 49.6147 274.796 49.5328C274.92 49.4509 275.085 49.4509 275.208 49.5738C275.58 49.8605 276.116 49.9015 276.818 49.6557L278.262 49.287L278.963 48.9184C278.881 48.7135 278.757 48.4268 278.344 48.14ZM70.1461 60.6339C70.1874 61.0026 69.9811 61.3713 69.6098 61.5351V61.3713C69.5685 61.0026 69.8161 60.6749 70.1461 60.6339ZM69.0734 62.3954C69.0321 62.0267 69.2384 61.658 69.6098 61.4942C69.6098 62.0677 69.5272 62.3954 69.3209 62.4773V62.3954H69.0734ZM134.636 50.1063V49.9015H134.801L134.636 50.1063ZM135.007 49.7376C135.007 49.4509 135.089 49.287 135.254 49.287C135.254 49.5738 135.172 49.7376 135.007 49.7376ZM135.337 49.287C135.75 48.7545 136.121 48.5087 136.492 48.5087C136.451 49.0412 136.08 49.287 135.337 49.287ZM136.699 48.5087C137.07 47.9352 137.482 47.6075 137.936 47.6075C137.813 48.2629 137.4 48.5497 136.699 48.5087ZM139.463 46.7063C139.422 47.1979 138.968 47.4027 138.225 47.4027C138.266 46.9521 138.679 46.7063 139.463 46.7063C139.628 46.0919 140.164 45.7232 140.783 45.7232C140.618 46.3376 140.082 46.7063 139.463 46.7063ZM142.227 44.863C141.815 45.4364 141.361 45.7642 140.866 45.7642C140.99 45.2726 141.443 44.9858 142.227 44.863C142.599 44.2075 143.011 43.9208 143.548 43.9618C143.383 44.5353 142.805 44.9039 142.227 44.863ZM143.548 43.8798C143.713 43.3473 144.249 43.0196 144.786 43.1015C144.703 43.716 144.29 44.0027 143.548 43.8798ZM158.608 56.3328C158.071 56.4966 157.535 56.7014 157.04 56.9882H156.751C156.297 56.8243 155.802 56.7014 155.266 56.6195C154.812 56.6605 154.399 56.7834 153.986 56.9472C153.409 57.152 152.955 57.2749 152.749 57.3569C152.625 57.3569 152.584 57.3159 152.584 57.2749C152.46 57.2749 152.419 57.234 152.419 57.193V57.0291C152.542 56.9472 152.666 56.8653 152.79 56.7834L152.955 56.7014C153.244 56.6605 154.069 56.4557 155.348 56.1279C156.668 55.8002 157.659 55.5954 158.401 55.4725H160.382C159.845 55.8412 159.268 56.1689 158.608 56.3328ZM162.692 52.2364V52.4003L162.445 52.2364H162.692ZM160.959 52.9328L160.712 52.646H160.877C160.918 52.646 160.918 52.646 160.959 52.646C161.083 52.646 161.166 52.7689 161.166 52.8918H160.959V52.9328ZM161.62 55.3906V55.4725C161.578 55.3087 161.578 55.2267 161.702 55.1858C161.702 55.3087 161.661 55.3496 161.62 55.3906ZM162.775 55.2268H162.073C162.073 54.94 162.28 54.7761 162.692 54.7761L162.775 54.8581L162.857 54.94C162.857 55.0629 162.816 55.1448 162.775 55.2268ZM163.559 52.1135H162.775C162.94 51.8677 163.187 51.7039 163.476 51.6629L164.013 51.581C164.013 51.9497 163.848 52.1135 163.559 52.1135ZM166.447 50.9665C165.869 51.54 165.003 51.7448 164.219 51.581C164.714 50.9256 165.457 50.6798 166.447 50.8027V50.9665ZM166.447 50.7208C167.231 50.0653 167.974 49.8196 168.675 49.9424C168.262 50.5569 167.52 50.8436 166.447 50.7208ZM172.223 49.7376L172.058 49.6557H172.223V49.7376ZM174.121 48.222C172.884 48.8364 171.563 49.2051 170.202 49.287C169.954 49.6967 169.459 49.9424 168.964 49.9015C168.964 49.4918 169.005 49.287 169.129 49.287H170.202V49.2051C171.852 48.3858 173.214 48.0581 174.204 48.222H174.121ZM240.55 50.2702C239.601 50.7617 238.281 51.4991 236.589 52.4822C234.897 53.4653 233.783 54.1207 233.247 54.4484C232.504 54.899 231.679 55.1858 230.854 55.2268C230.854 55.0629 231.143 54.8171 231.762 54.5304C232.339 54.1617 233.288 53.6292 234.526 52.9328C235.764 52.2364 236.713 51.6629 237.373 51.2533C238.57 50.5569 239.89 50.0244 241.21 49.6557L240.55 50.2702ZM250.205 61.2484C250.411 61.0026 250.7 60.8797 251.03 60.8797C251.154 60.8797 251.195 60.9207 251.195 60.9617C251.071 61.0845 250.865 61.2074 250.7 61.2894C250.535 61.3303 250.411 61.4123 250.287 61.4942L250.205 61.3303V61.2484ZM249.586 71.2026C249.38 71.3664 249.173 71.5303 248.967 71.6941C248.719 71.858 248.513 72.0218 248.348 72.2676C247.523 73.3327 246.079 74.07 244.057 74.4796C243.81 74.4796 243.603 74.5206 243.397 74.6025C243.232 74.6845 243.026 74.7254 242.819 74.7254C241.87 74.9712 240.839 74.9712 239.89 74.7254C239.642 74.6435 239.271 74.5616 238.776 74.4387C238.404 74.3567 238.074 74.2339 237.744 74.07C237.455 74.07 237.373 73.9881 237.456 73.7833C237.497 73.6604 237.538 73.5375 237.621 73.4146L237.786 73.1688C238.982 71.7351 240.467 70.5471 242.159 69.7279C244.305 68.6218 246.285 67.27 248.059 65.6315C249.38 64.6893 250.741 63.8291 252.185 63.0508C252.887 66.0002 252.02 68.7038 249.586 71.2026ZM254.207 59.0364C254.331 58.34 254.785 58.0123 255.527 58.1352C255.404 58.7496 254.826 59.1183 254.207 59.0364ZM255.651 58.0532C256.022 57.4797 256.724 57.0291 257.797 56.7424C257.384 57.5617 256.559 58.0532 255.651 58.0532ZM257.879 56.7424C258.127 56.1689 258.704 55.8412 259.653 55.8412V56.2099L259.2 56.7424H257.879ZM259.653 56.7424V56.2099H260.479C260.479 56.5785 260.19 56.7424 259.653 56.7424ZM262.335 55.3087C261.964 56.2099 261.386 56.4966 260.561 56.2099V55.8412H259.653C259.901 55.1448 260.52 54.8581 261.51 55.0629V55.3087C260.974 55.3087 260.644 55.4725 260.52 55.8412C261.18 55.8412 261.551 55.6773 261.593 55.3087H262.335C262.459 54.94 262.83 54.8581 263.408 55.0629C263.284 55.2268 262.954 55.3087 262.335 55.3087ZM263.862 54.94C263.738 55.0219 263.532 55.0219 263.408 54.899C263.449 54.4894 263.697 54.3256 264.109 54.4484C264.151 54.6533 264.068 54.8171 263.862 54.94ZM266.007 53.6292C265.966 53.9978 265.636 54.1207 265.1 53.9978C265.182 53.7521 265.471 53.6292 266.007 53.6292C266.131 53.2195 266.544 52.9328 266.998 53.0147C266.874 53.4244 266.461 53.7111 266.007 53.6292ZM268.07 52.5641V52.1954H266.626C267.039 51.4991 267.575 51.1714 268.235 51.2942C268.112 51.581 268.07 51.8677 268.07 52.1954H268.772C268.648 52.4822 268.359 52.6051 268.07 52.5641Z" fill="#050E29"/>
</g>
</svg>
